<svg width="211" height="201" viewBox="0 0 211 201" fill="none" xmlns="http://www.w3.org/2000/svg">
<g clip-path="url(#clip0)">
<path d="M127.711 11.2772L17.7822 34.8784L50.3715 186.858L160.3 163.256L127.711 11.2772Z" fill="#E0E0E0"/>
<g opacity="0.5">
<path opacity="0.5" d="M126.406 14.2457L20.1924 37.0493L51.6801 183.892L157.894 161.088L126.406 14.2457Z" fill="url(#paint0_linear)"/>
</g>
<path d="M125.284 15.6168L21.7747 37.8398L52.5667 181.438L156.076 159.215L125.284 15.6168Z" fill="#FAFAFA"/>
<path d="M98.0053 14.9617L46.6555 25.9863L49.3244 38.4327L100.674 27.4081L98.0053 14.9617Z" fill="url(#paint1_linear)"/>
<path d="M69.7218 8.31723C65.7573 9.16931 63.249 13.1517 64.1211 17.2113C64.9933 21.2709 68.9114 23.876 72.8682 23.0239C76.825 22.1718 79.341 18.1895 78.4689 14.1299C77.5968 10.0703 73.6863 7.46515 69.7218 8.31723ZM72.2096 19.9271C71.3717 20.127 70.4933 20.0728 69.6863 19.7714C68.8794 19.4699 68.1804 18.9349 67.6784 18.2344C67.1765 17.534 66.8943 16.6999 66.8679 15.8384C66.8415 14.9769 67.072 14.127 67.5301 13.3971C67.9882 12.6672 68.6532 12.0903 69.4401 11.7399C70.2271 11.3895 71.1006 11.2816 71.9491 11.4298C72.7977 11.5779 73.5829 11.9756 74.2048 12.572C74.8266 13.1684 75.2569 13.9366 75.4409 14.7786C75.5679 15.329 75.5851 15.8991 75.4913 16.4562C75.3975 17.0133 75.1947 17.5463 74.8945 18.0247C74.5942 18.5031 74.2024 18.9175 73.7417 19.2439C73.2809 19.5704 72.7603 19.8026 72.2096 19.9271Z" fill="url(#paint2_linear)"/>
<path d="M97.3499 14.5441L47.0818 25.3364L49.633 37.2341L99.9012 26.4418L97.3499 14.5441Z" fill="#717171"/>
<path d="M69.722 8.31733C68.3325 8.61574 67.0627 9.31972 66.0731 10.3402C65.0834 11.3608 64.4185 12.652 64.1622 14.0507C63.906 15.4494 64.07 16.8927 64.6335 18.1981C65.197 19.5035 66.1347 20.6124 67.328 21.3846C68.5214 22.1568 69.9168 22.5575 71.3377 22.5362C72.7587 22.5148 74.1414 22.0724 75.311 21.2647C76.4807 20.4571 77.3847 19.3205 77.9088 17.9988C78.4329 16.677 78.5536 15.2295 78.2555 13.8391C78.0576 12.9158 77.6799 12.0406 77.1439 11.2635C76.6079 10.4863 75.9242 9.82237 75.1318 9.30962C74.3393 8.79687 73.4537 8.44533 72.5255 8.27507C71.5973 8.10481 70.6447 8.11917 69.722 8.31733ZM72.0991 19.4123C71.2971 19.5845 70.4621 19.5149 69.6997 19.2122C68.9372 18.9095 68.2816 18.3874 67.8157 17.7118C67.3499 17.0363 67.0947 16.2377 67.0824 15.417C67.0701 14.5963 67.3014 13.7905 67.7469 13.1013C68.1924 12.4121 68.8321 11.8706 69.5852 11.5453C70.3382 11.2199 71.1708 11.1253 71.9776 11.2735C72.7844 11.4216 73.5292 11.8058 74.1177 12.3775C74.7063 12.9492 75.1122 13.6827 75.2841 14.4852C75.5146 15.5612 75.3086 16.6847 74.7113 17.6087C74.114 18.5327 73.1744 19.1815 72.0991 19.4123Z" fill="#717171"/>
<path d="M178.777 30.0957H66.3467V185.534H178.777V30.0957Z" fill="#E0E0E0"/>
<g opacity="0.5">
<path opacity="0.5" d="M176.878 32.7236H68.2476V182.908H176.878V32.7236Z" fill="url(#paint3_linear)"/>
</g>
<path d="M175.494 33.8311H69.6292V180.697H175.494V33.8311Z" fill="white"/>
<path d="M148.96 27.4619H96.4414V40.1916H148.96V27.4619Z" fill="url(#paint4_linear)"/>
<path d="M122.701 15.0361C118.646 15.0361 115.358 18.4033 115.358 22.5581C115.358 26.7129 118.646 30.0801 122.701 30.0801C126.755 30.0801 130.043 26.7129 130.043 22.5581C130.043 18.4033 126.755 15.0361 122.701 15.0361ZM122.701 26.8983C121.839 26.9187 120.99 26.6817 120.264 26.2174C119.537 25.7531 118.965 25.0826 118.621 24.2916C118.277 23.5006 118.176 22.6248 118.332 21.7763C118.487 20.9277 118.892 20.1447 119.494 19.5274C120.097 18.9101 120.869 18.4864 121.713 18.3104C122.557 18.1344 123.435 18.2141 124.233 18.5394C125.032 18.8646 125.715 19.4207 126.197 20.1365C126.678 20.8523 126.935 21.6954 126.935 22.5581C126.944 23.692 126.503 24.783 125.709 25.5925C124.916 26.402 123.834 26.8641 122.701 26.8777V26.8983Z" fill="url(#paint5_linear)"/>
<path d="M148.407 26.9165H96.9949V39.085H148.407V26.9165Z" fill="#717171"/>
<path d="M122.701 15.0361C121.28 15.0361 119.89 15.4578 118.709 16.2478C117.527 17.0379 116.606 18.1608 116.062 19.4746C115.518 20.7883 115.376 22.234 115.653 23.6287C115.931 25.0234 116.615 26.3045 117.62 27.31C118.625 28.3155 119.905 29.0003 121.299 29.2777C122.693 29.5552 124.138 29.4128 125.451 28.8686C126.764 28.3244 127.886 27.4029 128.675 26.2205C129.465 25.0381 129.886 23.648 129.886 22.226C129.886 20.3191 129.129 18.4904 127.782 17.142C126.434 15.7936 124.607 15.0361 122.701 15.0361ZM122.701 26.3757C121.881 26.3747 121.08 26.1307 120.399 25.6746C119.718 25.2184 119.187 24.5706 118.874 23.8128C118.561 23.0551 118.479 22.2214 118.638 21.4171C118.798 20.6127 119.193 19.8738 119.772 19.2936C120.351 18.7133 121.089 18.3178 121.893 18.1569C122.696 17.9961 123.529 18.0771 124.287 18.3897C125.045 18.7024 125.693 19.2327 126.15 19.9136C126.606 20.5946 126.851 21.3956 126.853 22.2157C126.853 22.7609 126.745 23.3006 126.536 23.8041C126.327 24.3076 126.021 24.765 125.636 25.1501C125.25 25.5353 124.792 25.8406 124.289 26.0487C123.785 26.2568 123.246 26.3635 122.701 26.3628V26.3757Z" fill="#717171"/>
<g opacity="0.5">
<path opacity="0.5" d="M4.89579 189.735H3.92847V195.226H4.89579V189.735Z" fill="#47E6B1"/>
<path opacity="0.5" d="M7.15723 192.966V191.998H1.66973V192.966H7.15723Z" fill="#47E6B1"/>
</g>
<g opacity="0.5">
<path opacity="0.5" d="M117.121 0H116.154V5.49087H117.121V0Z" fill="#47E6B1"/>
<path opacity="0.5" d="M119.382 3.22816V2.26025L113.895 2.26025V3.22816L119.382 3.22816Z" fill="#47E6B1"/>
</g>
<path opacity="0.5" d="M198.373 198.876C198.107 198.76 197.892 198.55 197.77 198.285C197.648 198.021 197.627 197.721 197.712 197.442C197.726 197.4 197.735 197.356 197.738 197.311C197.746 197.184 197.712 197.057 197.642 196.95C197.572 196.843 197.47 196.762 197.35 196.717C197.231 196.673 197.1 196.669 196.977 196.705C196.855 196.741 196.747 196.815 196.67 196.917C196.644 196.953 196.621 196.992 196.603 197.033C196.487 197.3 196.277 197.515 196.013 197.637C195.749 197.759 195.449 197.779 195.17 197.695C195.128 197.681 195.084 197.672 195.039 197.669C194.912 197.661 194.785 197.695 194.678 197.765C194.572 197.835 194.49 197.937 194.446 198.057C194.402 198.177 194.397 198.307 194.433 198.43C194.469 198.553 194.544 198.66 194.646 198.737C194.681 198.764 194.72 198.786 194.761 198.804C195.028 198.92 195.243 199.131 195.365 199.395C195.487 199.659 195.507 199.959 195.423 200.238C195.409 200.281 195.4 200.325 195.397 200.369C195.389 200.497 195.423 200.623 195.492 200.73C195.562 200.837 195.665 200.919 195.784 200.963C195.904 201.007 196.035 201.012 196.157 200.976C196.28 200.94 196.388 200.865 196.464 200.763C196.491 200.727 196.514 200.688 196.531 200.647C196.648 200.38 196.858 200.165 197.122 200.043C197.386 199.921 197.686 199.901 197.964 199.986C198.007 199.999 198.051 200.008 198.096 200.011C198.223 200.019 198.349 199.986 198.456 199.916C198.563 199.846 198.645 199.743 198.689 199.624C198.733 199.504 198.737 199.373 198.702 199.25C198.666 199.128 198.591 199.02 198.489 198.943C198.453 198.916 198.414 198.894 198.373 198.876Z" fill="#4D8AF0"/>
<path opacity="0.5" d="M35.1607 146.089C34.8939 145.972 34.6791 145.762 34.5572 145.498C34.4353 145.233 34.4148 144.933 34.4996 144.655C34.5133 144.612 34.5219 144.568 34.5253 144.523C34.533 144.396 34.4994 144.269 34.4296 144.162C34.3598 144.056 34.2574 143.974 34.1377 143.93C34.0179 143.886 33.8871 143.881 33.7646 143.917C33.6421 143.953 33.5345 144.028 33.4576 144.13C33.4309 144.165 33.4084 144.204 33.3907 144.245C33.2746 144.512 33.0644 144.727 32.8002 144.849C32.536 144.971 32.2361 144.992 31.9578 144.907C31.9152 144.893 31.8712 144.885 31.8266 144.881C31.6991 144.874 31.5726 144.907 31.4658 144.977C31.3589 145.047 31.2774 145.149 31.2332 145.269C31.1891 145.389 31.1846 145.52 31.2206 145.642C31.2566 145.765 31.331 145.873 31.4329 145.95C31.4688 145.976 31.5076 145.999 31.5487 146.017C31.8155 146.133 32.0303 146.343 32.1522 146.607C32.2742 146.872 32.2947 147.172 32.2099 147.45C32.1962 147.493 32.1876 147.537 32.1842 147.582C32.1765 147.709 32.21 147.836 32.2799 147.943C32.3497 148.05 32.452 148.131 32.5718 148.175C32.6916 148.22 32.8224 148.224 32.9448 148.188C33.0673 148.152 33.175 148.078 33.2518 147.976C33.2786 147.94 33.301 147.901 33.3187 147.86C33.4349 147.593 33.645 147.378 33.9093 147.256C34.1735 147.134 34.4733 147.113 34.7517 147.198C34.7943 147.212 34.8383 147.22 34.8829 147.224C35.0103 147.232 35.1368 147.198 35.2437 147.128C35.3505 147.058 35.4321 146.956 35.4762 146.836C35.5204 146.716 35.5248 146.585 35.4888 146.463C35.4529 146.34 35.3784 146.232 35.2765 146.156C35.2407 146.129 35.2018 146.106 35.1607 146.089Z" fill="#FDD835"/>
<path opacity="0.5" d="M171.103 17.5515C170.836 17.4353 170.622 17.225 170.5 16.9606C170.378 16.6962 170.357 16.3962 170.442 16.1177C170.456 16.0751 170.464 16.031 170.468 15.9864C170.475 15.8589 170.442 15.7323 170.372 15.6254C170.302 15.5184 170.2 15.4368 170.08 15.3927C169.96 15.3485 169.829 15.3441 169.707 15.3801C169.585 15.416 169.477 15.4905 169.4 15.5925C169.373 15.6284 169.351 15.6673 169.333 15.7084C169.217 15.9753 169.007 16.1903 168.743 16.3122C168.478 16.4342 168.179 16.4548 167.9 16.3699C167.858 16.3562 167.814 16.3476 167.769 16.3442C167.642 16.3365 167.515 16.3701 167.408 16.4399C167.301 16.5098 167.22 16.6122 167.176 16.7321C167.131 16.8519 167.127 16.9828 167.163 17.1053C167.199 17.2279 167.273 17.3356 167.375 17.4125C167.411 17.4393 167.45 17.4617 167.491 17.4794C167.758 17.5957 167.973 17.806 168.095 18.0704C168.217 18.3347 168.237 18.6347 168.152 18.9133C168.139 18.9559 168.13 19 168.127 19.0446C168.119 19.1721 168.152 19.2986 168.222 19.4056C168.292 19.5125 168.394 19.5941 168.514 19.6383C168.634 19.6825 168.765 19.6869 168.887 19.6509C169.01 19.6149 169.117 19.5404 169.194 19.4384C169.221 19.4026 169.243 19.3637 169.261 19.3226C169.377 19.0556 169.587 18.8407 169.852 18.7187C170.116 18.5967 170.416 18.5762 170.694 18.661C170.737 18.6747 170.781 18.6833 170.825 18.6868C170.953 18.6944 171.079 18.6609 171.186 18.591C171.293 18.5211 171.374 18.4187 171.419 18.2989C171.463 18.179 171.467 18.0482 171.431 17.9256C171.395 17.8031 171.321 17.6954 171.219 17.6184C171.183 17.5917 171.144 17.5692 171.103 17.5515Z" fill="#FDD835"/>
<path opacity="0.5" d="M209.065 82.891C210.135 82.891 211.003 82.0231 211.003 80.9526C211.003 79.882 210.135 79.0142 209.065 79.0142C207.996 79.0142 207.128 79.882 207.128 80.9526C207.128 82.0231 207.996 82.891 209.065 82.891Z" fill="#F55F44"/>
<path opacity="0.5" d="M59.3593 194.145C60.4292 194.145 61.2966 193.277 61.2966 192.206C61.2966 191.136 60.4292 190.268 59.3593 190.268C58.2894 190.268 57.4221 191.136 57.4221 192.206C57.4221 193.277 58.2894 194.145 59.3593 194.145Z" fill="#F55F44"/>
<path opacity="0.5" d="M189.171 124.789C190.241 124.789 191.108 123.922 191.108 122.851C191.108 121.78 190.241 120.913 189.171 120.913C188.101 120.913 187.234 121.78 187.234 122.851C187.234 123.922 188.101 124.789 189.171 124.789Z" fill="#F55F44"/>
<path opacity="0.5" d="M22.4179 26.7416C23.4878 26.7416 24.3552 25.8737 24.3552 24.8032C24.3552 23.7326 23.4878 22.8647 22.4179 22.8647C21.348 22.8647 20.4807 23.7326 20.4807 24.8032C20.4807 25.8737 21.348 26.7416 22.4179 26.7416Z" fill="#4D8AF0"/>
<path opacity="0.5" d="M1.93722 79.619C3.00712 79.619 3.87444 78.7512 3.87444 77.6806C3.87444 76.61 3.00712 75.7422 1.93722 75.7422C0.867323 75.7422 0 76.61 0 77.6806C0 78.7512 0.867323 79.619 1.93722 79.619Z" fill="#47E6B1"/>
</g>
<defs>
<linearGradient id="paint0_linear" x1="104.786" y1="172.49" x2="73.2609" y2="25.6557" gradientUnits="userSpaceOnUse">
<stop stop-color="#808080" stop-opacity="0.25"/>
<stop offset="0.54" stop-color="#808080" stop-opacity="0.12"/>
<stop offset="1" stop-color="#808080" stop-opacity="0.1"/>
</linearGradient>
<linearGradient id="paint1_linear" x1="28249.5" y1="-3680.89" x2="28117.4" y2="-4296.33" gradientUnits="userSpaceOnUse">
<stop stop-color="#808080" stop-opacity="0.25"/>
<stop offset="0.54" stop-color="#808080" stop-opacity="0.12"/>
<stop offset="1" stop-color="#808080" stop-opacity="0.1"/>
</linearGradient>
<linearGradient id="paint2_linear" x1="8248.94" y1="419.852" x2="8064.6" y2="-438.74" gradientUnits="userSpaceOnUse">
<stop stop-color="#808080" stop-opacity="0.25"/>
<stop offset="0.54" stop-color="#808080" stop-opacity="0.12"/>
<stop offset="1" stop-color="#808080" stop-opacity="0.1"/>
</linearGradient>
<linearGradient id="paint3_linear" x1="51820" y1="106743" x2="51820" y2="19124.2" gradientUnits="userSpaceOnUse">
<stop stop-color="#808080" stop-opacity="0.25"/>
<stop offset="0.54" stop-color="#808080" stop-opacity="0.12"/>
<stop offset="1" stop-color="#808080" stop-opacity="0.1"/>
</linearGradient>
<linearGradient id="paint4_linear" x1="25144.6" y1="2014.95" x2="25144.6" y2="1385.46" gradientUnits="userSpaceOnUse">
<stop stop-color="#808080" stop-opacity="0.25"/>
<stop offset="0.54" stop-color="#808080" stop-opacity="0.12"/>
<stop offset="1" stop-color="#808080" stop-opacity="0.1"/>
</linearGradient>
<linearGradient id="paint5_linear" x1="9908.08" y1="2668.63" x2="9908.08" y2="1789.47" gradientUnits="userSpaceOnUse">
<stop stop-color="#808080" stop-opacity="0.25"/>
<stop offset="0.54" stop-color="#808080" stop-opacity="0.12"/>
<stop offset="1" stop-color="#808080" stop-opacity="0.1"/>
</linearGradient>
<clipPath id="clip0">
<rect width="211" height="201" fill="white"/>
</clipPath>
</defs>
</svg>
