<svg width="736" height="562" viewBox="0 0 736 562" fill="none" xmlns="http://www.w3.org/2000/svg">
<g clip-path="url(#clip0)">
<path d="M153.661 95.5935V43.9316H135.322L129.693 14.6463H137.348V0H95.6688V14.6463H103.323L97.6947 43.9316H79.355V96.8183H79.8043V117.567H195.349V95.5935H153.661Z" fill="url(#paint0_linear)"/>
<path d="M137.348 54.7345H97.8337L106.428 9.99609H128.762L137.348 54.7345Z" fill="#2E157E"/>
<path d="M205.895 447.325H68.6536V510.458H205.895V447.325Z" fill="url(#paint1_linear)"/>
<path d="M199.213 447.325H75.4993V502.859H199.213V447.325Z" fill="#6C63FF"/>
<path d="M180.979 114.508H94.3862V447.325H180.979V114.508Z" stroke="url(#paint2_linear)" stroke-width="5" stroke-miterlimit="10"/>
<path d="M176.87 114.508H98.6913V447.325H176.87V114.508Z" stroke="#2E157E" stroke-width="5" stroke-miterlimit="10"/>
<path d="M176.87 225.577H98.6913L176.445 169.272" stroke="#FED253" stroke-width="5" stroke-linejoin="round"/>
<path d="M98.6913 281.493H176.87L99.1242 225.577" stroke="#FED253" stroke-width="5" stroke-linejoin="round"/>
<path d="M176.87 337.416H98.6913L176.445 281.111" stroke="#FED253" stroke-width="5" stroke-linejoin="round"/>
<path d="M98.6913 393.331H176.87L98.2583 337.415" stroke="#FED253" stroke-width="5" stroke-linejoin="round"/>
<path d="M99.1242 114.508L176.87 169.653H98.6913" stroke="#FED253" stroke-width="5" stroke-linecap="round" stroke-linejoin="round"/>
<path d="M99.1243 446.937L176.445 392.95" stroke="#FED253" stroke-width="5" stroke-miterlimit="10"/>
<path d="M192.342 93.6865H82.8022V114.508H192.342V93.6865Z" fill="#2E157E"/>
<path d="M152.82 44.709H82.3695V94.8453H152.82V44.709Z" fill="#2E157E"/>
<path d="M152.82 44.709H128.762V64.7606H152.82V44.709Z" fill="#2E157E"/>
<path d="M81.0789 80.5732H2.04248V112.198H81.0789V80.5732Z" stroke="#2E157E" stroke-width="5" stroke-miterlimit="10"/>
<path d="M509.779 80.5732H192.767V112.198H509.779V80.5732Z" stroke="#2E157E" stroke-width="5" stroke-miterlimit="10"/>
<path d="M41.5647 80.5732V112.191L81.0788 80.5732" stroke="#FED253" stroke-width="5" stroke-linejoin="round"/>
<path d="M351.273 112.191V80.5732L319.911 112.191" stroke="#FED253" stroke-width="5" stroke-linejoin="round"/>
<path d="M319.912 80.9541V111.809L284.686 81.3428" stroke="#FED253" stroke-width="5" stroke-linejoin="round"/>
<path d="M284.261 112.968V80.5732L248.603 112.191" stroke="#FED253" stroke-width="5" stroke-linejoin="round"/>
<path d="M212.953 113.738V82.1128L248.603 111.809V81.7314" stroke="#FED253" stroke-width="5" stroke-linejoin="round"/>
<path d="M392.936 80.9546V111.809L351.698 80.5732" stroke="#FED253" stroke-width="5" stroke-linejoin="round"/>
<path d="M434.606 112.969V81.3438L392.936 112.191" stroke="#FED253" stroke-width="5" stroke-linejoin="round"/>
<path d="M476.269 81.7325V111.81L435.031 81.3438" stroke="#FED253" stroke-width="5" stroke-linejoin="round"/>
<path d="M453.828 126.147C466.237 126.147 476.293 120.764 476.293 114.119H431.363C431.363 120.764 441.419 126.147 453.828 126.147Z" fill="url(#paint3_linear)"/>
<path d="M454.359 123.383C465.273 123.383 474.121 119.239 474.121 114.127H434.598C434.598 119.239 443.445 123.383 454.359 123.383Z" fill="#2E157E"/>
<path d="M137.356 3.05859H97.8337V16.9422H137.356V3.05859Z" fill="#2E157E"/>
<path d="M2.04248 80.5732L41.5648 112.191" stroke="#FED253" stroke-width="5" stroke-linejoin="round"/>
<path d="M100.407 9.99609L2.04248 83.6091" stroke="url(#paint4_linear)" stroke-width="3" stroke-linejoin="round"/>
<path d="M100.407 9.99609L2.04248 80.5727" stroke="#2E157E" stroke-width="3" stroke-linejoin="round"/>
<path d="M133.917 9.99609L302.299 83.6091" stroke="url(#paint5_linear)" stroke-width="3" stroke-linejoin="round"/>
<path d="M133.917 9.99609L302.299 80.5727" stroke="#2E157E" stroke-width="3" stroke-miterlimit="10"/>
<path d="M509.779 79.8027L476.269 112.19" stroke="#FED253" stroke-width="5" stroke-linejoin="round"/>
<path d="M131.768 9.61523L509.779 83.6096" stroke="url(#paint6_linear)" stroke-width="3" stroke-linejoin="round"/>
<path d="M131.768 9.61523L509.779 79.8031" stroke="#2E157E" stroke-width="3" stroke-linejoin="round"/>
<path d="M465.968 174.062C465.968 176.198 465.262 178.287 463.94 180.064C462.617 181.84 460.738 183.225 458.539 184.043C456.341 184.86 453.921 185.074 451.587 184.657C449.253 184.241 447.109 183.212 445.426 181.701C443.743 180.19 442.597 178.265 442.133 176.169C441.668 174.074 441.907 171.902 442.817 169.928C443.728 167.954 445.27 166.266 447.249 165.079C449.228 163.892 451.555 163.259 453.934 163.259V115.88" stroke="url(#paint7_linear)" stroke-width="3" stroke-linecap="round" stroke-linejoin="round"/>
<path d="M465.102 172.36C465.102 174.343 464.447 176.281 463.22 177.93C461.993 179.579 460.248 180.864 458.208 181.622C456.167 182.381 453.922 182.58 451.756 182.193C449.59 181.806 447.6 180.851 446.038 179.449C444.476 178.047 443.413 176.261 442.982 174.316C442.551 172.371 442.772 170.355 443.617 168.523C444.462 166.691 445.894 165.125 447.73 164.024C449.567 162.922 451.726 162.334 453.934 162.334V118.388" stroke="#2E157E" stroke-width="3" stroke-linecap="round" stroke-linejoin="round"/>
<path d="M199.213 447.325H75.4993V502.859H199.213V447.325Z" fill="#2E157E"/>
<path opacity="0.2" d="M721 249.581H321.693V514H721V249.581Z" fill="#FED253"/>
<path d="M290.307 215.896V230.329V501.928H691.027V230.329V215.896H290.307Z" fill="url(#paint8_linear)"/>
<path d="M686.779 233.695H295.968V496.845H686.779V233.695Z" fill="white"/>
<path d="M686.779 219.709H295.968V233.695H686.779V219.709Z" fill="#2E157E"/>
<path d="M307.299 229.874C309.383 229.874 311.073 228.357 311.073 226.486C311.073 224.615 309.383 223.098 307.299 223.098C305.214 223.098 303.524 224.615 303.524 226.486C303.524 228.357 305.214 229.874 307.299 229.874Z" fill="#FF5252"/>
<path d="M317.681 229.874C319.766 229.874 321.455 228.357 321.455 226.486C321.455 224.615 319.766 223.098 317.681 223.098C315.597 223.098 313.907 224.615 313.907 226.486C313.907 228.357 315.597 229.874 317.681 229.874Z" fill="#FFFF00"/>
<path d="M328.065 229.874C330.149 229.874 331.839 228.357 331.839 226.486C331.839 224.615 330.149 223.098 328.065 223.098C325.98 223.098 324.29 224.615 324.29 226.486C324.29 228.357 325.98 229.874 328.065 229.874Z" fill="#69F0AE"/>
<path d="M425.114 220.524L454.319 181.19L483.532 220.524" stroke="#FED253" stroke-width="3" stroke-linecap="round" stroke-linejoin="round"/>
<path d="M424.82 217.568C420.948 217.568 420.948 222.966 424.82 222.966C428.692 222.966 428.7 217.568 424.82 217.568Z" fill="#64FFDA"/>
<path d="M483.237 217.568C479.365 217.568 479.365 222.966 483.237 222.966C487.11 222.966 487.118 217.568 483.237 217.568Z" fill="#64FFDA"/>
<path d="M388.282 332.248L383.602 349H379.642L376.498 337.072L373.21 349L369.274 349.024L364.762 332.248H368.362L371.314 345.256L374.722 332.248H378.466L381.682 345.184L384.658 332.248H388.282ZM402.836 342.064C402.836 342.544 402.804 342.976 402.74 343.36H393.02C393.1 344.32 393.436 345.072 394.028 345.616C394.62 346.16 395.348 346.432 396.212 346.432C397.46 346.432 398.348 345.896 398.876 344.824H402.5C402.116 346.104 401.38 347.16 400.292 347.992C399.204 348.808 397.868 349.216 396.284 349.216C395.004 349.216 393.852 348.936 392.828 348.376C391.82 347.8 391.028 346.992 390.452 345.952C389.892 344.912 389.612 343.712 389.612 342.352C389.612 340.976 389.892 339.768 390.452 338.728C391.012 337.688 391.796 336.888 392.804 336.328C393.812 335.768 394.972 335.488 396.284 335.488C397.548 335.488 398.676 335.76 399.668 336.304C400.676 336.848 401.452 337.624 401.996 338.632C402.556 339.624 402.836 340.768 402.836 342.064ZM399.356 341.104C399.34 340.24 399.028 339.552 398.42 339.04C397.812 338.512 397.068 338.248 396.188 338.248C395.356 338.248 394.652 338.504 394.076 339.016C393.516 339.512 393.172 340.208 393.044 341.104H399.356ZM405.961 332.248H409.489L406.897 338.296H404.593L405.961 332.248ZM415.258 337.768C415.69 337.064 416.25 336.512 416.938 336.112C417.642 335.712 418.442 335.512 419.338 335.512V339.04H418.45C417.394 339.04 416.594 339.288 416.05 339.784C415.522 340.28 415.258 341.144 415.258 342.376V349H411.898V335.704H415.258V337.768ZM433.961 342.064C433.961 342.544 433.929 342.976 433.865 343.36H424.145C424.225 344.32 424.561 345.072 425.153 345.616C425.745 346.16 426.473 346.432 427.337 346.432C428.585 346.432 429.473 345.896 430.001 344.824H433.625C433.241 346.104 432.505 347.16 431.417 347.992C430.329 348.808 428.993 349.216 427.409 349.216C426.129 349.216 424.977 348.936 423.953 348.376C422.945 347.8 422.153 346.992 421.577 345.952C421.017 344.912 420.737 343.712 420.737 342.352C420.737 340.976 421.017 339.768 421.577 338.728C422.137 337.688 422.921 336.888 423.929 336.328C424.937 335.768 426.097 335.488 427.409 335.488C428.673 335.488 429.801 335.76 430.793 336.304C431.801 336.848 432.577 337.624 433.121 338.632C433.681 339.624 433.961 340.768 433.961 342.064ZM430.481 341.104C430.465 340.24 430.153 339.552 429.545 339.04C428.937 338.512 428.193 338.248 427.313 338.248C426.481 338.248 425.777 338.504 425.201 339.016C424.641 339.512 424.297 340.208 424.169 341.104H430.481ZM445.493 346.336H451.013V349H442.133V332.248H445.493V346.336ZM452.284 342.304C452.284 340.96 452.548 339.768 453.076 338.728C453.62 337.688 454.348 336.888 455.26 336.328C456.188 335.768 457.22 335.488 458.356 335.488C459.348 335.488 460.212 335.688 460.948 336.088C461.7 336.488 462.3 336.992 462.748 337.6V335.704H466.132V349H462.748V347.056C462.316 347.68 461.716 348.2 460.948 348.616C460.196 349.016 459.324 349.216 458.332 349.216C457.212 349.216 456.188 348.928 455.26 348.352C454.348 347.776 453.62 346.968 453.076 345.928C452.548 344.872 452.284 343.664 452.284 342.304ZM462.748 342.352C462.748 341.536 462.588 340.84 462.268 340.264C461.948 339.672 461.516 339.224 460.972 338.92C460.428 338.6 459.844 338.44 459.22 338.44C458.596 338.44 458.02 338.592 457.492 338.896C456.964 339.2 456.532 339.648 456.196 340.24C455.876 340.816 455.716 341.504 455.716 342.304C455.716 343.104 455.876 343.808 456.196 344.416C456.532 345.008 456.964 345.464 457.492 345.784C458.036 346.104 458.612 346.264 459.22 346.264C459.844 346.264 460.428 346.112 460.972 345.808C461.516 345.488 461.948 345.04 462.268 344.464C462.588 343.872 462.748 343.168 462.748 342.352ZM481.966 335.704V349H478.582V347.32C478.15 347.896 477.582 348.352 476.878 348.688C476.19 349.008 475.438 349.168 474.622 349.168C473.582 349.168 472.662 348.952 471.862 348.52C471.062 348.072 470.43 347.424 469.966 346.576C469.518 345.712 469.294 344.688 469.294 343.504V335.704H472.654V343.024C472.654 344.08 472.918 344.896 473.446 345.472C473.974 346.032 474.694 346.312 475.606 346.312C476.534 346.312 477.262 346.032 477.79 345.472C478.318 344.896 478.582 344.08 478.582 343.024V335.704H481.966ZM484.417 342.352C484.417 340.976 484.697 339.776 485.257 338.752C485.817 337.712 486.593 336.912 487.585 336.352C488.577 335.776 489.713 335.488 490.993 335.488C492.641 335.488 494.001 335.904 495.073 336.736C496.161 337.552 496.889 338.704 497.257 340.192H493.633C493.441 339.616 493.113 339.168 492.649 338.848C492.201 338.512 491.641 338.344 490.969 338.344C490.009 338.344 489.249 338.696 488.689 339.4C488.129 340.088 487.849 341.072 487.849 342.352C487.849 343.616 488.129 344.6 488.689 345.304C489.249 345.992 490.009 346.336 490.969 346.336C492.329 346.336 493.217 345.728 493.633 344.512H497.257C496.889 345.952 496.161 347.096 495.073 347.944C493.985 348.792 492.625 349.216 490.993 349.216C489.713 349.216 488.577 348.936 487.585 348.376C486.593 347.8 485.817 347 485.257 345.976C484.697 344.936 484.417 343.728 484.417 342.352ZM507.207 335.512C508.215 335.512 509.111 335.736 509.895 336.184C510.679 336.616 511.287 337.264 511.719 338.128C512.167 338.976 512.391 340 512.391 341.2V349H509.031V341.656C509.031 340.6 508.767 339.792 508.239 339.232C507.711 338.656 506.991 338.368 506.079 338.368C505.151 338.368 504.415 338.656 503.871 339.232C503.343 339.792 503.079 340.6 503.079 341.656V349H499.719V331.24H503.079V337.36C503.511 336.784 504.087 336.336 504.807 336.016C505.527 335.68 506.327 335.512 507.207 335.512ZM517.29 334.12C516.698 334.12 516.202 333.936 515.802 333.568C515.418 333.184 515.226 332.712 515.226 332.152C515.226 331.592 515.418 331.128 515.802 330.76C516.202 330.376 516.698 330.184 517.29 330.184C517.882 330.184 518.37 330.376 518.754 330.76C519.154 331.128 519.354 331.592 519.354 332.152C519.354 332.712 519.154 333.184 518.754 333.568C518.37 333.936 517.882 334.12 517.29 334.12ZM518.946 335.704V349H515.586V335.704H518.946ZM529.633 335.512C531.217 335.512 532.497 336.016 533.473 337.024C534.449 338.016 534.937 339.408 534.937 341.2V349H531.577V341.656C531.577 340.6 531.313 339.792 530.785 339.232C530.257 338.656 529.537 338.368 528.625 338.368C527.697 338.368 526.961 338.656 526.417 339.232C525.889 339.792 525.625 340.6 525.625 341.656V349H522.265V335.704H525.625V337.36C526.073 336.784 526.641 336.336 527.329 336.016C528.033 335.68 528.801 335.512 529.633 335.512ZM543.341 335.488C544.333 335.488 545.205 335.688 545.957 336.088C546.709 336.472 547.301 336.976 547.733 337.6V335.704H551.117V349.096C551.117 350.328 550.869 351.424 550.373 352.384C549.877 353.36 549.133 354.128 548.141 354.688C547.149 355.264 545.949 355.552 544.541 355.552C542.653 355.552 541.101 355.112 539.885 354.232C538.685 353.352 538.005 352.152 537.845 350.632H541.181C541.357 351.24 541.733 351.72 542.309 352.072C542.901 352.44 543.613 352.624 544.445 352.624C545.421 352.624 546.213 352.328 546.821 351.736C547.429 351.16 547.733 350.28 547.733 349.096V347.032C547.301 347.656 546.701 348.176 545.933 348.592C545.181 349.008 544.317 349.216 543.341 349.216C542.221 349.216 541.197 348.928 540.269 348.352C539.341 347.776 538.605 346.968 538.061 345.928C537.533 344.872 537.269 343.664 537.269 342.304C537.269 340.96 537.533 339.768 538.061 338.728C538.605 337.688 539.333 336.888 540.245 336.328C541.173 335.768 542.205 335.488 543.341 335.488ZM547.733 342.352C547.733 341.536 547.573 340.84 547.253 340.264C546.933 339.672 546.501 339.224 545.957 338.92C545.413 338.6 544.829 338.44 544.205 338.44C543.581 338.44 543.005 338.592 542.477 338.896C541.949 339.2 541.517 339.648 541.181 340.24C540.861 340.816 540.701 341.504 540.701 342.304C540.701 343.104 540.861 343.808 541.181 344.416C541.517 345.008 541.949 345.464 542.477 345.784C543.021 346.104 543.597 346.264 544.205 346.264C544.829 346.264 545.413 346.112 545.957 345.808C546.501 345.488 546.933 345.04 547.253 344.464C547.573 343.872 547.733 343.168 547.733 342.352ZM565.901 349.168C564.733 349.168 563.677 348.968 562.733 348.568C561.805 348.168 561.069 347.592 560.525 346.84C559.981 346.088 559.701 345.2 559.685 344.176H563.285C563.333 344.864 563.573 345.408 564.005 345.808C564.453 346.208 565.061 346.408 565.829 346.408C566.613 346.408 567.229 346.224 567.677 345.856C568.125 345.472 568.349 344.976 568.349 344.368C568.349 343.872 568.197 343.464 567.893 343.144C567.589 342.824 567.205 342.576 566.741 342.4C566.293 342.208 565.669 342 564.869 341.776C563.781 341.456 562.893 341.144 562.205 340.84C561.533 340.52 560.949 340.048 560.453 339.424C559.973 338.784 559.733 337.936 559.733 336.88C559.733 335.888 559.981 335.024 560.477 334.288C560.973 333.552 561.669 332.992 562.565 332.608C563.461 332.208 564.485 332.008 565.637 332.008C567.365 332.008 568.765 332.432 569.837 333.28C570.925 334.112 571.525 335.28 571.637 336.784H567.941C567.909 336.208 567.661 335.736 567.197 335.368C566.749 334.984 566.149 334.792 565.397 334.792C564.741 334.792 564.213 334.96 563.813 335.296C563.429 335.632 563.237 336.12 563.237 336.76C563.237 337.208 563.381 337.584 563.669 337.888C563.973 338.176 564.341 338.416 564.773 338.608C565.221 338.784 565.845 338.992 566.645 339.232C567.733 339.552 568.621 339.872 569.309 340.192C569.997 340.512 570.589 340.992 571.085 341.632C571.581 342.272 571.829 343.112 571.829 344.152C571.829 345.048 571.597 345.88 571.133 346.648C570.669 347.416 569.989 348.032 569.093 348.496C568.197 348.944 567.133 349.168 565.901 349.168ZM580.646 349.216C579.366 349.216 578.214 348.936 577.19 348.376C576.166 347.8 575.358 346.992 574.766 345.952C574.19 344.912 573.902 343.712 573.902 342.352C573.902 340.992 574.198 339.792 574.79 338.752C575.398 337.712 576.222 336.912 577.262 336.352C578.302 335.776 579.462 335.488 580.742 335.488C582.022 335.488 583.182 335.776 584.222 336.352C585.262 336.912 586.078 337.712 586.67 338.752C587.278 339.792 587.582 340.992 587.582 342.352C587.582 343.712 587.27 344.912 586.646 345.952C586.038 346.992 585.206 347.8 584.15 348.376C583.11 348.936 581.942 349.216 580.646 349.216ZM580.646 346.288C581.254 346.288 581.822 346.144 582.35 345.856C582.894 345.552 583.326 345.104 583.646 344.512C583.966 343.92 584.126 343.2 584.126 342.352C584.126 341.088 583.79 340.12 583.118 339.448C582.462 338.76 581.654 338.416 580.694 338.416C579.734 338.416 578.926 338.76 578.27 339.448C577.63 340.12 577.31 341.088 577.31 342.352C577.31 343.616 577.622 344.592 578.246 345.28C578.886 345.952 579.686 346.288 580.646 346.288ZM595.951 349.216C594.671 349.216 593.519 348.936 592.495 348.376C591.471 347.8 590.663 346.992 590.071 345.952C589.495 344.912 589.207 343.712 589.207 342.352C589.207 340.992 589.503 339.792 590.095 338.752C590.703 337.712 591.527 336.912 592.567 336.352C593.607 335.776 594.767 335.488 596.047 335.488C597.327 335.488 598.487 335.776 599.527 336.352C600.567 336.912 601.383 337.712 601.975 338.752C602.583 339.792 602.887 340.992 602.887 342.352C602.887 343.712 602.575 344.912 601.951 345.952C601.343 346.992 600.511 347.8 599.455 348.376C598.415 348.936 597.247 349.216 595.951 349.216ZM595.951 346.288C596.559 346.288 597.127 346.144 597.655 345.856C598.199 345.552 598.631 345.104 598.951 344.512C599.271 343.92 599.431 343.2 599.431 342.352C599.431 341.088 599.095 340.12 598.423 339.448C597.767 338.76 596.959 338.416 595.999 338.416C595.039 338.416 594.231 338.76 593.575 339.448C592.935 340.12 592.615 341.088 592.615 342.352C592.615 343.616 592.927 344.592 593.551 345.28C594.191 345.952 594.991 346.288 595.951 346.288ZM612.719 335.512C614.303 335.512 615.583 336.016 616.559 337.024C617.535 338.016 618.023 339.408 618.023 341.2V349H614.663V341.656C614.663 340.6 614.399 339.792 613.871 339.232C613.343 338.656 612.623 338.368 611.711 338.368C610.783 338.368 610.047 338.656 609.503 339.232C608.975 339.792 608.711 340.6 608.711 341.656V349H605.351V335.704H608.711V337.36C609.159 336.784 609.727 336.336 610.415 336.016C611.119 335.68 611.887 335.512 612.719 335.512ZM631.281 331.96L630.897 343.552H628.065L627.657 331.96H631.281ZM629.553 349.168C628.945 349.168 628.441 348.984 628.041 348.616C627.657 348.232 627.465 347.76 627.465 347.2C627.465 346.64 627.657 346.176 628.041 345.808C628.441 345.424 628.945 345.232 629.553 345.232C630.145 345.232 630.633 345.424 631.017 345.808C631.401 346.176 631.593 346.64 631.593 347.2C631.593 347.76 631.401 348.232 631.017 348.616C630.633 348.984 630.145 349.168 629.553 349.168Z" fill="#F5F5F5"/>
<path d="M386.282 332.248L381.602 349H377.642L374.498 337.072L371.21 349L367.274 349.024L362.762 332.248H366.362L369.314 345.256L372.722 332.248H376.466L379.682 345.184L382.658 332.248H386.282ZM400.836 342.064C400.836 342.544 400.804 342.976 400.74 343.36H391.02C391.1 344.32 391.436 345.072 392.028 345.616C392.62 346.16 393.348 346.432 394.212 346.432C395.46 346.432 396.348 345.896 396.876 344.824H400.5C400.116 346.104 399.38 347.16 398.292 347.992C397.204 348.808 395.868 349.216 394.284 349.216C393.004 349.216 391.852 348.936 390.828 348.376C389.82 347.8 389.028 346.992 388.452 345.952C387.892 344.912 387.612 343.712 387.612 342.352C387.612 340.976 387.892 339.768 388.452 338.728C389.012 337.688 389.796 336.888 390.804 336.328C391.812 335.768 392.972 335.488 394.284 335.488C395.548 335.488 396.676 335.76 397.668 336.304C398.676 336.848 399.452 337.624 399.996 338.632C400.556 339.624 400.836 340.768 400.836 342.064ZM397.356 341.104C397.34 340.24 397.028 339.552 396.42 339.04C395.812 338.512 395.068 338.248 394.188 338.248C393.356 338.248 392.652 338.504 392.076 339.016C391.516 339.512 391.172 340.208 391.044 341.104H397.356ZM403.961 332.248H407.489L404.897 338.296H402.593L403.961 332.248ZM413.258 337.768C413.69 337.064 414.25 336.512 414.938 336.112C415.642 335.712 416.442 335.512 417.338 335.512V339.04H416.45C415.394 339.04 414.594 339.288 414.05 339.784C413.522 340.28 413.258 341.144 413.258 342.376V349H409.898V335.704H413.258V337.768ZM431.961 342.064C431.961 342.544 431.929 342.976 431.865 343.36H422.145C422.225 344.32 422.561 345.072 423.153 345.616C423.745 346.16 424.473 346.432 425.337 346.432C426.585 346.432 427.473 345.896 428.001 344.824H431.625C431.241 346.104 430.505 347.16 429.417 347.992C428.329 348.808 426.993 349.216 425.409 349.216C424.129 349.216 422.977 348.936 421.953 348.376C420.945 347.8 420.153 346.992 419.577 345.952C419.017 344.912 418.737 343.712 418.737 342.352C418.737 340.976 419.017 339.768 419.577 338.728C420.137 337.688 420.921 336.888 421.929 336.328C422.937 335.768 424.097 335.488 425.409 335.488C426.673 335.488 427.801 335.76 428.793 336.304C429.801 336.848 430.577 337.624 431.121 338.632C431.681 339.624 431.961 340.768 431.961 342.064ZM428.481 341.104C428.465 340.24 428.153 339.552 427.545 339.04C426.937 338.512 426.193 338.248 425.313 338.248C424.481 338.248 423.777 338.504 423.201 339.016C422.641 339.512 422.297 340.208 422.169 341.104H428.481ZM443.493 346.336H449.013V349H440.133V332.248H443.493V346.336ZM450.284 342.304C450.284 340.96 450.548 339.768 451.076 338.728C451.62 337.688 452.348 336.888 453.26 336.328C454.188 335.768 455.22 335.488 456.356 335.488C457.348 335.488 458.212 335.688 458.948 336.088C459.7 336.488 460.3 336.992 460.748 337.6V335.704H464.132V349H460.748V347.056C460.316 347.68 459.716 348.2 458.948 348.616C458.196 349.016 457.324 349.216 456.332 349.216C455.212 349.216 454.188 348.928 453.26 348.352C452.348 347.776 451.62 346.968 451.076 345.928C450.548 344.872 450.284 343.664 450.284 342.304ZM460.748 342.352C460.748 341.536 460.588 340.84 460.268 340.264C459.948 339.672 459.516 339.224 458.972 338.92C458.428 338.6 457.844 338.44 457.22 338.44C456.596 338.44 456.02 338.592 455.492 338.896C454.964 339.2 454.532 339.648 454.196 340.24C453.876 340.816 453.716 341.504 453.716 342.304C453.716 343.104 453.876 343.808 454.196 344.416C454.532 345.008 454.964 345.464 455.492 345.784C456.036 346.104 456.612 346.264 457.22 346.264C457.844 346.264 458.428 346.112 458.972 345.808C459.516 345.488 459.948 345.04 460.268 344.464C460.588 343.872 460.748 343.168 460.748 342.352ZM479.966 335.704V349H476.582V347.32C476.15 347.896 475.582 348.352 474.878 348.688C474.19 349.008 473.438 349.168 472.622 349.168C471.582 349.168 470.662 348.952 469.862 348.52C469.062 348.072 468.43 347.424 467.966 346.576C467.518 345.712 467.294 344.688 467.294 343.504V335.704H470.654V343.024C470.654 344.08 470.918 344.896 471.446 345.472C471.974 346.032 472.694 346.312 473.606 346.312C474.534 346.312 475.262 346.032 475.79 345.472C476.318 344.896 476.582 344.08 476.582 343.024V335.704H479.966ZM482.417 342.352C482.417 340.976 482.697 339.776 483.257 338.752C483.817 337.712 484.593 336.912 485.585 336.352C486.577 335.776 487.713 335.488 488.993 335.488C490.641 335.488 492.001 335.904 493.073 336.736C494.161 337.552 494.889 338.704 495.257 340.192H491.633C491.441 339.616 491.113 339.168 490.649 338.848C490.201 338.512 489.641 338.344 488.969 338.344C488.009 338.344 487.249 338.696 486.689 339.4C486.129 340.088 485.849 341.072 485.849 342.352C485.849 343.616 486.129 344.6 486.689 345.304C487.249 345.992 488.009 346.336 488.969 346.336C490.329 346.336 491.217 345.728 491.633 344.512H495.257C494.889 345.952 494.161 347.096 493.073 347.944C491.985 348.792 490.625 349.216 488.993 349.216C487.713 349.216 486.577 348.936 485.585 348.376C484.593 347.8 483.817 347 483.257 345.976C482.697 344.936 482.417 343.728 482.417 342.352ZM505.207 335.512C506.215 335.512 507.111 335.736 507.895 336.184C508.679 336.616 509.287 337.264 509.719 338.128C510.167 338.976 510.391 340 510.391 341.2V349H507.031V341.656C507.031 340.6 506.767 339.792 506.239 339.232C505.711 338.656 504.991 338.368 504.079 338.368C503.151 338.368 502.415 338.656 501.871 339.232C501.343 339.792 501.079 340.6 501.079 341.656V349H497.719V331.24H501.079V337.36C501.511 336.784 502.087 336.336 502.807 336.016C503.527 335.68 504.327 335.512 505.207 335.512ZM515.29 334.12C514.698 334.12 514.202 333.936 513.802 333.568C513.418 333.184 513.226 332.712 513.226 332.152C513.226 331.592 513.418 331.128 513.802 330.76C514.202 330.376 514.698 330.184 515.29 330.184C515.882 330.184 516.37 330.376 516.754 330.76C517.154 331.128 517.354 331.592 517.354 332.152C517.354 332.712 517.154 333.184 516.754 333.568C516.37 333.936 515.882 334.12 515.29 334.12ZM516.946 335.704V349H513.586V335.704H516.946ZM527.633 335.512C529.217 335.512 530.497 336.016 531.473 337.024C532.449 338.016 532.937 339.408 532.937 341.2V349H529.577V341.656C529.577 340.6 529.313 339.792 528.785 339.232C528.257 338.656 527.537 338.368 526.625 338.368C525.697 338.368 524.961 338.656 524.417 339.232C523.889 339.792 523.625 340.6 523.625 341.656V349H520.265V335.704H523.625V337.36C524.073 336.784 524.641 336.336 525.329 336.016C526.033 335.68 526.801 335.512 527.633 335.512ZM541.341 335.488C542.333 335.488 543.205 335.688 543.957 336.088C544.709 336.472 545.301 336.976 545.733 337.6V335.704H549.117V349.096C549.117 350.328 548.869 351.424 548.373 352.384C547.877 353.36 547.133 354.128 546.141 354.688C545.149 355.264 543.949 355.552 542.541 355.552C540.653 355.552 539.101 355.112 537.885 354.232C536.685 353.352 536.005 352.152 535.845 350.632H539.181C539.357 351.24 539.733 351.72 540.309 352.072C540.901 352.44 541.613 352.624 542.445 352.624C543.421 352.624 544.213 352.328 544.821 351.736C545.429 351.16 545.733 350.28 545.733 349.096V347.032C545.301 347.656 544.701 348.176 543.933 348.592C543.181 349.008 542.317 349.216 541.341 349.216C540.221 349.216 539.197 348.928 538.269 348.352C537.341 347.776 536.605 346.968 536.061 345.928C535.533 344.872 535.269 343.664 535.269 342.304C535.269 340.96 535.533 339.768 536.061 338.728C536.605 337.688 537.333 336.888 538.245 336.328C539.173 335.768 540.205 335.488 541.341 335.488ZM545.733 342.352C545.733 341.536 545.573 340.84 545.253 340.264C544.933 339.672 544.501 339.224 543.957 338.92C543.413 338.6 542.829 338.44 542.205 338.44C541.581 338.44 541.005 338.592 540.477 338.896C539.949 339.2 539.517 339.648 539.181 340.24C538.861 340.816 538.701 341.504 538.701 342.304C538.701 343.104 538.861 343.808 539.181 344.416C539.517 345.008 539.949 345.464 540.477 345.784C541.021 346.104 541.597 346.264 542.205 346.264C542.829 346.264 543.413 346.112 543.957 345.808C544.501 345.488 544.933 345.04 545.253 344.464C545.573 343.872 545.733 343.168 545.733 342.352ZM563.901 349.168C562.733 349.168 561.677 348.968 560.733 348.568C559.805 348.168 559.069 347.592 558.525 346.84C557.981 346.088 557.701 345.2 557.685 344.176H561.285C561.333 344.864 561.573 345.408 562.005 345.808C562.453 346.208 563.061 346.408 563.829 346.408C564.613 346.408 565.229 346.224 565.677 345.856C566.125 345.472 566.349 344.976 566.349 344.368C566.349 343.872 566.197 343.464 565.893 343.144C565.589 342.824 565.205 342.576 564.741 342.4C564.293 342.208 563.669 342 562.869 341.776C561.781 341.456 560.893 341.144 560.205 340.84C559.533 340.52 558.949 340.048 558.453 339.424C557.973 338.784 557.733 337.936 557.733 336.88C557.733 335.888 557.981 335.024 558.477 334.288C558.973 333.552 559.669 332.992 560.565 332.608C561.461 332.208 562.485 332.008 563.637 332.008C565.365 332.008 566.765 332.432 567.837 333.28C568.925 334.112 569.525 335.28 569.637 336.784H565.941C565.909 336.208 565.661 335.736 565.197 335.368C564.749 334.984 564.149 334.792 563.397 334.792C562.741 334.792 562.213 334.96 561.813 335.296C561.429 335.632 561.237 336.12 561.237 336.76C561.237 337.208 561.381 337.584 561.669 337.888C561.973 338.176 562.341 338.416 562.773 338.608C563.221 338.784 563.845 338.992 564.645 339.232C565.733 339.552 566.621 339.872 567.309 340.192C567.997 340.512 568.589 340.992 569.085 341.632C569.581 342.272 569.829 343.112 569.829 344.152C569.829 345.048 569.597 345.88 569.133 346.648C568.669 347.416 567.989 348.032 567.093 348.496C566.197 348.944 565.133 349.168 563.901 349.168ZM578.646 349.216C577.366 349.216 576.214 348.936 575.19 348.376C574.166 347.8 573.358 346.992 572.766 345.952C572.19 344.912 571.902 343.712 571.902 342.352C571.902 340.992 572.198 339.792 572.79 338.752C573.398 337.712 574.222 336.912 575.262 336.352C576.302 335.776 577.462 335.488 578.742 335.488C580.022 335.488 581.182 335.776 582.222 336.352C583.262 336.912 584.078 337.712 584.67 338.752C585.278 339.792 585.582 340.992 585.582 342.352C585.582 343.712 585.27 344.912 584.646 345.952C584.038 346.992 583.206 347.8 582.15 348.376C581.11 348.936 579.942 349.216 578.646 349.216ZM578.646 346.288C579.254 346.288 579.822 346.144 580.35 345.856C580.894 345.552 581.326 345.104 581.646 344.512C581.966 343.92 582.126 343.2 582.126 342.352C582.126 341.088 581.79 340.12 581.118 339.448C580.462 338.76 579.654 338.416 578.694 338.416C577.734 338.416 576.926 338.76 576.27 339.448C575.63 340.12 575.31 341.088 575.31 342.352C575.31 343.616 575.622 344.592 576.246 345.28C576.886 345.952 577.686 346.288 578.646 346.288ZM593.951 349.216C592.671 349.216 591.519 348.936 590.495 348.376C589.471 347.8 588.663 346.992 588.071 345.952C587.495 344.912 587.207 343.712 587.207 342.352C587.207 340.992 587.503 339.792 588.095 338.752C588.703 337.712 589.527 336.912 590.567 336.352C591.607 335.776 592.767 335.488 594.047 335.488C595.327 335.488 596.487 335.776 597.527 336.352C598.567 336.912 599.383 337.712 599.975 338.752C600.583 339.792 600.887 340.992 600.887 342.352C600.887 343.712 600.575 344.912 599.951 345.952C599.343 346.992 598.511 347.8 597.455 348.376C596.415 348.936 595.247 349.216 593.951 349.216ZM593.951 346.288C594.559 346.288 595.127 346.144 595.655 345.856C596.199 345.552 596.631 345.104 596.951 344.512C597.271 343.92 597.431 343.2 597.431 342.352C597.431 341.088 597.095 340.12 596.423 339.448C595.767 338.76 594.959 338.416 593.999 338.416C593.039 338.416 592.231 338.76 591.575 339.448C590.935 340.12 590.615 341.088 590.615 342.352C590.615 343.616 590.927 344.592 591.551 345.28C592.191 345.952 592.991 346.288 593.951 346.288ZM610.719 335.512C612.303 335.512 613.583 336.016 614.559 337.024C615.535 338.016 616.023 339.408 616.023 341.2V349H612.663V341.656C612.663 340.6 612.399 339.792 611.871 339.232C611.343 338.656 610.623 338.368 609.711 338.368C608.783 338.368 608.047 338.656 607.503 339.232C606.975 339.792 606.711 340.6 606.711 341.656V349H603.351V335.704H606.711V337.36C607.159 336.784 607.727 336.336 608.415 336.016C609.119 335.68 609.887 335.512 610.719 335.512ZM629.281 331.96L628.897 343.552H626.065L625.657 331.96H629.281ZM627.553 349.168C626.945 349.168 626.441 348.984 626.041 348.616C625.657 348.232 625.465 347.76 625.465 347.2C625.465 346.64 625.657 346.176 626.041 345.808C626.441 345.424 626.945 345.232 627.553 345.232C628.145 345.232 628.633 345.424 629.017 345.808C629.401 346.176 629.593 346.64 629.593 347.2C629.593 347.76 629.401 348.232 629.017 348.616C628.633 348.984 628.145 349.168 627.553 349.168Z" fill="#2E157E"/>
<path d="M425 385L625 385" stroke="#FEC83D" stroke-width="5"/>
</g>
<path d="M273.767 550H281.375C281.331 550.536 283.573 551.422 285 552.5C285 552.5 285.094 552.619 285.5 553C287.143 554.77 291.284 556.819 289.737 557.551H273L273.767 550Z" fill="#6C63FF"/>
<path d="M258 550H268C267.689 551.263 269.508 554.328 270.156 555.475C271.398 557.888 274.164 560.987 272.52 561.652L256 559.165L258 550Z" fill="#6C63FF"/>
<path d="M311.928 376.294C311.928 376.294 312.689 364.846 309.265 367.361C305.841 369.876 307.316 377 307.316 377L311.928 376.294Z" fill="#FDA57D"/>
<path d="M224.196 445C224.196 445 220.317 456.834 226.53 454.755C232.742 452.676 231.969 445 231.969 445H224.196Z" fill="#FDA57D"/>
<path d="M278 382H270V389H278V382Z" fill="#FDA57D"/>
<path d="M270 420H264V451H270V420Z" fill="#4D8AF0"/>
<path opacity="0.1" d="M270 420H264V451H270V420Z" fill="black"/>
<path d="M273.389 386H280.559C282.532 386 284.425 386.788 285.821 388.189C287.216 389.591 288 391.492 288 393.475V440H266V393.475C266 391.501 266.777 389.608 268.161 388.208C269.545 386.807 271.425 386.014 273.389 386Z" fill="#FED253"/>
<path d="M273 384C277.971 384 282 380.194 282 375.5C282 370.806 277.971 367 273 367C268.029 367 264 370.806 264 375.5C264 380.194 268.029 384 273 384Z" fill="#FDA57D"/>
<path d="M270.017 386.161C270.017 386.161 249.026 379.913 226 445.216H232.777C232.777 445.216 242.262 416.726 257.15 413.256C257.15 413.256 267.983 427.149 250.373 455H264.601V445.686C264.518 431.569 266.227 417.501 269.686 403.837C271.318 398.079 271.432 391.98 270.017 386.161Z" fill="#4D8AF0"/>
<path d="M278 386.014V388.083C278 388.083 282.757 409.427 286.825 423.195L288.904 426V401.851H308.608L312 375H306.567L300.382 390.824C300.382 390.824 284.109 383.248 278 386.014Z" fill="#4D8AF0"/>
<path d="M266.096 440.052C266.096 440.052 262.042 455.172 266.096 463.417C270.151 471.661 258 550 258 550H268.136L282.643 476.125L285 440L266.096 440.052Z" fill="#333333"/>
<path d="M287.96 440L289 500.15L281.384 550H273.768L271 440H287.96Z" fill="#333333"/>
<path d="M271.412 371.836C271.597 371.543 271.826 371.278 272.091 371.05C272.352 370.901 272.65 370.822 272.953 370.821C274.846 370.669 277.026 370.631 278.175 368.894C279.019 367.334 279.224 365.522 278.749 363.821C278.687 363.365 278.513 362.929 278.24 362.553C277.992 362.327 277.692 362.163 277.364 362.074C277.037 361.986 276.692 361.976 276.36 362.046L268.749 362.527C267.878 362.495 267.021 362.74 266.307 363.225C265.237 364.1 264.923 365.913 263.801 366.7C263.057 367.207 262.13 367.156 261.346 367.562C259.597 368.462 259.218 371.151 259.075 373.396C258.892 376.414 258.892 379.965 260.928 381.804C262.404 383.148 264.453 383.072 266.32 382.92L269.793 382.641C270.144 382.65 270.488 382.547 270.772 382.349C270.992 382.064 271.148 381.737 271.229 381.389C271.309 381.042 271.314 380.682 271.242 380.333C271.151 378.633 270.968 376.706 269.819 375.666C269.545 375.466 269.296 375.236 269.075 374.981C267.835 373.104 270.759 372.673 271.412 371.836Z" fill="#333333"/>
<path d="M320 336.5C320 336.5 344.665 344.69 340.5 361.5L282 376V373.301L320 336.5Z" fill="#F55F44"/>
<g opacity="0.5">
<path opacity="0.5" d="M308.5 337.5L270.92 373.53C270.435 371.518 269.304 369.723 267.703 368.424C268.284 366.856 268.378 365.148 267.973 363.525C267.898 363.058 267.718 362.614 267.445 362.229C267.189 361.987 266.878 361.811 266.54 361.716C266.202 361.621 265.845 361.611 265.502 361.685L257.625 362.203C256.708 362.159 255.802 362.423 255.051 362.955C253.944 363.888 253.61 365.845 252.477 366.674C251.718 367.219 250.753 367.167 249.903 367.595C248.088 368.567 247.689 371.483 247.548 373.854C247.355 377.095 247.368 380.905 249.466 382.927C250.997 384.365 253.121 384.223 255.051 384.119L256.995 383.963C257.486 384.257 258.003 384.504 258.539 384.702V387.463H258.179C258.179 387.463 235.952 380.983 211.537 448.687H211.112C211.112 448.687 207.509 461 213.274 458.835C218.294 456.943 218.423 450.631 218.332 449.05H218.667C218.667 449.05 228.744 419.345 244.575 415.716C244.575 415.716 256.094 430.206 237.38 459.185H252.027C251.98 462.427 252.63 465.641 253.931 468.607C258.243 477.304 245.296 559.9 245.296 559.9H256.094L261.525 532.528L262.207 559.9H270.122L278.037 507.268L276.956 443.866V427.445L278.398 429.377V404.013H299.26L302.864 375.76H302.491C302.579 373.786 302.497 371.809 302.246 369.85L329.145 364.16C333.379 346.055 308.5 337.5 308.5 337.5ZM296.957 376.2L290.65 392.44C290.65 392.44 273.378 384.469 266.905 387.372H266.544V383.925C267.868 383.154 268.984 382.068 269.794 380.762C270.605 379.456 271.084 377.97 271.19 376.434L297.124 370.951C296.788 372.676 296.727 374.443 296.944 376.187L296.957 376.2Z" fill="url(#paint9_linear)"/>
</g>
<defs>
<linearGradient id="paint0_linear" x1="137.356" y1="117.567" x2="137.356" y2="0" gradientUnits="userSpaceOnUse">
<stop stop-color="#808080" stop-opacity="0.25"/>
<stop offset="0.54" stop-color="#808080" stop-opacity="0.12"/>
<stop offset="1" stop-color="#808080" stop-opacity="0.1"/>
</linearGradient>
<linearGradient id="paint1_linear" x1="23130.7" y1="44387.5" x2="23130.7" y2="38953.1" gradientUnits="userSpaceOnUse">
<stop stop-color="#808080" stop-opacity="0.25"/>
<stop offset="0.54" stop-color="#808080" stop-opacity="0.12"/>
<stop offset="1" stop-color="#808080" stop-opacity="0.1"/>
</linearGradient>
<linearGradient id="paint2_linear" x1="14688.7" y1="203938" x2="14688.7" y2="51245.2" gradientUnits="userSpaceOnUse">
<stop stop-color="#808080" stop-opacity="0.25"/>
<stop offset="0.54" stop-color="#808080" stop-opacity="0.12"/>
<stop offset="1" stop-color="#808080" stop-opacity="0.1"/>
</linearGradient>
<linearGradient id="paint3_linear" x1="32466.7" y1="3380.7" x2="32466.7" y2="3183.56" gradientUnits="userSpaceOnUse">
<stop stop-color="#808080" stop-opacity="0.25"/>
<stop offset="0.54" stop-color="#808080" stop-opacity="0.12"/>
<stop offset="1" stop-color="#808080" stop-opacity="0.1"/>
</linearGradient>
<linearGradient id="paint4_linear" x1="6170.49" y1="8486.53" x2="6170.49" y2="928.686" gradientUnits="userSpaceOnUse">
<stop stop-color="#808080" stop-opacity="0.25"/>
<stop offset="0.54" stop-color="#808080" stop-opacity="0.12"/>
<stop offset="1" stop-color="#808080" stop-opacity="0.1"/>
</linearGradient>
<linearGradient id="paint5_linear" x1="45090.3" y1="8501.25" x2="45090.3" y2="913.963" gradientUnits="userSpaceOnUse">
<stop stop-color="#808080" stop-opacity="0.25"/>
<stop offset="0.54" stop-color="#808080" stop-opacity="0.12"/>
<stop offset="1" stop-color="#808080" stop-opacity="0.1"/>
</linearGradient>
<linearGradient id="paint6_linear" x1="148561" y1="8553.74" x2="148561" y2="870.91" gradientUnits="userSpaceOnUse">
<stop stop-color="#808080" stop-opacity="0.25"/>
<stop offset="0.54" stop-color="#808080" stop-opacity="0.12"/>
<stop offset="1" stop-color="#808080" stop-opacity="0.1"/>
</linearGradient>
<linearGradient id="paint7_linear" x1="17213.4" y1="21129.4" x2="17994.8" y2="21129.4" gradientUnits="userSpaceOnUse">
<stop stop-color="#808080" stop-opacity="0.25"/>
<stop offset="0.54" stop-color="#808080" stop-opacity="0.12"/>
<stop offset="1" stop-color="#808080" stop-opacity="0.1"/>
</linearGradient>
<linearGradient id="paint8_linear" x1="240975" y1="195968" x2="240975" y2="84415.2" gradientUnits="userSpaceOnUse">
<stop stop-color="#808080" stop-opacity="0.25"/>
<stop offset="0.54" stop-color="#808080" stop-opacity="0.12"/>
<stop offset="1" stop-color="#808080" stop-opacity="0.1"/>
</linearGradient>
<linearGradient id="paint9_linear" x1="270.006" y1="559.796" x2="270.006" y2="340.974" gradientUnits="userSpaceOnUse">
<stop stop-color="#808080" stop-opacity="0.25"/>
<stop offset="0.54" stop-color="#808080" stop-opacity="0.12"/>
<stop offset="1" stop-color="#808080" stop-opacity="0.1"/>
</linearGradient>
<clipPath id="clip0">
<rect width="721" height="514" fill="white"/>
</clipPath>
</defs>
</svg>
