<svg width="282" height="282" viewBox="0 0 282 282" fill="none" xmlns="http://www.w3.org/2000/svg">
<circle cx="141" cy="141" r="141" fill="#F2FFF9"/>
<g clip-path="url(#clip0)">
<path d="M189.704 216.981H93.0316C90.3681 216.981 88.1997 214.813 88.1997 212.132V70.641C88.1997 67.9604 90.3681 65.792 93.0316 65.792H150.912C153.49 65.792 155.949 66.8164 157.776 68.6433L194.553 105.608V212.132C194.553 214.813 192.385 216.981 189.704 216.981Z" fill="url(#paint0_linear)"/>
<path opacity="0.2" d="M141.368 180.324C157.615 180.324 170.786 167.153 170.786 150.906C170.786 134.658 157.615 121.487 141.368 121.487C125.121 121.487 111.95 134.658 111.95 150.906C111.95 167.153 125.121 180.324 141.368 180.324Z" fill="#00DB87"/>
<path d="M141.368 176.021C155.239 176.021 166.484 164.776 166.484 150.905C166.484 137.034 155.239 125.79 141.368 125.79C127.497 125.79 116.252 137.034 116.252 150.905C116.252 164.776 127.497 176.021 141.368 176.021Z" fill="#00DB87"/>
<path d="M136.775 166.306L126.087 155.601L129.706 151.981L136.775 159.067L153.046 142.795L156.666 146.415L136.775 166.306Z" fill="#05C677"/>
<path d="M136.775 163.574L126.087 152.869L129.706 149.249L136.775 156.335L153.046 140.063L156.666 143.683L136.775 163.574Z" fill="white"/>
<g opacity="0.2">
<path opacity="0.2" d="M150.912 65.792H148.061C150.025 65.9969 151.578 67.653 151.578 69.7019V100.606C151.578 105.216 155.317 108.955 159.927 108.955H194.536V105.591L157.776 68.6433C155.966 66.8164 153.491 65.792 150.912 65.792Z" fill="#00DB87"/>
</g>
<path d="M150.912 65.7921C153.063 65.5531 154.941 67.2434 154.941 69.3947V99.5472C154.941 102.877 157.639 105.591 160.986 105.591H194.553L157.776 68.6434C155.966 66.8165 153.49 65.7921 150.912 65.7921Z" fill="url(#paint1_linear)"/>
</g>
<defs>
<linearGradient id="paint0_linear" x1="184.046" y1="228.035" x2="86.7876" y2="71.9682" gradientUnits="userSpaceOnUse">
<stop stop-color="#BDFFE1"/>
<stop offset="0.3515" stop-color="#C2FFE3"/>
<stop offset="0.7406" stop-color="#CFFFE8"/>
<stop offset="1" stop-color="#DCFFEE"/>
</linearGradient>
<linearGradient id="paint1_linear" x1="174.886" y1="83.8112" x2="143.515" y2="111.351" gradientUnits="userSpaceOnUse">
<stop stop-color="#00DB87"/>
<stop offset="0.0869014" stop-color="#09DC8B"/>
<stop offset="0.2309" stop-color="#23E097"/>
<stop offset="0.4144" stop-color="#4CE7AB"/>
<stop offset="0.6299" stop-color="#85F0C5"/>
<stop offset="0.8699" stop-color="#CDFBE7"/>
<stop offset="0.9483" stop-color="#E6FFF3"/>
</linearGradient>
<clipPath id="clip0">
<rect width="106.353" height="151.206" fill="white" transform="translate(88.1997 65.7749)"/>
</clipPath>
</defs>
</svg>
