<svg width="35" height="29" viewBox="0 0 35 29" fill="none" xmlns="http://www.w3.org/2000/svg">
<path d="M21.8919 0.601167C21.5169 0.678101 21.2161 0.994889 21.1106 1.41576C21.0051 1.84116 21.1145 2.29372 21.3919 2.5924L30.5793 13.2365H1.04811C1.01686 13.2365 0.985611 13.2365 0.954361 13.2365C0.40358 13.2681 -0.0261079 13.8112 0.00123613 14.4493C0.0285801 15.0874 0.49733 15.5852 1.04811 15.5535H30.5793L21.3919 26.1976C21.095 26.4782 20.9583 26.9262 21.0442 27.3606C21.1301 27.7906 21.4231 28.13 21.7942 28.2296C22.1692 28.3291 22.5559 28.1707 22.7981 27.8268L33.7043 15.2277L34.3918 14.395L33.7043 13.5623L22.7981 0.96321C22.5911 0.705255 22.2903 0.574015 21.9856 0.601167C21.9544 0.601167 21.9231 0.601167 21.8919 0.601167Z" fill="#53428C"/>
</svg>
