<svg width="25" height="15" viewBox="0 0 25 15" fill="none" xmlns="http://www.w3.org/2000/svg">
<path d="M24.8134 7.01147C24.5902 6.76255 19.2228 0.908203 12.5 0.908203C5.77727 0.908203 0.409888 6.76255 0.186694 7.01147C-0.0622314 7.2897 -0.0622314 7.7103 0.186694 7.98853C0.409888 8.23745 5.77737 14.0918 12.5 14.0918C19.2227 14.0918 24.5902 8.23745 24.8134 7.98853C25.0622 7.7103 25.0622 7.2897 24.8134 7.01147ZM12.5 12.627C9.67332 12.627 7.37307 10.3267 7.37307 7.5C7.37307 4.67329 9.67332 2.37305 12.5 2.37305C15.3267 2.37305 17.627 4.67329 17.627 7.5C17.627 10.3267 15.3267 12.627 12.5 12.627Z" fill="white"/>
<path d="M13.2324 6.03516C13.2324 5.29834 13.5982 4.65015 14.1546 4.25146C13.6553 3.99585 13.0984 3.83789 12.5 3.83789C10.4808 3.83789 8.83789 5.48081 8.83789 7.5C8.83789 9.51919 10.4808 11.1621 12.5 11.1621C14.3078 11.1621 15.8041 9.84209 16.0997 8.11729C14.6248 8.59214 13.2324 7.47666 13.2324 6.03516Z" fill="white"/>
</svg>