<svg width="33" height="17" viewBox="0 0 33 17" fill="none" xmlns="http://www.w3.org/2000/svg">
<path d="M31.7109 7.21093H4.41126L8.93355 2.71056C9.43816 2.20834 9.44009 1.39217 8.93787 0.887565C8.43565 0.382898 7.61942 0.381029 7.11482 0.883183L0.379206 7.5863C0.378754 7.58669 0.378432 7.58714 0.378045 7.58753C-0.125269 8.08974 -0.12688 8.90856 0.377917 9.41245C0.378368 9.41284 0.37869 9.41329 0.379077 9.41367L7.11469 16.1168C7.61923 16.6189 8.43546 16.6171 8.93774 16.1124C9.43996 15.6078 9.43803 14.7916 8.93343 14.2894L4.41126 9.78905H31.7109C32.4229 9.78905 33 9.21194 33 8.49999C33 7.78804 32.4229 7.21093 31.7109 7.21093Z" fill="white"/>
</svg>
