<svg width="405" height="402" viewBox="0 0 405 402" fill="none" xmlns="http://www.w3.org/2000/svg">
<circle cx="204" cy="201" r="201" fill="#ABD0FF" fill-opacity="0.26"/>
<circle cx="204" cy="201" r="176" fill="#92BBEF"/>
<g clip-path="url(#clip0)">
<path d="M72.7238 339C112.888 339 145.448 336.312 145.448 332.997C145.448 329.682 112.888 326.994 72.7238 326.994C32.5596 326.994 0 329.682 0 332.997C0 336.312 32.5596 339 72.7238 339Z" fill="#E6E6E6"/>
<path d="M55.5889 124.239C68.245 118.389 84.0084 122.096 99.4031 124.668C99.5463 121.553 101.283 117.761 99.4638 115.587C97.254 112.947 97.4574 110.172 98.7872 107.382C102.188 100.246 97.3157 92.6525 92.3966 86.339C91.2878 84.9192 89.8866 83.8036 88.3067 83.0828C86.7267 82.3621 85.0126 82.0566 83.3036 82.1911L74.1913 82.8985C71.9739 83.0706 69.8578 83.9746 68.126 85.4896C66.3943 87.0045 65.1296 89.0582 64.5011 91.3757C62.3253 94.5918 61.1607 97.7991 61.8939 100.99C58.6348 103.41 58.0873 106.332 59.5518 109.626C60.7936 111.7 60.7804 113.719 59.4953 115.682C57.8076 118.184 56.5149 120.975 55.6703 123.939L55.5889 124.239Z" fill="#2F2E41"/>
<path d="M356.351 301.598H98.4033C96.1094 301.598 93.9094 300.608 92.2874 298.845C90.6654 297.082 89.7542 294.691 89.7542 292.198C183.26 280.387 275.009 280.387 365 292.198C365 294.691 364.089 297.082 362.467 298.845C360.845 300.608 358.645 301.598 356.351 301.598Z" fill="#2F2E41"/>
<path d="M365 292.749L89.7542 292.196L121.654 233.86L121.807 233.584V105.018C121.807 103.457 122.089 101.912 122.639 100.47C123.188 99.0284 123.994 97.7183 125.009 96.6149C126.024 95.5114 127.23 94.6362 128.556 94.039C129.883 93.4419 131.304 93.1346 132.74 93.1348H320.488C321.923 93.1346 323.345 93.4419 324.672 94.039C325.998 94.6362 327.204 95.5114 328.219 96.6149C329.234 97.7183 330.04 99.0284 330.589 100.47C331.138 101.912 331.421 103.457 331.421 105.018V234.469L365 292.749Z" fill="#3F3D56"/>
<path d="M132.491 101.43C131.547 101.431 130.642 101.839 129.974 102.565C129.306 103.29 128.931 104.274 128.93 105.3V222.526C128.931 223.552 129.306 224.536 129.974 225.261C130.642 225.987 131.547 226.395 132.491 226.396H322.263C323.207 226.395 324.113 225.987 324.78 225.261C325.448 224.536 325.824 223.552 325.825 222.526V105.3C325.824 104.274 325.448 103.29 324.78 102.565C324.113 101.839 323.207 101.431 322.263 101.43H132.491Z" fill="white"/>
<path d="M133.286 241.879C132.994 241.879 132.709 241.971 132.463 242.142C132.218 242.313 132.022 242.557 131.9 242.844L122.07 266.068C121.963 266.321 121.916 266.599 121.934 266.876C121.952 267.154 122.033 267.422 122.172 267.657C122.31 267.891 122.5 268.084 122.724 268.217C122.949 268.351 123.201 268.421 123.457 268.421H330.164C330.424 268.421 330.68 268.348 330.907 268.211C331.134 268.073 331.325 267.874 331.462 267.634C331.599 267.393 331.677 267.119 331.688 266.836C331.7 266.554 331.645 266.273 331.528 266.02L320.844 242.796C320.718 242.52 320.523 242.288 320.282 242.125C320.041 241.963 319.763 241.878 319.479 241.879H133.286Z" fill="#2F2E41"/>
<path d="M226.614 99.4941C227.878 99.4941 228.903 98.3801 228.903 97.0058C228.903 95.6316 227.878 94.5176 226.614 94.5176C225.349 94.5176 224.324 95.6316 224.324 97.0058C224.324 98.3801 225.349 99.4941 226.614 99.4941Z" fill="white"/>
<path d="M206.296 272.844C205.961 272.844 205.635 272.965 205.368 273.186C205.102 273.408 204.91 273.719 204.823 274.071L202.357 284.024C202.296 284.27 202.288 284.528 202.333 284.778C202.379 285.027 202.477 285.263 202.619 285.465C202.762 285.667 202.945 285.831 203.155 285.943C203.365 286.056 203.596 286.115 203.831 286.115H250.721C250.964 286.115 251.204 286.051 251.42 285.93C251.637 285.809 251.823 285.633 251.964 285.418C252.105 285.202 252.197 284.953 252.231 284.692C252.266 284.43 252.242 284.163 252.163 283.913L248.993 273.96C248.889 273.634 248.694 273.351 248.436 273.151C248.177 272.951 247.868 272.844 247.551 272.844H206.296Z" fill="#2F2E41"/>
<path d="M331.421 231.65V233.862H121.654L121.812 233.586V231.65H331.421Z" fill="#2F2E41"/>
<path d="M325.57 140.413C345.239 140.413 361.184 123.083 361.184 101.706C361.184 80.3295 345.239 63 325.57 63C305.901 63 289.956 80.3295 289.956 101.706C289.956 123.083 305.901 140.413 325.57 140.413Z" fill="#132666"/>
<path d="M340.325 118.572H310.816C310.276 118.571 309.759 118.338 309.377 117.923C308.996 117.509 308.781 116.946 308.781 116.36V97.0067C308.781 96.4203 308.996 95.8581 309.377 95.4434C309.759 95.0288 310.276 94.7955 310.816 94.7949H340.325C340.864 94.7955 341.382 95.0288 341.763 95.4434C342.145 95.8581 342.359 96.4203 342.36 97.0067V116.36C342.359 116.946 342.145 117.509 341.763 117.923C341.382 118.338 340.864 118.571 340.325 118.572ZM310.816 97.0067V116.36H340.326L340.325 97.0067L310.816 97.0067Z" fill="white"/>
<path d="M334.728 97.0058H316.412V88.1586C316.412 81.7505 320.264 77.0996 325.57 77.0996C330.877 77.0996 334.728 81.7505 334.728 88.1586L334.728 97.0058ZM318.447 94.794H332.693V88.1586C332.693 82.9496 329.764 79.3114 325.57 79.3114C321.376 79.3114 318.447 82.9496 318.447 88.1586L318.447 94.794Z" fill="white"/>
<path d="M325.57 108.342C326.694 108.342 327.605 107.351 327.605 106.13C327.605 104.908 326.694 103.918 325.57 103.918C324.446 103.918 323.535 104.908 323.535 106.13C323.535 107.351 324.446 108.342 325.57 108.342Z" fill="white"/>
<path d="M300.709 186.635H154.046C153.326 186.634 152.635 186.323 152.126 185.769C151.617 185.216 151.331 184.466 151.33 183.683V144.143C151.331 143.361 151.617 142.61 152.126 142.057C152.635 141.504 153.326 141.192 154.046 141.191H300.709C301.429 141.192 302.119 141.504 302.628 142.057C303.137 142.61 303.424 143.361 303.425 144.143V183.683C303.424 184.466 303.137 185.216 302.628 185.769C302.119 186.323 301.429 186.634 300.709 186.635ZM154.046 142.372C153.614 142.373 153.2 142.559 152.894 142.891C152.589 143.223 152.417 143.674 152.416 144.143V183.683C152.417 184.152 152.589 184.603 152.894 184.935C153.2 185.267 153.614 185.453 154.046 185.454H300.709C301.141 185.453 301.555 185.267 301.86 184.935C302.166 184.603 302.338 184.152 302.338 183.683V144.143C302.338 143.674 302.166 143.223 301.86 142.891C301.555 142.559 301.141 142.373 300.709 142.372L154.046 142.372Z" fill="#E6E6E6"/>
<path d="M176.834 174.419C182.944 174.419 187.897 169.036 187.897 162.395C187.897 155.754 182.944 150.371 176.834 150.371C170.724 150.371 165.771 155.754 165.771 162.395C165.771 169.036 170.724 174.419 176.834 174.419Z" fill="#E6E6E6"/>
<path d="M202.385 154.381C202.143 154.38 201.903 154.432 201.679 154.532C201.455 154.633 201.251 154.781 201.08 154.967C200.908 155.153 200.772 155.374 200.679 155.617C200.586 155.861 200.539 156.121 200.539 156.385C200.539 156.648 200.586 156.909 200.679 157.152C200.772 157.396 200.908 157.617 201.08 157.803C201.251 157.989 201.455 158.137 201.679 158.237C201.903 158.338 202.143 158.389 202.385 158.389H289.312C289.801 158.389 290.27 158.178 290.616 157.802C290.962 157.426 291.156 156.916 291.156 156.385C291.156 155.853 290.962 155.344 290.616 154.968C290.27 154.592 289.801 154.381 289.312 154.381H202.385Z" fill="#E6E6E6"/>
<path d="M202.385 166.404C201.896 166.404 201.427 166.615 201.082 166.991C200.736 167.367 200.542 167.877 200.542 168.408C200.542 168.94 200.736 169.45 201.082 169.825C201.427 170.201 201.896 170.412 202.385 170.412H239.79C240.279 170.412 240.748 170.201 241.094 169.825C241.44 169.45 241.634 168.94 241.634 168.408C241.634 167.877 241.44 167.367 241.094 166.991C240.748 166.615 240.279 166.404 239.79 166.404H202.385Z" fill="#E6E6E6"/>
<path d="M121.293 167.214L94.1816 182.88L93.8384 169.825C102.687 168.22 111.106 165.425 118.891 160.874L121.727 153.26C122.036 152.43 122.538 151.702 123.184 151.147C123.83 150.592 124.598 150.229 125.412 150.094C126.226 149.959 127.058 150.056 127.827 150.377C128.596 150.697 129.275 151.229 129.798 151.92C130.563 152.932 130.945 154.222 130.868 155.529C130.79 156.836 130.258 158.062 129.38 158.958L121.293 167.214Z" fill="#FFB8B8"/>
<path d="M55.0485 257.66C54.8507 256.872 54.8087 256.047 54.9252 255.239C55.0418 254.432 55.3143 253.661 55.7247 252.976L61.6804 243.043C63.0891 240.693 65.2505 238.996 67.7455 238.28C70.2404 237.565 72.8909 237.883 75.1826 239.171C72.6797 243.802 73.0286 247.864 76.0471 251.394C71.3612 253.88 67.0304 257.089 63.1887 260.921C62.4874 261.441 61.682 261.77 60.8396 261.883C59.9972 261.996 59.1421 261.889 58.3457 261.57C57.5493 261.251 56.8346 260.729 56.261 260.049C55.6875 259.369 55.2717 258.55 55.0485 257.66Z" fill="#2F2E41"/>
<path d="M122.528 244.672C121.627 246.305 120.355 247.658 118.834 248.602C117.313 249.547 115.594 250.05 113.842 250.065L74.2767 250.39L72.5608 239.574L90.0633 233.979L75.3063 221.67L91.436 201.156L120.733 230.833C122.445 232.567 123.558 234.888 123.884 237.407C124.211 239.926 123.732 242.491 122.528 244.672Z" fill="#2F2E41"/>
<path d="M68.0993 318.648H58.8332C50.5137 256.669 42.0451 194.516 67.0697 171.318L96.5838 176.54L92.8087 203.768L76.3357 224.282L68.0993 318.648Z" fill="#2F2E41"/>
<path d="M76.2446 332.686C75.5192 332.901 74.7601 332.947 74.0173 332.82C73.2746 332.694 72.5649 332.398 71.9349 331.952L61.8739 330.482C59.712 328.951 58.1503 326.602 57.492 323.89C56.8336 321.179 57.1255 318.298 58.3109 315.807C62.5716 318.527 66.3092 318.148 69.5571 314.867C71.852 319.903 75.6332 319.596 79.2443 323.839C79.7225 324.601 80.0261 325.477 80.13 326.392C80.2339 327.308 80.1349 328.237 79.8415 329.102C79.548 329.968 79.0684 330.745 78.4428 331.368C77.8171 331.992 77.0634 332.444 76.2446 332.686Z" fill="#2F2E41"/>
<path d="M90.0632 129.916L72.9038 125.44C75.7537 119.1 75.9884 112.045 74.6197 104.553L86.2881 104.18C86.6537 113.497 87.7598 122.202 90.0632 129.916Z" fill="#FFB8B8"/>
<path d="M94.7793 187.77C82.2879 197.021 73.4619 188.087 66.7266 174.302C67.6625 165.867 66.1471 155.772 63.3405 144.804C62.0923 139.966 62.5583 134.796 64.6465 130.313C66.7347 125.831 70.2933 122.362 74.6199 120.592L89.3769 127.306C101.907 138.406 104.374 150.43 99.6725 163.112L94.7793 187.77Z" fill="#132666"/>
<path d="M58.8332 139.242L45.1057 147.074L69.472 162.74L72.8624 171.829C73.0887 172.436 73.1989 173.086 73.1864 173.74C73.1738 174.395 73.0388 175.04 72.7895 175.636C72.5401 176.231 72.1818 176.766 71.7362 177.206C71.2906 177.647 70.7671 177.984 70.1977 178.197C69.5504 178.44 68.8603 178.516 68.1813 178.421C67.5023 178.325 66.8529 178.06 66.284 177.646C65.7151 177.232 65.2421 176.68 64.902 176.034C64.5619 175.389 64.3641 174.666 64.3239 173.923L63.981 167.589L33.0118 156.481C31.9683 156.107 31.017 155.48 30.2297 154.647C29.4424 153.814 28.8398 152.797 28.4676 151.673C27.9251 150.035 27.8975 148.248 28.3891 146.592C28.8807 144.935 29.8638 143.502 31.1845 142.517L56.0877 123.949L58.8332 139.242Z" fill="#FFB8B8"/>
<path d="M72.5606 140.734C66.8354 138.007 61.6293 140.969 55.0581 143.345L54.0286 123.576C60.5535 119.797 66.7746 118.778 72.5606 121.712L72.5606 140.734Z" fill="#132666"/>
<path d="M79.4094 113.972C85.46 113.972 90.365 108.641 90.365 102.065C90.365 95.4891 85.46 90.1582 79.4094 90.1582C73.3588 90.1582 68.4539 95.4891 68.4539 102.065C68.4539 108.641 73.3588 113.972 79.4094 113.972Z" fill="#FFB8B8"/>
<path d="M92.5158 100.563C81.6688 101.718 73.4035 99.7896 68.1211 94.2999V89.8789H91.5952L92.5158 100.563Z" fill="#2F2E41"/>
</g>
<defs>
<clipPath id="clip0">
<rect width="365" height="276" fill="white" transform="translate(0 63)"/>
</clipPath>
</defs>
</svg>