<svg width="743" height="541" viewBox="0 0 743 541" fill="none" xmlns="http://www.w3.org/2000/svg">
<g clip-path="url(#clip0)">
<path opacity="0.1" d="M730.41 432.258C712.007 470.267 674.62 495.682 635.888 512.443C604.877 525.774 572.097 534.529 538.573 538.434C532.153 539.197 525.711 539.789 519.249 540.209C502.736 541.287 486.17 541.268 469.66 540.154C459.728 539.493 449.832 538.436 439.97 536.985C405.703 531.981 372.295 522.245 340.701 508.053C331.583 503.944 322.649 499.457 313.901 494.593C299.288 486.487 285.287 477.323 272.009 467.174C269.072 464.927 266.171 462.631 263.307 460.288L262.129 459.324C259.877 457.465 257.646 455.565 255.38 453.72C251.614 450.563 247.617 447.693 243.421 445.135C243.137 444.969 242.853 444.802 242.562 444.643C241.786 444.192 240.996 443.769 240.192 443.367C238.537 442.532 236.839 441.782 235.107 441.12C227.104 438.069 218.533 436.959 209.844 437.147C208.403 437.147 206.962 437.244 205.514 437.341C203.491 437.479 201.461 437.687 199.437 437.951L198.689 438.055C192.242 438.968 185.868 440.338 179.614 442.153C169.956 444.927 160.47 448.395 150.922 451.522C146.869 452.861 142.809 454.137 138.714 455.281L137.813 455.53C131.989 457.17 126.06 458.412 120.068 459.247C106.452 460.99 92.6215 459.875 79.4588 455.974L79.0015 455.842L78.1562 455.593L76.9991 455.232C75.059 454.622 73.1351 453.954 71.2274 453.228L70.0703 452.784C68.2226 452.072 66.4142 451.307 64.6451 450.489L63.488 449.962C61.6403 449.102 59.8319 448.193 58.0628 447.237C57.4253 446.904 56.7948 446.543 56.1712 446.203C54.2866 445.149 52.4389 444.044 50.6282 442.889C48.7066 441.663 46.8266 440.385 44.9882 439.054C44.1382 438.443 43.2975 437.817 42.4661 437.174C37.6731 433.505 33.1847 429.454 29.045 425.06C28.8164 424.831 28.6016 424.595 28.3868 424.366C27.2851 423.173 26.2042 421.96 25.158 420.718C24.77 420.261 24.382 419.803 24.0009 419.331C22.7583 417.815 21.5597 416.264 20.4049 414.678C20.2316 414.449 20.0654 414.214 19.8991 413.985C15.1649 407.432 11.2401 400.33 8.21023 392.834C8.11322 392.605 8.02315 392.37 7.94 392.141C7.01617 389.76 6.17317 387.34 5.411 384.88C5.09921 383.854 4.80127 382.8 4.53797 381.773C4.4479 381.468 4.36475 381.156 4.28854 380.851C0.463855 365.782 0.0273438 350.117 0.0273438 334.541C0.0273438 332.725 0.0273438 330.91 0.0273438 329.098C0.138204 303.904 0.526214 278.281 4.24004 253.434C4.24004 253.26 4.28854 253.087 4.31625 252.921C5.55925 244.556 7.25 236.264 9.38119 228.081C11.6117 219.494 14.4623 211.081 17.9105 202.908C26.4537 182.797 38.877 164.497 52.6722 147.535C69.3012 127.126 88.3553 108.291 109.578 92.7509C112.627 90.518 115.717 88.3497 118.849 86.2462L120.297 85.2962C120.803 84.9564 121.309 84.6027 121.814 84.3045C122.854 83.6111 123.893 82.9592 124.946 82.3004L126.124 81.5653L128.369 80.1784L129.062 79.7831L130.261 79.0897L131.445 78.3962C132.831 77.5779 134.233 76.7781 135.651 75.9968C141.707 72.6173 147.906 69.5291 154.248 66.7321C156.119 65.9046 158.001 65.1071 159.895 64.3397C168.493 60.8348 177.326 57.936 186.328 55.6644C189.654 54.823 193.001 54.0833 196.368 53.4453C200.34 52.6779 204.334 52.0422 208.348 51.5383C214.735 50.7339 221.16 50.2548 227.596 50.1028C272.855 49.0002 318.571 63.7433 354.039 92.002C368.174 103.264 380.874 116.599 396.748 125.233C410.606 132.75 426.826 135.864 441.667 129.948C453.931 125.059 461.913 122.632 475.688 123.374C504.19 124.981 532.29 130.863 559.048 140.822C560.129 141.217 561.209 141.626 562.283 142.035C632.063 168.769 692.059 221.853 723.225 290.07C724.047 291.873 724.849 293.689 725.629 295.52C744.219 338.966 750.926 389.901 730.41 432.258Z" fill="#FEC83D"/>
<path opacity="0.1" d="M138.693 192.36V455.295L137.792 455.544C131.968 457.184 126.04 458.426 120.048 459.261C106.431 461.003 92.601 459.889 79.4383 455.988L78.981 455.856L78.1357 455.607L76.9786 455.246C75.0385 454.636 73.1146 453.968 71.2069 453.242L70.0498 452.798C68.2021 452.086 66.3937 451.321 64.6246 450.503L63.4675 449.976C61.6198 449.116 59.8114 448.207 58.0422 447.25C57.4048 446.917 56.7743 446.557 56.1507 446.217C54.2661 445.163 52.4184 444.058 50.6077 442.902C48.6861 441.677 46.8061 440.399 44.9676 439.067C44.1177 438.457 43.277 437.831 42.4456 437.188C37.6526 433.519 33.1642 429.467 29.0245 425.073C28.7959 424.844 28.5811 424.609 28.3663 424.38C27.2646 423.187 26.1837 421.974 25.1375 420.732C24.7495 420.275 24.3615 419.817 23.9804 419.345C22.7378 417.829 21.5392 416.278 20.3844 414.692C20.2111 414.463 20.0448 414.228 19.8786 413.999C15.1444 407.446 11.2196 400.344 8.18972 392.848C8.09271 392.619 8.00264 392.383 7.9195 392.155C6.99566 389.774 6.15266 387.353 5.39049 384.894C5.0787 383.868 4.78076 382.814 4.51747 381.787C4.42739 381.482 4.34425 381.17 4.26803 380.865C0.443347 365.796 0.00683594 350.131 0.00683594 334.555C0.00683594 332.738 0.00683594 330.924 0.00683594 329.112C0.117696 303.918 0.505706 278.294 4.21953 253.448C4.21953 253.274 4.26803 253.101 4.29574 252.934C5.53874 244.57 7.22948 236.278 9.36068 228.095H80.1173V192.36H94.2243V163.658H124.586V192.36H138.693Z" fill="#6C63FF"/>
<path opacity="0.1" d="M730.411 432.258C712.008 470.267 674.62 495.682 635.889 512.443C604.878 525.774 572.098 534.529 538.574 538.434C532.153 539.197 525.712 539.789 519.249 540.209C502.737 541.287 486.171 541.268 469.66 540.154C459.729 539.493 449.832 538.437 439.97 536.985C405.704 531.982 372.296 522.245 340.702 508.053C331.584 503.944 322.65 499.457 313.901 494.593C299.289 486.487 285.288 477.323 272.01 467.174C269.072 464.927 266.171 462.632 263.308 460.288L262.13 459.324C259.878 457.465 257.647 455.565 255.381 453.72C251.615 450.563 247.617 447.693 243.422 445.135C243.138 444.969 242.854 444.802 242.563 444.643C241.787 444.192 240.997 443.769 240.193 443.367C238.537 442.532 236.84 441.782 235.107 441.12V333.557H363.699V357.502H420.133V182.347H486.56V252.387H519.416V210.917H546.563V166.619H559.034V140.822C560.115 141.217 561.196 141.626 562.27 142.036V166.619H574.409V210.945H601.536V252.414H641.535V410.407H705.114V295.506H725.602C744.22 338.966 750.927 389.901 730.411 432.258Z" fill="#6C63FF"/>
<path opacity="0.1" d="M469.674 208.705H439.984V238.42H469.674V208.705Z" fill="#6C63FF"/>
<path opacity="0.1" d="M469.674 270.299H439.984V300.014H469.674V270.299Z" fill="#6C63FF"/>
<path opacity="0.1" d="M469.674 331.899H439.984V361.614H469.674V331.899Z" fill="#6C63FF"/>
<path opacity="0.1" d="M469.674 393.5H439.984V423.215H469.674V393.5Z" fill="#6C63FF"/>
<path opacity="0.1" d="M469.674 455.094H439.984V484.809H469.674V455.094Z" fill="#6C63FF"/>
<path opacity="0.1" d="M469.674 516.68V540.147C459.743 539.486 449.846 538.43 439.984 536.978V516.68H469.674Z" fill="#6C63FF"/>
<path opacity="0.1" d="M348.822 371.961H244.897V385.421H348.822V371.961Z" fill="#6C63FF"/>
<path opacity="0.1" d="M348.822 412.841H244.897V426.301H348.822V412.841Z" fill="#6C63FF"/>
<path opacity="0.1" d="M348.822 453.72V467.174H272.024C269.086 464.927 266.185 462.631 263.321 460.288L262.143 459.324C259.891 457.465 257.66 455.565 255.395 453.72H348.822Z" fill="#6C63FF"/>
<path opacity="0.1" d="M348.822 494.593V508.053H340.716C331.597 503.943 322.664 499.457 313.915 494.593H348.822Z" fill="#6C63FF"/>
<path opacity="0.1" d="M538.587 289.168H519.263V308.509H538.587V289.168Z" fill="#6C63FF"/>
<path opacity="0.1" d="M120.09 199.031H100.766V218.372H120.09V199.031Z" fill="#6C63FF"/>
<path opacity="0.1" d="M120.09 243.968H100.766V263.309H120.09V243.968Z" fill="#6C63FF"/>
<path opacity="0.1" d="M120.09 288.898H100.766V308.238H120.09V288.898Z" fill="#6C63FF"/>
<path opacity="0.1" d="M120.09 333.834H100.766V353.175H120.09V333.834Z" fill="#6C63FF"/>
<path opacity="0.1" d="M120.09 378.771H100.766V398.112H120.09V378.771Z" fill="#6C63FF"/>
<path opacity="0.1" d="M120.09 423.7H100.766V443.041H120.09V423.7Z" fill="#6C63FF"/>
<path opacity="0.1" d="M612.372 289.168H593.048V308.509H612.372V289.168Z" fill="#6C63FF"/>
<path opacity="0.1" d="M538.587 336.878H519.263V356.219H538.587V336.878Z" fill="#6C63FF"/>
<path opacity="0.1" d="M612.372 336.878H593.048V356.219H612.372V336.878Z" fill="#6C63FF"/>
<path opacity="0.1" d="M538.587 384.596H519.263V403.936H538.587V384.596Z" fill="#6C63FF"/>
<path opacity="0.1" d="M612.372 384.596H593.048V403.936H612.372V384.596Z" fill="#6C63FF"/>
<path opacity="0.1" d="M538.587 432.313H519.263V451.654H538.587V432.313Z" fill="#6C63FF"/>
<path opacity="0.1" d="M612.372 432.313H593.048V451.654H612.372V432.313Z" fill="#6C63FF"/>
<path opacity="0.1" d="M538.587 480.024H519.263V499.364H538.587V480.024Z" fill="#6C63FF"/>
<path opacity="0.1" d="M612.372 480.024H593.048V499.364H612.372V480.024Z" fill="#6C63FF"/>
<path opacity="0.1" d="M519.263 540.209V527.734H538.587V538.434L519.263 540.209Z" fill="#6C63FF"/>
<path opacity="0.1" d="M4.22656 252.941V264.037H78.1358V252.941H4.22656ZM10.8089 263.343H5.38367V253.635H10.8089V263.343ZM17.3912 263.343H11.966V253.635H17.3912V263.343ZM23.9736 263.343H18.5483V253.635H23.9736V263.343ZM30.5559 263.343H25.1307V253.635H30.5559V263.343ZM37.1382 263.343H31.713V253.635H37.1382V263.343ZM43.7206 263.343H38.2953V253.635H43.7206V263.343ZM50.3029 263.343H44.8777V253.635H50.3029V263.343ZM56.8852 263.343H51.46V253.635H56.8852V263.343ZM63.4676 263.343H58.0423V253.635H63.4676V263.343ZM70.0499 263.343H64.6247V253.635H70.0499V263.343ZM76.9787 263.343H71.207V253.635H76.9787V263.343Z" fill="#6C63FF"/>
<path opacity="0.1" d="M4.22656 285.16V296.221H78.1358V285.16H4.22656ZM10.8089 295.527H5.38367V285.853H10.8089V295.527ZM17.3912 295.527H11.966V285.853H17.3912V295.527ZM23.9736 295.527H18.5483V285.853H23.9736V295.527ZM30.5559 295.527H25.1307V285.853H30.5559V295.527ZM37.1382 295.527H31.713V285.853H37.1382V295.527ZM43.7206 295.527H38.2953V285.853H43.7206V295.527ZM50.3029 295.527H44.8777V285.853H50.3029V295.527ZM56.8852 295.527H51.46V285.853H56.8852V295.527ZM63.4676 295.527H58.0423V285.853H63.4676V295.527ZM70.0499 295.527H64.6247V285.853H70.0499V295.527ZM76.9787 295.527H71.207V285.853H76.9787V295.527Z" fill="#6C63FF"/>
<path opacity="0.1" d="M4.22656 317.371V328.432H78.1358V317.371H4.22656ZM10.8089 327.739H5.38367V318.065H10.8089V327.739ZM17.3912 327.739H11.966V318.065H17.3912V327.739ZM23.9736 327.739H18.5483V318.065H23.9736V327.739ZM30.5559 327.739H25.1307V318.065H30.5559V327.739ZM37.1382 327.739H31.713V318.065H37.1382V327.739ZM43.7206 327.739H38.2953V318.065H43.7206V327.739ZM50.3029 327.739H44.8777V318.065H50.3029V327.739ZM56.8852 327.739H51.46V318.065H56.8852V327.739ZM63.4676 327.739H58.0423V318.065H63.4676V327.739ZM70.0499 327.739H64.6247V318.065H70.0499V327.739ZM76.9787 327.739H71.207V318.065H76.9787V327.739Z" fill="#6C63FF"/>
<path opacity="0.1" d="M4.22656 349.555V360.65H78.1358V349.555H4.22656ZM10.8089 359.957H5.38367V350.248H10.8089V359.957ZM17.3912 359.957H11.966V350.248H17.3912V359.957ZM23.9736 359.957H18.5483V350.248H23.9736V359.957ZM30.5559 359.957H25.1307V350.248H30.5559V359.957ZM37.1382 359.957H31.713V350.248H37.1382V359.957ZM43.7206 359.957H38.2953V350.248H43.7206V359.957ZM50.3029 359.957H44.8777V350.248H50.3029V359.957ZM56.8852 359.957H51.46V350.248H56.8852V359.957ZM63.4676 359.957H58.0423V350.248H63.4676V359.957ZM70.0499 359.957H64.6247V350.248H70.0499V359.957ZM76.9787 359.957H71.207V350.248H76.9787V359.957Z" fill="#6C63FF"/>
<path opacity="0.1" d="M4.51074 381.794C4.77404 382.834 5.07197 383.875 5.38377 384.901V382.488H10.809V392.196H7.91277C7.99592 392.425 8.08599 392.661 8.18299 392.89H78.1636V381.794H4.51074ZM17.3913 392.196H11.9661V382.488H17.3913V392.196ZM23.9737 392.196H18.5484V382.488H23.9737V392.196ZM30.556 392.196H25.1308V382.488H30.556V392.196ZM37.1383 392.196H31.7131V382.488H37.1383V392.196ZM43.7207 392.196H38.2954V382.488H43.7207V392.196ZM50.303 392.196H44.8778V382.488H50.303V392.196ZM56.8853 392.196H51.4601V382.488H56.8853V392.196ZM63.4677 392.196H58.0424V382.488H63.4677V392.196ZM70.05 392.196H64.6248V382.488H70.05V392.196ZM76.9788 392.196H71.2071V382.488H76.9788V392.196Z" fill="#6C63FF"/>
<path opacity="0.1" d="M19.8721 414.006C20.0384 414.234 20.2046 414.47 20.3779 414.699H23.9739V419.352C24.355 419.817 24.743 420.275 25.131 420.739V414.706H30.5562V424.415H28.3598C28.5746 424.643 28.7894 424.879 29.018 425.108H78.1361V414.013L19.8721 414.006ZM37.1386 424.408H31.7133V414.699H37.1386V424.408ZM43.7209 424.408H38.2957V414.699H43.7209V424.408ZM50.3032 424.408H44.878V414.699H50.3032V424.408ZM56.8856 424.408H51.4603V414.699H56.8856V424.408ZM63.4679 424.408H58.0427V414.699H63.4679V424.408ZM70.0502 424.408H64.625V414.699H70.0502V424.408ZM76.979 424.408H71.2074V414.699H76.979V424.408Z" fill="#6C63FF"/>
<path opacity="0.1" d="M56.1504 446.217C56.774 446.571 57.4045 446.911 58.042 447.251V446.911H63.4672V449.976L64.6243 450.503V446.911H70.0495V452.798L71.2066 453.242V446.911H76.9783V455.232L78.1354 455.593V446.217H56.1504Z" fill="#6C63FF"/>
<path opacity="0.1" d="M284.052 156.89C284.052 156.89 267.534 155.891 269.502 167.472C269.401 168.06 269.489 168.666 269.752 169.201C270.016 169.737 270.443 170.175 270.971 170.454C270.971 170.454 270.971 169.594 272.661 169.885C273.254 169.983 273.856 170.01 274.456 169.968C275.266 169.915 276.037 169.598 276.652 169.067C276.652 169.067 281.294 167.146 283.103 159.552C283.103 159.552 284.433 157.895 284.385 157.472L281.613 158.665C281.613 158.665 282.569 160.676 281.821 162.347C281.821 162.347 281.731 158.741 281.191 158.824C281.087 158.824 279.742 159.518 279.742 159.518C279.742 159.518 281.385 163.027 280.144 165.572C280.144 165.572 280.615 161.258 279.237 159.774L277.227 160.932C277.227 160.932 279.147 164.552 277.844 167.506C277.844 167.506 278.183 162.978 276.818 161.217L275.038 162.604C275.038 162.604 276.839 166.168 275.731 168.623C275.731 168.623 275.585 163.346 274.643 162.943C273.967 163.514 273.364 164.166 272.848 164.885C272.848 164.885 274.082 167.472 273.319 168.838C273.319 168.838 272.848 165.329 272.46 165.308C272.46 165.308 270.915 167.638 270.756 169.233C270.827 167.754 271.286 166.319 272.086 165.072C271.193 165.241 270.37 165.668 269.716 166.3C269.716 166.3 269.959 164.656 272.488 164.511C272.488 164.511 273.77 162.749 274.116 162.638C274.116 162.638 271.615 162.43 270.098 163.103C270.098 163.103 271.435 161.55 274.574 162.257L276.327 160.821C276.327 160.821 273.035 160.371 271.643 160.87C271.643 160.87 273.243 159.483 276.798 160.496L278.71 159.351C277.241 159.029 275.737 158.899 274.234 158.963C274.234 158.963 275.994 158.013 279.271 159.046L280.657 158.429C280.657 158.429 278.578 158.027 278.003 157.964C277.428 157.902 277.366 157.736 277.366 157.736C278.667 157.518 280.003 157.667 281.225 158.165C281.225 158.165 284.101 157.07 284.052 156.89Z" fill="#6C63FF"/>
<path opacity="0.1" d="M240.692 213.248C240.692 213.248 235.045 228.809 246.699 230.231C247.233 230.493 247.836 230.58 248.422 230.48C249.008 230.379 249.547 230.095 249.963 229.669C249.963 229.669 249.152 229.398 249.9 227.88C250.163 227.34 250.362 226.772 250.496 226.188C250.671 225.393 250.584 224.563 250.247 223.823C250.247 223.823 249.727 218.823 242.965 214.933C242.965 214.933 241.759 213.178 241.336 213.109L241.683 216.125C241.683 216.125 243.879 215.779 245.272 216.971C245.272 216.971 241.808 216.035 241.717 216.576C241.717 216.68 241.974 218.164 241.974 218.164C241.974 218.164 245.798 217.582 247.884 219.496C247.884 219.496 243.879 217.818 242.071 218.726L242.611 220.931C242.611 220.931 246.623 220.127 249.083 222.207C249.083 222.207 244.842 220.605 242.764 221.41L243.588 223.49C243.588 223.49 247.517 222.797 249.554 224.523C249.554 224.523 244.454 223.136 243.81 223.955C244.165 224.762 244.616 225.524 245.154 226.222C245.154 226.222 247.988 225.779 249.076 226.916C249.076 226.916 245.577 226.368 245.452 226.729C245.452 226.729 247.247 228.878 248.729 229.502C247.337 229.009 246.097 228.161 245.133 227.041C245.042 227.947 245.217 228.861 245.639 229.669C245.639 229.669 244.129 228.975 244.704 226.514C244.704 226.514 243.373 224.787 243.373 224.433C243.373 224.433 242.459 226.77 242.681 228.421C242.681 228.421 241.572 226.694 243.138 223.885L242.265 221.805C242.265 221.805 240.879 224.835 240.976 226.319C240.976 226.319 240.117 224.385 242.085 221.257L241.537 219.1C240.812 220.41 240.26 221.809 239.895 223.261C239.895 223.261 239.479 221.299 241.399 218.449L241.198 216.965C241.198 216.965 240.228 218.823 239.999 219.385C239.77 219.946 239.597 219.926 239.597 219.926C239.757 218.614 240.277 217.373 241.101 216.34C241.101 216.34 240.879 213.248 240.692 213.248Z" fill="#6C63FF"/>
<path opacity="0.1" d="M350.187 200.127C350.187 200.127 344.547 215.716 356.195 217.103C356.73 217.366 357.335 217.452 357.922 217.35C358.509 217.248 359.05 216.962 359.465 216.534C359.465 216.534 358.647 216.264 359.403 214.752C359.667 214.212 359.865 213.641 359.992 213.053C360.169 212.26 360.084 211.43 359.749 210.689C359.749 210.689 359.23 205.689 352.467 201.798C352.467 201.798 351.254 200.051 350.832 199.981L351.185 202.991C351.185 202.991 353.382 202.651 354.774 203.844C354.774 203.844 351.31 202.908 351.213 203.442C351.213 203.553 351.469 205.03 351.469 205.03C351.469 205.03 355.294 204.454 357.386 206.361C357.386 206.361 353.382 204.69 351.566 205.592L352.114 207.804C352.114 207.804 356.125 206.992 358.585 209.08C358.585 209.08 354.338 207.471 352.259 208.275L353.084 210.356C353.084 210.356 357.012 209.662 359.049 211.389C359.049 211.389 353.957 210.002 353.305 210.827C353.671 211.638 354.137 212.4 354.691 213.095C354.691 213.095 357.518 212.644 358.613 213.788C358.613 213.788 355.114 213.241 354.989 213.608C354.989 213.608 356.777 215.751 358.259 216.382C356.868 215.891 355.63 215.042 354.67 213.92C354.578 214.826 354.752 215.739 355.169 216.548C355.169 216.548 353.666 215.855 354.241 213.4C354.241 213.4 352.91 211.666 352.904 211.32C352.904 211.32 351.996 213.664 352.211 215.307C352.211 215.307 351.102 213.587 352.668 210.772L351.795 208.691C351.795 208.691 350.409 211.722 350.506 213.199C350.506 213.199 349.647 211.271 351.615 208.144L351.06 205.98C350.335 207.29 349.783 208.688 349.418 210.141C349.418 210.141 349.01 208.178 350.929 205.328L350.728 203.844C350.728 203.844 349.758 205.703 349.522 206.264C349.287 206.826 349.12 206.805 349.12 206.805C349.285 205.494 349.807 204.253 350.631 203.22C350.631 203.22 350.381 200.134 350.187 200.127Z" fill="#6C63FF"/>
<path opacity="0.1" d="M193.666 327.364C193.666 327.364 188.019 342.932 199.673 344.354C200.207 344.617 200.811 344.704 201.397 344.601C201.984 344.499 202.522 344.214 202.936 343.785C202.936 343.785 202.126 343.515 202.874 342.003C203.14 341.463 203.34 340.893 203.47 340.304C203.649 339.51 203.561 338.679 203.22 337.94C203.22 337.94 202.701 332.94 195.938 329.056C195.938 329.056 194.733 327.302 194.31 327.232L194.656 330.242C194.656 330.242 196.86 329.902 198.246 331.095C198.246 331.095 194.781 330.159 194.691 330.693C194.691 330.804 194.947 332.281 194.947 332.281C194.947 332.281 198.772 331.705 200.858 333.612C200.858 333.612 196.853 331.941 195.044 332.843L195.585 335.055C195.585 335.055 199.597 334.243 202.056 336.331C202.056 336.331 197.816 334.722 195.737 335.526L196.562 337.607C196.562 337.607 200.49 336.913 202.528 338.64C202.528 338.64 197.435 337.253 196.784 338.078C197.138 338.886 197.59 339.647 198.128 340.346C198.128 340.346 200.962 339.895 202.056 341.039C202.056 341.039 198.55 340.491 198.426 340.859C198.426 340.859 200.22 343.002 201.703 343.633C200.31 343.144 199.07 342.297 198.107 341.178C198.015 342.082 198.191 342.994 198.613 343.799C198.613 343.799 197.102 343.106 197.677 340.651C197.677 340.651 196.354 338.917 196.347 338.571C196.347 338.571 195.432 340.914 195.654 342.558C195.654 342.558 194.546 340.838 196.111 338.023L195.238 335.942C195.238 335.942 193.853 338.973 193.957 340.45C193.957 340.45 193.097 338.522 195.065 335.395L194.511 333.238C193.784 334.547 193.232 335.946 192.869 337.399C192.869 337.399 192.453 335.429 194.372 332.586L194.171 331.095C194.171 331.095 193.201 332.954 192.973 333.515C192.744 334.077 192.571 334.056 192.571 334.056C192.731 332.744 193.254 331.502 194.081 330.471C194.081 330.471 193.853 327.364 193.666 327.364Z" fill="#6C63FF"/>
<path opacity="0.1" d="M171.259 180.634C171.259 180.634 165.619 196.195 177.266 197.617C177.801 197.879 178.405 197.966 178.992 197.865C179.579 197.764 180.119 197.481 180.536 197.055C180.536 197.055 179.719 196.785 180.474 195.266C180.735 194.724 180.933 194.154 181.063 193.567C181.24 192.776 181.155 191.948 180.82 191.209C180.82 191.209 180.301 186.209 173.531 182.319C173.531 182.319 172.326 180.564 171.903 180.495L172.256 183.512C172.256 183.512 174.453 183.165 175.839 184.358C175.839 184.358 172.374 183.422 172.284 183.962C172.284 184.066 172.541 185.55 172.541 185.55C172.541 185.55 176.365 184.968 178.458 186.882C178.458 186.882 174.453 185.204 172.638 186.112L173.178 188.317C173.178 188.317 177.19 187.506 179.656 189.593C179.656 189.593 175.409 187.985 173.33 188.796L174.155 190.876C174.155 190.876 178.084 190.183 180.121 191.916C180.121 191.916 175.028 190.53 174.377 191.348C174.732 192.155 175.183 192.917 175.721 193.615C175.721 193.615 178.555 193.172 179.649 194.309C179.649 194.309 176.15 193.761 176.026 194.122C176.026 194.122 177.813 196.271 179.296 196.896C177.905 196.401 176.665 195.552 175.7 194.434C175.608 195.341 175.784 196.254 176.206 197.062C176.206 197.062 174.695 196.369 175.277 193.907C175.277 193.907 173.947 192.18 173.94 191.826C173.94 191.826 173.033 194.163 173.247 195.814C173.247 195.814 172.132 194.087 173.705 191.279L172.825 189.198C172.825 189.198 171.439 192.229 171.543 193.713C171.543 193.713 170.684 191.778 172.651 188.65L172.097 186.494C171.372 187.803 170.82 189.202 170.455 190.654C170.455 190.654 170.046 188.692 171.959 185.842L171.765 184.358C171.765 184.358 170.788 186.216 170.559 186.771C170.33 187.326 170.157 187.319 170.157 187.319C170.317 186.006 170.84 184.765 171.668 183.734C171.668 183.734 171.453 180.634 171.259 180.634Z" fill="#6C63FF"/>
<path opacity="0.1" d="M213.136 265.375C213.136 265.375 217.494 281.325 227.832 275.777C228.419 275.684 228.962 275.407 229.383 274.986C229.803 274.565 230.08 274.021 230.174 273.433C230.174 273.433 229.356 273.683 229.1 272.012C229.002 271.419 228.834 270.839 228.601 270.285C228.294 269.532 227.745 268.903 227.042 268.496C227.042 268.496 223.737 264.71 215.956 265.431C215.956 265.431 213.96 264.703 213.572 264.89L215.595 267.144C215.595 267.144 217.196 265.597 219.018 265.757C219.018 265.757 215.63 267.005 215.88 267.483C215.935 267.581 217.002 268.635 217.002 268.635C217.002 268.635 219.774 265.951 222.6 266.305C222.6 266.305 218.367 267.248 217.411 269.037L219.122 270.528C219.122 270.528 221.935 267.553 225.15 267.83C225.15 267.83 220.75 268.967 219.517 270.826L221.402 272.067C221.402 272.067 224.173 269.217 226.875 269.474C226.875 269.474 221.928 271.298 221.852 272.324C222.609 272.779 223.419 273.14 224.263 273.399C224.263 273.399 226.342 271.402 227.859 271.686C227.859 271.686 224.679 273.26 224.79 273.628C224.79 273.628 227.492 274.321 229.051 273.988C227.632 274.391 226.131 274.415 224.7 274.058C225.146 274.851 225.816 275.495 226.626 275.909C226.626 275.909 224.991 276.207 224.049 273.87C224.049 273.87 221.97 273.225 221.748 272.934C221.748 272.934 222.358 275.375 223.48 276.596C223.48 276.596 221.582 275.826 221.242 272.622L219.323 271.422C219.323 271.422 219.954 274.689 220.868 275.847C220.868 275.847 219.053 274.765 218.859 271.076L217.168 269.633C217.333 271.13 217.692 272.598 218.235 274.002C218.235 274.002 216.773 272.615 216.697 269.203L215.679 268.101C215.679 268.101 215.956 270.181 216.087 270.771C216.219 271.36 216.087 271.464 216.087 271.464C215.463 270.299 215.175 268.983 215.256 267.664C215.256 267.664 213.295 265.271 213.136 265.375Z" fill="#6C63FF"/>
<path opacity="0.1" d="M331.368 279.619C331.368 279.619 335.726 295.569 346.057 290.021C346.646 289.93 347.191 289.654 347.613 289.232C348.036 288.811 348.313 288.266 348.406 287.677C348.406 287.677 347.581 287.927 347.325 286.29C347.233 285.696 347.068 285.116 346.833 284.563C346.521 283.811 345.971 283.183 345.267 282.774C345.267 282.774 341.962 278.988 334.181 279.716C334.181 279.716 332.186 278.981 331.805 279.168L333.821 281.422C333.821 281.422 335.421 279.876 337.244 280.035C337.244 280.035 333.856 281.283 334.112 281.762C334.16 281.859 335.234 282.913 335.234 282.913C335.234 282.913 338.006 280.229 340.833 280.583C340.833 280.583 336.592 281.526 335.636 283.315L337.355 284.806C337.355 284.806 340.126 281.831 343.376 282.109C343.376 282.109 338.983 283.246 337.75 285.104L339.634 286.346C339.634 286.346 342.406 283.495 345.101 283.752C345.101 283.752 340.154 285.576 340.085 286.602C340.839 287.058 341.646 287.419 342.489 287.677C342.489 287.677 344.567 285.68 346.085 285.964C346.085 285.964 342.911 287.538 343.015 287.906C343.015 287.906 345.718 288.599 347.284 288.266C345.862 288.669 344.359 288.693 342.925 288.336C343.373 289.128 344.043 289.771 344.852 290.187C344.852 290.187 343.216 290.486 342.274 288.149C342.274 288.149 340.195 287.504 339.981 287.212C339.981 287.212 340.583 289.653 341.706 290.874C341.706 290.874 339.807 290.104 339.468 286.9L337.549 285.687C337.549 285.687 338.179 288.953 339.101 290.111C339.101 290.111 337.285 289.029 337.091 285.34L335.394 283.898C335.558 285.395 335.919 286.864 336.468 288.266C336.468 288.266 334.999 286.88 334.923 283.468L333.904 282.365C333.904 282.365 334.181 284.445 334.313 285.035C334.445 285.624 334.313 285.728 334.313 285.728C333.689 284.563 333.401 283.248 333.481 281.928C333.481 281.928 331.528 279.515 331.368 279.619Z" fill="#6C63FF"/>
<path d="M287.011 439.796C287.011 439.796 322.957 427.681 315.516 384.755L269.855 372.89L259.254 408.111L287.011 439.796Z" fill="#CED7E7"/>
<path opacity="0.1" d="M259.254 408.111L287.004 439.796C287.004 439.796 322.95 427.681 315.509 384.755L259.254 408.111Z" fill="black"/>
<path d="M108.207 90.9897C108.207 90.9897 113.057 98.8883 119.688 94.9425C126.319 90.9967 119.958 80.0954 119.958 80.0954C119.958 80.0954 107.258 78.3548 108.207 90.9897Z" fill="#FED253"/>
<path opacity="0.1" d="M119.687 94.9423C118.905 95.4489 118.028 95.7901 117.109 95.9451C116.19 96.1001 115.25 96.0657 114.345 95.8439C111.913 95.2267 110.042 93.3543 109.038 92.1269C108.738 91.7673 108.46 91.3898 108.206 90.9965C107.867 86.489 109.266 83.8053 111.206 82.2242C113.874 80.0536 117.567 79.9635 119.161 80.0328C119.652 80.0328 119.937 80.1022 119.937 80.1022L120.068 80.3241C120.255 80.6778 120.664 81.4614 121.101 82.5085C122.583 85.9412 124.35 92.1615 119.687 94.9423Z" fill="black"/>
<path d="M290.544 382.737L315.488 384.755L361.911 385.137L325.334 430.212C325.334 430.212 313.728 430.843 311.338 432.48C308.947 434.116 275.384 433.242 275.384 433.242L269.966 410.136L290.544 382.737Z" fill="#FFA2A2"/>
<path opacity="0.05" d="M290.544 382.737L315.488 384.755L361.911 385.137L325.334 430.212C325.334 430.212 313.728 430.843 311.338 432.48C308.947 434.116 275.384 433.242 275.384 433.242L269.966 410.136L290.544 382.737Z" fill="black"/>
<path d="M265.317 261.547L271.116 271.395L272.377 288.565C272.377 288.565 276.416 303.204 279.444 307.496C282.472 311.789 283.733 323.155 283.733 323.155C283.733 323.155 284.994 333.758 286.505 336.026C288.015 338.293 290.038 354.749 290.038 354.749C290.038 354.749 303.411 381.51 315.516 384.79C315.516 384.79 255.478 404.484 287.011 439.83C287.011 439.83 264.561 445.378 259.261 439.074C253.96 432.771 240.089 339.347 240.089 339.347L244.378 260.57L265.317 261.547Z" fill="#CED7E7"/>
<path opacity="0.05" d="M265.317 261.547L271.116 271.395L272.377 288.565C272.377 288.565 276.416 303.204 279.444 307.496C282.472 311.789 283.733 323.155 283.733 323.155C283.733 323.155 284.994 333.758 286.505 336.026C288.015 338.293 290.038 354.749 290.038 354.749C290.038 354.749 303.411 381.51 315.516 384.79C315.516 384.79 255.478 404.484 287.011 439.83C287.011 439.83 264.561 445.378 259.261 439.074C253.96 432.771 240.089 339.347 240.089 339.347L244.378 260.57L265.317 261.547Z" fill="black"/>
<path d="M192.474 165.579C190.79 174.326 191.289 183.354 193.929 191.861L184.589 218.622C184.589 218.622 113.452 178.983 119.507 169.386C122.937 163.942 123.374 149.539 123.097 138.097C122.896 129.401 122.279 122.424 122.279 122.424C122.279 122.424 209.581 131.016 197.962 150.96C195.332 155.493 193.478 160.434 192.474 165.579Z" fill="#FFA2A2"/>
<path opacity="0.1" d="M197.962 150.96C195.333 155.493 193.478 160.434 192.475 165.579C179.519 169.727 165.527 169.256 152.879 164.246C140.231 159.236 129.707 149.995 123.097 138.097C122.896 129.401 122.279 122.424 122.279 122.424C122.279 122.424 209.561 131.016 197.962 150.96Z" fill="black"/>
<path d="M233.278 108.035C233.284 117.292 231.108 126.42 226.926 134.676C222.744 142.933 216.674 150.085 209.21 155.552C201.746 161.018 193.099 164.645 183.971 166.137C174.843 167.63 165.491 166.945 156.678 164.139C147.864 161.334 139.836 156.486 133.246 149.99C126.656 143.495 121.691 135.535 118.754 126.757C115.817 117.979 114.99 108.632 116.342 99.4742C117.694 90.3168 121.186 81.6078 126.534 74.0552C127.365 72.8855 128.24 71.7436 129.16 70.6295C134.397 64.2581 140.915 59.0602 148.29 55.3732C152.291 53.3698 156.511 51.8385 160.866 50.8102C168.728 48.946 176.89 48.7209 184.843 50.1491C192.796 51.5772 200.37 54.6279 207.095 59.1114C213.819 63.595 219.55 69.4155 223.931 76.2108C228.311 83.0061 231.248 90.6309 232.558 98.6108C233.047 101.728 233.288 104.879 233.278 108.035Z" fill="#FFA2A2"/>
<path d="M256.482 349.923C255.602 354.624 256.704 363.216 258.374 371.961C258.443 372.342 258.519 372.724 258.596 373.105C258.672 373.487 258.783 374.076 258.88 374.555C259.649 378.313 260.487 382.037 261.305 385.421C262.122 388.805 262.857 391.704 263.48 394.089C264.423 397.661 265.067 399.908 265.067 399.908C265.067 399.908 265.15 402.113 265.261 405.622C265.323 407.647 265.393 410.116 265.462 412.841C265.462 413.631 265.51 414.436 265.531 415.268C265.566 416.717 265.601 418.222 265.635 419.762C265.635 420.261 265.635 420.76 265.67 421.266C265.67 422.924 265.732 424.616 265.76 426.301C265.795 428.617 265.822 430.933 265.836 433.18C265.836 434.04 265.836 434.886 265.836 435.718C265.836 437.868 265.836 439.928 265.836 441.821C265.76 447.195 265.545 451.252 265.088 452.424C264.928 452.826 264.783 453.263 264.644 453.721C264.044 455.873 263.608 458.069 263.342 460.288L262.164 459.324C259.912 457.465 257.681 455.565 255.415 453.721C251.649 450.563 247.652 447.694 243.456 445.135C243.172 444.969 242.888 444.803 242.597 444.643C241.821 444.192 241.031 443.769 240.227 443.367C238.572 442.532 236.874 441.782 235.142 441.12C227.139 438.069 218.568 436.96 209.879 437.147C206.415 438.471 204.163 439.421 204.163 439.421L199.756 440.753L199.022 440.975C194.248 442.431 187.534 444.498 185.116 445.357C181.208 446.744 147.278 453.811 147.278 453.811C144.178 454.658 141.012 455.238 137.813 455.544C131.989 457.184 126.061 458.426 120.069 459.261C106.452 461.004 92.6218 459.889 79.4591 455.988C79.0662 456.012 78.672 456 78.2812 455.954C78.5237 455.954 78.7593 455.898 78.9741 455.856L78.1288 455.607L76.9717 455.246C75.0316 454.636 73.1077 453.968 71.2 453.242L70.0429 452.798C68.1952 452.086 66.3868 451.321 64.6177 450.503L63.4605 449.976C61.6129 449.116 59.8045 448.208 58.0353 447.251C57.3979 446.918 56.7674 446.557 56.1438 446.217C54.2591 445.163 52.4115 444.058 50.6007 442.903C50.2959 440.288 50.1365 438.541 50.1365 438.541L47.4343 425.074L47.2957 424.38L45.3557 414.672L45.2171 413.978L40.9975 392.855L40.8589 392.162L38.9188 382.453L38.7803 381.76L34.5052 360.651L34.3666 359.957L32.4266 350.249L32.288 349.555L28.0476 328.404L27.909 327.711L25.969 318.037L25.8304 317.344L25.0613 313.53L23.9042 307.753C23.9042 307.753 20.2111 302.469 16.0539 296.221L15.5897 295.527C14.4048 293.773 13.1854 291.949 12.0006 290.16C11.6056 289.57 11.2245 288.988 10.8434 288.412C10.2661 287.539 9.70713 286.686 9.16668 285.853L8.79253 285.278L8.71632 285.16C2.74371 275.909 6.74161 271.887 6.74161 271.887C6.74161 271.887 9.24983 268.489 12.4856 263.995C12.6449 263.767 12.8112 263.538 12.9844 263.302C14.3702 261.36 15.8945 259.238 17.3911 257.116L18.5482 255.466C18.9848 254.849 19.4143 254.231 19.8301 253.621C19.9964 253.392 20.1557 253.157 20.3082 252.928C23.5023 248.309 26.1353 244.28 26.6757 242.852C27.521 240.598 32.9116 233.934 38.2814 228.088C42.5149 223.469 46.7276 219.364 48.6191 218.379C52.908 216.112 54.6749 208.782 54.6749 208.782C54.6749 208.782 64.0079 205.509 65.269 202.984C66.53 200.46 84.1914 189.115 84.1914 189.115C84.1914 189.115 91.335 184.51 94.2243 181.737C94.6333 181.374 94.9901 180.956 95.2844 180.495C96.2891 178.692 102.851 177.208 105.518 176.674C106.211 176.536 106.641 176.459 106.641 176.459C107.718 174.501 109.079 172.713 110.68 171.154C111.768 170.19 113.126 166.869 114.269 163.651C115.509 160.142 116.473 156.765 116.473 156.765C118.496 149.948 122.528 151.966 122.528 151.966C122.523 152.897 122.611 153.827 122.792 154.74C124.475 163.062 133.621 166.529 138.423 170.419C143.723 174.705 152.045 185.821 158.606 188.089C164.039 189.968 170.337 197.055 172.332 199.42L172.485 199.6C172.817 199.989 172.984 200.21 172.984 200.21C172.984 200.21 176.704 200.016 178.97 199.975H179.795C180.256 199.928 180.693 199.75 181.056 199.462C183.308 197.929 186.661 193.435 188.123 192.402C189.883 191.133 191.657 170.683 191.657 170.683L191.747 170.641C198.031 167.694 204.773 197.194 204.773 197.194C204.773 197.194 216.628 200.731 217.64 203.255C217.834 203.754 218.727 204.642 220.072 205.717C226.192 210.398 232.706 214.54 239.541 218.095C239.694 218.171 239.839 218.247 239.992 218.31C240.129 218.384 240.27 218.451 240.414 218.511C240.671 218.636 240.92 218.747 241.156 218.851C241.53 219.017 241.876 219.156 242.195 219.267L242.611 219.413C243.604 219.743 244.539 220.228 245.382 220.848C245.632 221.028 245.881 221.216 246.124 221.417C247.067 222.203 247.935 223.076 248.715 224.024C248.833 224.163 248.944 224.308 249.055 224.447C249.581 225.106 250.052 225.758 250.44 226.361C251.077 227.292 251.658 228.26 252.18 229.26C252.18 229.26 262.517 246.936 265.802 248.947C269.086 250.958 271.102 271.422 271.102 271.422L260.016 312.552C260.016 312.552 259.496 322.954 258.526 333.564C257.986 339.514 257.3 345.568 256.482 349.923Z" fill="#CED7E7"/>
<path d="M172.984 201.458C172.984 201.458 165.55 205.494 159.743 205.876C158.983 205.911 158.221 205.867 157.471 205.744C151.387 204.822 142.463 199.815 142.463 199.815L152.932 188.324L165.667 194.642L170.351 199.004L172.984 201.458Z" fill="#63667E"/>
<path opacity="0.1" d="M232.53 98.6108C232.267 98.9837 231.967 99.3298 231.636 99.6441C227.992 103.111 221.52 101.676 216.552 100.872C212.235 100.165 208.018 98.9453 203.99 97.2378C200.484 95.7399 196.279 93.9091 193.126 96.0589C191.914 96.8772 191.082 98.1878 189.821 98.909C188.56 99.6302 186.953 99.6788 185.463 99.6996C180.613 99.6996 175.763 99.7551 171.03 98.6594C163.97 97.0089 156.667 92.8551 149.953 95.5943C144.701 97.7301 141.853 103.451 140.433 108.95C139.74 111.648 139.227 114.498 137.661 116.787C136.095 119.075 133.067 120.698 130.49 119.623C126.686 118.035 126.125 111.572 121.538 111.246C116.501 110.892 116.563 116.1 118.032 119.866C120.208 125.413 123.055 130.961 123.18 136.744C117.766 127.04 115.208 116 115.802 104.901C116.395 93.8022 120.116 83.0983 126.534 74.0275C127.65 73.3353 128.525 72.3126 129.035 71.1011C129.086 70.9372 129.128 70.7705 129.16 70.6018C129.541 68.667 128.467 66.6352 128.404 64.6102C128.162 59.6658 133.511 56.2193 138.416 55.5952C141.68 55.1791 145.02 55.4981 148.29 55.3941C149.937 55.3578 151.576 55.1391 153.175 54.7422C155.934 53.9148 158.517 52.5867 160.796 50.8241C168.659 48.9599 176.82 48.7349 184.773 50.163C192.727 51.5911 200.301 54.6418 207.025 59.1254C213.75 63.6089 219.481 69.4294 223.861 76.2247C228.242 83.02 231.178 90.6448 232.488 98.6247L232.53 98.6108Z" fill="black"/>
<path d="M233.715 94.5263C233.369 95.898 232.65 97.1465 231.636 98.1324C227.992 101.6 221.52 100.157 216.552 99.3529C212.235 98.6619 208.017 97.4511 203.99 95.7468C200.484 94.2559 196.279 92.4251 193.126 94.5749C191.914 95.3932 191.082 96.7038 189.821 97.425C188.56 98.1462 186.953 98.1948 185.463 98.2086C180.613 98.2433 175.763 98.271 171.03 97.1754C163.97 95.518 156.667 91.3711 149.953 94.1033C144.701 96.2392 141.853 101.967 140.433 107.466C139.74 110.164 139.227 113.014 137.661 115.296C136.095 117.577 133.067 119.214 130.49 118.139C126.686 116.551 126.125 110.088 121.538 109.762C116.501 109.408 116.563 114.616 118.032 118.382C120.61 124.949 124.115 131.481 122.965 138.444C121.822 138.444 119.931 138.402 118.808 138.374C119.681 136.883 118.018 135.108 116.362 134.602C114.706 134.095 112.773 134.102 111.512 132.896C110.251 131.689 110.244 129.824 110.376 128.152C110.663 124.58 111.536 121.08 112.96 117.792C113.868 115.712 115.039 113.458 114.346 111.28C113.93 110.293 113.429 109.344 112.849 108.444C111.408 105.67 111.748 102.203 112.981 99.339C113.508 98.1185 113.889 96.9673 114.325 95.8717C114.876 94.3142 115.674 92.8555 116.688 91.5514C118.275 89.575 119.827 86.6 118.074 84.7623C117.63 84.2977 118.517 83.9787 118.233 83.3754C118.183 83.2724 118.148 83.1626 118.129 83.0495C118.048 82.319 118.224 81.583 118.628 80.9691C118.71 80.8096 118.8 80.6545 118.898 80.5045C118.978 80.346 119.068 80.1931 119.168 80.0468C120.703 77.4829 122.742 75.2581 125.162 73.5074C126.665 72.4187 128.425 71.3715 129.021 69.6101C129.714 67.5297 128.494 65.3176 128.391 63.1193C128.148 58.1749 133.497 54.7284 138.403 54.1042C143.308 53.4801 148.394 54.5134 153.175 53.2443C159.958 51.4552 164.725 45.4637 170.885 42.1004C174.254 40.2971 177.991 39.2884 181.81 39.1514C185.629 39.0144 189.428 39.7526 192.918 41.3098C200.11 44.5968 205.536 51.2402 213.046 53.7367C215.707 54.6243 218.589 54.978 220.987 56.4482C223.758 58.1541 225.442 61.136 226.883 64.0763C229.079 68.5353 229.523 73.015 231.04 77.7375C232.246 81.4823 233.916 86.3781 234.054 90.6915C234.132 91.9795 234.018 93.272 233.715 94.5263Z" fill="#896363"/>
<g opacity="0.1">
<path opacity="0.1" d="M118.974 85.837C119.085 85.3931 119.096 84.9302 119.006 84.4816C118.916 84.0331 118.728 83.6101 118.454 83.2434C118.634 83.7843 117.851 84.0964 118.281 84.5471C118.623 84.9072 118.863 85.3527 118.974 85.837Z" fill="black"/>
<path opacity="0.1" d="M118.434 81.6555C118.352 81.8976 118.303 82.1494 118.288 82.4045C118.42 82.1825 118.6 81.9537 118.434 81.6555Z" fill="black"/>
<path opacity="0.1" d="M231.829 96.4401C228.178 99.9074 221.713 98.4719 216.732 97.6606C212.418 96.9654 208.204 95.7475 204.184 94.0338C200.671 92.5359 196.472 90.7051 193.312 92.8549C192.107 93.6732 191.275 94.9838 190.007 95.705C188.739 96.4262 187.139 96.4748 185.649 96.4886C180.799 96.4886 175.949 96.5511 171.21 95.4484C164.156 93.798 156.853 89.658 150.139 92.3833C144.887 94.5261 142.04 100.247 140.619 105.746C139.926 108.444 139.42 111.294 137.848 113.583C136.275 115.871 133.247 117.494 130.676 116.426C126.872 114.831 126.311 108.375 121.724 108.049C118.142 107.792 117.144 110.358 117.387 113.208C117.595 111.031 118.773 109.352 121.724 109.56C126.311 109.886 126.872 116.349 130.676 117.938C133.247 119.012 136.282 117.397 137.848 115.094C139.414 112.792 139.926 109.956 140.619 107.265C142.04 101.766 144.887 96.0379 150.139 93.902C156.853 91.1698 164.156 95.2889 171.21 96.9671C175.921 98.0697 180.813 98.0351 185.649 98.0004C187.139 98.0004 188.712 97.9588 190.007 97.2237C191.303 96.4886 192.086 95.1919 193.312 94.3666C196.472 92.2238 200.671 94.0546 204.184 95.5455C208.205 97.2584 212.418 98.4785 216.732 99.1793C221.713 99.9837 228.178 101.433 231.829 97.9518C233.811 96.0587 234.407 93.3195 234.275 90.3237C234.164 92.7023 233.472 94.859 231.829 96.4401Z" fill="black"/>
<path opacity="0.1" d="M128.633 61.864C128.595 62.2093 128.581 62.5569 128.591 62.9042C128.661 64.3466 129.208 65.789 129.381 67.1968C129.638 65.47 128.841 63.667 128.633 61.864Z" fill="black"/>
<path opacity="0.1" d="M114.553 111.065C114.61 111.273 114.654 111.484 114.685 111.696C114.797 110.981 114.752 110.25 114.553 109.554C114.14 108.563 113.639 107.612 113.057 106.71C112.536 105.685 112.227 104.564 112.149 103.417C112.008 105.074 112.322 106.738 113.057 108.229C113.641 109.127 114.142 110.076 114.553 111.065Z" fill="black"/>
<path opacity="0.1" d="M123.152 136.71L119.098 136.647C119.193 136.892 119.231 137.156 119.209 137.417C119.188 137.679 119.107 137.933 118.974 138.159C120.117 138.159 122.015 138.201 123.131 138.228C123.325 137.041 123.392 135.837 123.332 134.636C123.316 135.331 123.256 136.023 123.152 136.71Z" fill="black"/>
<path opacity="0.1" d="M116.521 132.875C114.865 132.376 112.939 132.369 111.706 131.155C110.98 130.36 110.57 129.326 110.555 128.25C110.452 129.844 110.555 131.564 111.706 132.674C112.939 133.887 114.865 133.894 116.521 134.394C117.06 134.55 117.561 134.816 117.993 135.174C118.426 135.531 118.781 135.974 119.036 136.474C119.736 135.039 118.129 133.353 116.521 132.875Z" fill="black"/>
</g>
<path opacity="0.1" d="M242.576 444.643C241.8 444.192 241.01 443.769 240.206 443.367C238.55 442.532 236.853 441.782 235.12 441.12C227.118 438.069 218.547 436.959 209.858 437.147C206.394 438.471 204.142 439.421 204.142 439.421L199.735 440.753L199.001 440.975C198.952 440.489 198.897 440.004 198.848 439.511C198.8 439.019 198.744 438.547 198.689 438.062C197.137 423.354 195.917 408.243 195.917 408.243V395.192V393.673L195.834 355.221L195.141 342.544L194.816 336.934L194.753 335.866L194.629 333.675L194.559 332.371C194.406 331.958 194.277 331.537 194.171 331.109C194.123 330.936 194.074 330.741 194.033 330.54C193.86 329.847 193.673 328.952 193.479 327.981C192.211 321.601 190.624 310.846 190.527 308.661C190.402 305.749 187.88 288.329 187.88 288.329C187.624 278.738 179.566 260.681 177.535 257.276C175.505 253.871 173.24 233.413 174.002 232.311C174.397 231.721 174.653 228.233 174.812 225.016C174.812 224.648 174.847 224.287 174.861 223.934C174.965 221.417 175.013 219.315 175.013 219.315L182.94 217.748L185.067 217.332L185.233 217.297L185.303 217.436C185.531 217.859 186.245 219.211 187.083 220.987C187.18 221.174 187.27 221.375 187.367 221.576C187.409 221.673 187.457 221.77 187.506 221.867C189.058 225.265 190.853 229.738 190.776 232.311C190.652 236.86 195.827 247.844 195.827 247.844C196.326 250.369 207.301 275.486 207.301 275.486C207.301 275.486 216.26 300.104 215.755 304.147C215.249 308.19 220.043 334.951 220.043 334.951L224.963 362.474C227.353 367.897 230.506 380.393 230.506 380.393L231.705 387.481L231.933 388.833L235.127 407.744L236.693 417.008C236.693 417.008 237.352 421.932 238.349 427.41C238.432 427.903 238.529 428.402 238.626 428.901C239.241 432.508 240.114 436.065 241.239 439.546C241.796 441.214 242.243 442.916 242.576 444.643Z" fill="black"/>
<path d="M243.435 445.135C243.151 444.969 242.867 444.802 242.576 444.643C241.8 444.192 241.01 443.769 240.207 443.367C238.551 442.532 236.853 441.782 235.121 441.12C227.118 438.069 218.547 436.959 209.859 437.147C206.394 438.471 204.142 439.421 204.142 439.421L199.736 440.753C199.68 440.267 199.632 439.782 199.576 439.289C199.521 438.797 199.479 438.402 199.438 437.958C197.886 423.284 196.666 408.243 196.666 408.243V395.067V393.548L196.583 355.193L195.89 343.085L195.752 340.575L195.655 338.876L195.53 336.629L195.405 334.347L195.315 332.704V332.343C195.315 332.309 195.315 332.267 195.267 332.225C195.135 331.851 194.976 331.282 194.802 330.561L194.719 330.214C194.684 330.055 194.643 329.881 194.608 329.708C193.306 323.793 191.393 311.04 191.289 308.647C191.165 305.735 188.643 288.315 188.643 288.315C188.386 278.724 180.328 260.667 178.298 257.262C176.268 253.857 174.009 233.4 174.764 232.297C175.201 231.604 175.457 227.394 175.623 223.92C175.623 223.643 175.623 223.372 175.623 223.115C175.714 220.973 175.748 219.301 175.748 219.301L183.12 217.845L184.991 217.478L185.282 217.422L185.975 217.283C185.975 217.283 186.883 218.962 187.971 221.271L188.109 221.562C189.696 224.988 191.573 229.648 191.518 232.297C191.393 236.846 196.569 247.831 196.569 247.831C197.068 250.355 208.043 275.472 208.043 275.472C208.043 275.472 217.002 300.09 216.496 304.133C215.99 308.176 220.785 334.937 220.785 334.937L225.705 362.46C228.095 367.883 231.248 380.38 231.248 380.38L232.363 386.981L232.592 388.32L235.107 403.243L237.428 416.994C237.428 416.994 238.121 421.897 239.077 427.396C239.167 427.896 239.257 428.395 239.354 428.901C239.968 432.524 240.841 436.097 241.966 439.595C242.581 441.406 243.071 443.257 243.435 445.135Z" fill="#63667E"/>
<path d="M237.186 88.9785C237.186 88.9785 234.539 92.3903 232.148 92.3903C229.758 92.3903 220.453 92.0089 215.603 90.4972C210.752 88.9854 186.973 87.8412 186.973 87.8412C186.973 87.8412 153.299 87.966 152.163 86.8287C151.026 85.6914 131.224 79.6306 129.208 80.012C128.785 80.0952 127.753 80.2755 126.374 80.5043L124.794 80.7609C122.404 81.1423 119.417 81.5861 116.687 81.9121C113.313 82.3073 110.348 82.5084 109.405 82.1617V79.2561C109.405 79.2561 113.313 73.5697 113.563 71.94C113.812 70.3104 117.096 46.684 125.674 38.2307C129.218 31.4507 134.953 26.0729 141.943 22.9744C153.548 17.9191 165.154 13.6335 165.154 13.6335L167.184 13.3422L173.732 12.3714C173.931 12.1731 174.147 11.9921 174.376 11.8305C176.192 10.4435 181.693 7.42696 188.864 13.9109L190.132 15.9358C190.132 15.9358 212.201 21.109 222.414 39.1599C232.627 57.2108 233.139 74.8873 233.895 82.9661C233.895 82.9661 233.389 85.2407 234.4 86.1214C234.767 86.4452 235.116 86.7878 235.447 87.1477C235.537 87.2379 235.627 87.328 235.71 87.4251C236.001 87.7164 236.271 88.0215 236.493 88.2711C236.519 88.2906 236.543 88.314 236.562 88.3405C236.616 88.4062 236.674 88.4687 236.735 88.5277L237.186 88.9785Z" fill="#FED253"/>
<path opacity="0.05" d="M237.186 88.9786C237.186 88.9786 234.539 92.3904 232.149 92.3904C229.758 92.3904 220.453 92.009 215.603 90.4973C210.753 88.9855 186.973 87.8413 186.973 87.8413C186.973 87.8413 153.299 87.9661 152.163 86.8289C151.027 85.6916 131.224 79.6307 129.208 80.0121C128.785 80.0953 127.753 80.2756 126.374 80.5045L126.014 78.2854L125.924 77.7375C125.924 77.7375 164.143 69.5338 189.62 73.8333C215.097 78.1328 233.895 82.9177 233.895 82.9177C233.895 82.9177 233.389 85.1923 234.401 86.073C234.767 86.3968 235.116 86.7393 235.447 87.0993C235.537 87.1895 235.627 87.2796 235.71 87.3767C236.001 87.6679 236.271 87.9731 236.493 88.2227C236.52 88.2422 236.543 88.2656 236.562 88.2921C236.617 88.3576 236.675 88.4201 236.736 88.4793L237.186 88.9786Z" fill="black"/>
<path opacity="0.1" d="M233.715 94.5263C228.996 94.8938 220.3 93.7426 216.497 93.1809C215.416 93.0214 214.356 92.8273 213.289 92.5915C209.208 91.7038 196.659 89.2143 189.038 90.3655C179.83 91.7524 153.847 89.2282 153.847 89.2282C153.847 89.2282 137.827 85.9481 131.39 83.2991C129.028 82.3213 125.078 82.0161 121.15 82.5016C120.148 82.6266 119.153 82.8049 118.17 83.0355C112.807 84.3046 108.283 87.1963 109.066 92.1269C108.766 91.7673 108.489 91.3898 108.234 90.9965C107.895 86.489 109.295 83.8053 111.235 82.2242L111.692 82.0369C114.062 81.3629 116.474 80.8464 118.912 80.4905C119.293 80.4281 119.688 80.3726 120.09 80.3241C126.984 79.3948 136.954 79.1868 145.366 83.4239C145.366 83.4239 153.181 87.0923 158.482 87.0923C163.782 87.0923 206.914 87.4737 217.009 90.3724C219.019 90.9535 221.068 91.3869 223.141 91.6692C226.822 92.1441 230.562 91.7911 234.089 90.6359C234.161 91.9442 234.035 93.2558 233.715 94.5263Z" fill="black"/>
<path opacity="0.1" d="M237.186 88.9785C237.186 88.9785 234.539 92.3903 232.148 92.3903C229.758 92.3903 220.453 92.0089 215.603 90.4971C210.752 88.9854 186.973 87.8412 186.973 87.8412C186.973 87.8412 153.299 87.966 152.163 86.8287C151.026 85.6914 131.224 79.6305 129.208 80.0119C128.785 80.0952 127.753 80.2755 126.374 80.5043L124.794 80.7609C122.05 80.7468 119.319 81.1347 116.687 81.912C113.313 82.3073 110.348 82.5084 109.405 82.1617V81.5861C110.132 81.1641 110.889 80.7979 111.671 80.4904C116.347 79.18 121.161 78.4305 126.014 78.2575C132.062 78.0356 139.137 78.7429 145.352 81.8774C145.352 81.8774 153.167 85.5458 158.468 85.5458C163.768 85.5458 206.9 85.9203 216.995 88.8259C219.006 89.4016 221.055 89.8326 223.127 90.1157C227.674 90.6892 232.291 90.0256 236.493 88.1948C236.519 88.2143 236.543 88.2377 236.562 88.2642C236.616 88.3298 236.674 88.3923 236.735 88.4514L237.186 88.9785Z" fill="black"/>
<path d="M109.163 92.0089C109.163 92.0089 100.71 85.5666 111.685 81.2741C111.685 81.2741 130.857 75.345 145.366 82.661C145.366 82.661 153.181 86.3156 158.482 86.3156C163.782 86.3156 206.914 86.697 217.009 89.6026C219.02 90.179 221.069 90.6101 223.141 90.8924C228.512 91.5442 233.952 90.5095 238.71 87.9313C239.403 87.5499 240.026 87.3558 240.213 87.5777C240.844 88.3405 240.345 92.7579 234.795 93.6386C230.465 94.332 220.626 93.0214 216.489 92.4181C215.415 92.2586 214.348 92.0575 213.288 91.8286C209.207 90.941 196.659 88.4514 189.003 89.6026C179.802 90.9895 153.812 88.4653 153.812 88.4653C153.812 88.4653 137.799 85.1852 131.362 82.5293C124.926 79.8733 106.765 82.1617 109.163 92.0089Z" fill="#FED253"/>
<path opacity="0.1" d="M180.425 24.3197C179.732 23.3211 170.829 16.1854 167.198 13.3006L173.746 12.3297C173.945 12.1314 174.161 11.9505 174.39 11.7888C179.15 16.7887 180.425 24.3197 180.425 24.3197Z" fill="black"/>
<path opacity="0.1" d="M151.546 62.5921L148.643 66.8847L159.742 66.5102L159.992 61.7114L151.546 62.5921Z" fill="black"/>
<path opacity="0.1" d="M219.275 67.7725L220.536 71.6836L227.604 72.8209L224.576 68.1469L219.275 67.7725Z" fill="black"/>
<path opacity="0.1" d="M97.9385 199.073C98.6937 200.335 123.54 233.053 130.102 232.144C136.663 231.236 97.9385 199.073 97.9385 199.073Z" fill="black"/>
<path opacity="0.1" d="M181.188 228.975C181.188 228.975 187.243 234.787 186.356 237.054C185.469 239.322 181.188 228.975 181.188 228.975Z" fill="black"/>
<path opacity="0.1" d="M115.094 268.87C115.094 268.87 109.794 293.738 112.572 294.529C115.351 295.319 115.094 268.87 115.094 268.87Z" fill="black"/>
<path opacity="0.1" d="M183.204 365.442C184.084 367.967 191.401 384.381 193.043 385.262C194.685 386.142 183.204 365.442 183.204 365.442Z" fill="black"/>
<path opacity="0.1" d="M268.219 298.031C267.963 298.911 261.658 304.091 263.043 305.985C264.429 307.878 268.219 298.031 268.219 298.031Z" fill="black"/>
<path opacity="0.1" d="M219.275 344.104C219.151 344.742 217.889 357.974 220.287 360.519C222.684 363.064 219.275 344.104 219.275 344.104Z" fill="black"/>
<path opacity="0.1" d="M283.906 412.841C282.077 413.86 280.185 414.845 278.259 415.788C276.181 416.8 274.102 417.764 271.982 418.673C271.136 419.04 270.291 419.401 269.453 419.748C268.178 420.275 266.917 420.781 265.67 421.266C261.88 422.75 258.228 424.04 254.979 425.129C253.718 425.552 252.512 425.94 251.389 426.301C245.736 428.097 241.98 429.075 241.98 429.075C241.122 428.891 240.244 428.819 239.368 428.86C239.126 428.86 238.876 428.86 238.62 428.86C237.446 428.945 236.278 429.093 235.121 429.304C227.381 430.691 216.448 434.581 209.858 437.126C206.394 438.45 204.142 439.4 204.142 439.4L199.735 440.732L199.001 440.954C194.227 442.41 187.513 444.477 185.095 445.337C181.187 446.723 147.257 453.79 147.257 453.79C144.157 454.637 140.991 455.217 137.792 455.524C129.911 456.247 121.988 456.428 114.082 456.064C106.142 456.578 93.2957 454.83 85.8195 453.651L84.6278 453.464C81.7385 452.992 79.9023 452.653 79.9023 452.653L80.8724 451.314L100.765 423.846L100.883 423.68L119.417 398.098L120.11 397.168L121.794 394.845C121.794 394.845 122.805 393.458 126.699 393.368C127.157 393.368 127.655 393.368 128.203 393.368C131.474 393.631 134.701 394.29 137.813 395.331L138.714 395.601C152.135 399.45 172.88 398.486 172.88 398.486C172.88 398.486 185.788 396.406 195.932 395.157L196.687 395.06C200.002 394.592 203.339 394.302 206.685 394.193C212.866 394.318 226.238 391.038 226.238 391.038C229.113 390.421 230.326 389.901 231.947 388.743C232.162 388.59 232.391 388.424 232.64 388.243C233.333 387.723 234.13 387.085 235.155 386.295C237.026 384.859 239.652 382.911 243.782 380.178C244.142 379.943 244.523 379.707 244.932 379.485C245.341 379.263 245.86 378.965 246.359 378.715C250.358 376.82 254.575 375.422 258.914 374.554C262.514 373.78 266.166 373.277 269.841 373.05H270.388C280.781 372.495 291.396 374.277 297.604 380.123C298.69 381.15 299.636 382.316 300.417 383.59C300.797 384.196 301.135 384.826 301.429 385.477C301.995 386.718 302.416 388.021 302.683 389.36C302.734 389.61 302.776 389.859 302.808 390.109C302.808 390.185 302.808 390.255 302.808 390.331C302.808 390.532 302.85 390.733 302.863 390.934C303.418 399.235 294.812 406.738 283.906 412.841Z" fill="black"/>
<path d="M79.9023 451.162C79.9023 451.162 102.352 455.322 114.082 454.566C114.082 454.566 135.651 455.704 147.257 452.299C147.257 452.299 181.208 445.225 185.095 443.839C188.982 442.452 204.142 437.902 204.142 437.902C204.142 437.902 233.659 425.531 241.98 427.549C241.98 427.549 307.319 410.635 302.649 387.786C297.979 364.936 256.739 370.116 243.754 378.694C230.769 387.273 232.668 388.167 226.224 389.554C226.224 389.554 212.852 392.834 206.671 392.709C200.491 392.584 172.866 397.002 172.866 397.002C172.866 397.002 151.172 398.014 137.806 393.847C124.441 389.679 121.787 393.34 121.787 393.34L79.9023 451.162Z" fill="#FFA2A2"/>
<path opacity="0.1" d="M128.584 391.856C128.587 391.884 128.587 391.912 128.584 391.94C128.536 392.455 128.402 392.959 128.189 393.431C125.528 399.963 110.424 417.584 110.424 417.584C109.735 419.677 108.904 421.721 107.936 423.7C105.855 427.932 103.458 432 100.765 435.871C96.7735 441.661 92.4156 447.19 87.7181 452.424H87.6834C87.0857 452.868 86.4634 453.277 85.8196 453.651C84.1913 454.622 81.7455 455.822 79.4382 455.967C79.0453 455.991 78.6511 455.979 78.2603 455.933C78.5028 455.933 78.7384 455.877 78.9532 455.836L78.1078 455.586L76.9507 455.225C75.0107 454.615 73.0868 453.947 71.1791 453.221L70.022 452.777C68.1743 452.065 66.3659 451.3 64.5967 450.482L63.4396 449.955C61.592 449.095 59.7836 448.187 58.0144 447.23C57.377 446.897 56.7464 446.536 56.1229 446.196C54.2382 445.142 52.3906 444.037 50.5798 442.882C48.6583 441.657 46.7783 440.378 44.9398 439.047C43.5541 436.474 42.4108 434.193 41.7872 432.965C40.6509 430.684 40.5539 427.417 40.6925 425.053C40.6925 424.81 40.6925 424.581 40.7341 424.359C40.8518 422.875 41.032 421.856 41.032 421.856C40.0053 420.482 39.0791 419.036 38.2605 417.529C37.7902 416.78 37.5227 415.922 37.4845 415.039C37.5158 414.685 37.4829 414.328 37.3875 413.985C36.8539 411.794 34.5605 408.028 32.4403 405.663C30.8605 403.923 30.7635 397.418 30.916 392.807C31.0061 390.033 31.1793 387.994 31.1793 387.994C30.8688 387.793 30.6364 387.492 30.521 387.141C29.9639 385.623 29.5872 384.045 29.3986 382.439C29.3986 382.21 29.3362 381.982 29.3016 381.746C28.8581 378.563 28.6572 375.366 28.6572 375.366C23.5299 371.628 21.091 365.796 19.9547 360.595L19.8092 359.902C19.1851 356.705 18.9202 353.449 19.0193 350.193C19.0193 349.881 19.0193 349.645 19.0193 349.5C19.0193 349.354 19.0193 349.326 19.0193 349.326C19.0193 349.326 19.6983 334.299 21.5968 328.432C21.673 328.182 21.7561 327.954 21.8393 327.739C21.9792 327.37 22.1605 327.019 22.3797 326.692C23.0726 325.769 23.5646 324.029 23.9733 321.969C24.2574 320.54 24.493 318.952 24.6662 317.371C24.8256 316.054 24.9503 314.743 25.0473 313.53C25.3175 310.284 25.4007 307.753 25.4007 307.753L24.1189 301.429C23.7655 299.702 23.4953 297.961 23.3082 296.221C23.3082 295.992 23.2528 295.763 23.225 295.527C22.901 292.313 22.843 289.077 23.0518 285.853C23.0518 285.618 23.0518 285.389 23.0934 285.16C23.6344 277.817 25.5525 270.642 28.7473 264.009L29.0937 263.316C29.5556 262.391 30.0406 261.483 30.5488 260.59C30.916 259.932 31.304 259.28 31.7059 258.635C32.7712 256.908 33.9276 255.239 35.1702 253.635C35.3504 253.399 35.5375 253.17 35.7245 252.942C37.8866 250.259 40.2893 247.78 42.9028 245.535C49.9008 239.516 56.3238 236.902 62.1578 236.701C87.6696 235.799 101.977 280.958 104.292 288.87C104.513 289.633 104.624 290.049 104.624 290.049C104.624 290.049 114.962 300.402 111.934 304.944C111.347 305.944 110.99 307.062 110.888 308.218C110.056 314.327 112.44 324.389 112.44 324.389C112.44 324.389 113.285 327.163 115.752 333.806L116.479 335.748C118.025 339.909 118.385 346.892 117.498 353.147C116.646 359.139 114.643 364.437 111.435 365.796C104.874 368.57 106.641 371.344 108.151 373.625C109.049 375.261 109.798 376.974 110.389 378.743C111.338 381.302 112.218 383.993 112.551 385.04C112.648 385.331 112.696 385.49 112.696 385.49C113.615 385.134 114.57 384.879 115.544 384.728C116.784 384.554 118.011 384.679 118.246 385.74C118.371 386.309 119.085 386.981 120.089 387.654C123.069 389.707 128.584 391.856 128.584 391.856Z" fill="black"/>
<path d="M127.074 391.856C127.031 392.384 126.898 392.9 126.679 393.382C124.032 399.921 108.913 417.584 108.913 417.584C108.222 419.676 107.391 421.719 106.426 423.7C104.754 427.117 102.863 430.423 100.765 433.596C96.4217 440.154 91.6098 446.388 86.3672 452.25L86.2078 452.424C86.2078 452.424 85.5981 452.888 84.628 453.485C82.8948 454.592 80.9849 455.394 78.9811 455.856L78.1358 455.607L76.9787 455.246C75.0386 454.636 73.1147 453.968 71.207 453.242L70.0499 452.798C68.2022 452.086 66.3938 451.321 64.6247 450.503L63.4676 449.976C61.6199 449.116 59.8115 448.207 58.0423 447.25C57.4049 446.918 56.7744 446.557 56.1508 446.217C54.2662 445.163 52.4185 444.058 50.6078 442.902C48.6862 441.677 46.8062 440.399 44.9677 439.067C44.1178 438.457 43.2771 437.831 42.4457 437.188C41.5103 435.413 40.762 433.915 40.2977 432.986C39.1614 430.704 39.0644 427.438 39.203 425.073C39.203 424.831 39.203 424.602 39.2446 424.38C39.3624 422.896 39.5425 421.876 39.5425 421.876C39.5425 421.876 38.9813 421.121 38.3023 420.094C37.9212 419.526 37.5124 418.867 37.1452 418.215C36.4523 416.994 35.9118 415.76 36.0158 415.06C36.0298 414.94 36.0298 414.819 36.0158 414.699C36.0054 414.465 35.9705 414.233 35.9118 414.006C35.3783 411.814 33.078 408.049 30.9578 405.684C29.378 403.943 29.281 397.439 29.4265 392.827C29.4265 392.591 29.4265 392.363 29.4265 392.134C29.5235 389.741 29.669 388.015 29.669 388.015C28.8861 387.675 28.2833 385.158 27.8952 382.467L27.7913 381.773C27.3479 378.59 27.1469 375.394 27.1469 375.394C22.0196 371.656 19.5807 365.824 18.4513 360.623C17.6645 356.98 17.3617 353.249 17.5506 349.527C17.5506 349.416 17.5506 349.354 17.5506 349.354C17.5506 349.354 18.1465 334.25 20.0449 328.377C20.1212 328.127 20.2043 327.898 20.2875 327.683C20.4537 327.323 20.6606 326.983 20.9041 326.671C21.9573 325.2 22.6571 321.664 23.1144 318.044L23.1975 317.35C23.7726 312.496 23.932 307.732 23.932 307.732L22.6432 301.408C22.2922 299.674 22.022 297.938 21.8326 296.2C21.7979 295.971 21.7771 295.735 21.7494 295.506C21.4254 292.292 21.3675 289.056 21.5762 285.832C21.5762 285.597 21.5762 285.368 21.6247 285.139C22.1624 277.795 24.0806 270.62 27.2786 263.988C27.3894 263.753 27.5003 263.524 27.625 263.295C28.5159 261.494 29.5059 259.744 30.5905 258.052C30.9647 257.463 31.3458 256.88 31.7476 256.305C32.3782 255.389 33.0364 254.488 33.7223 253.614L34.2766 252.921C36.4202 250.248 38.8019 247.776 41.3925 245.535C49.0141 238.996 55.9429 236.472 62.1788 236.7C86.7413 237.581 100.53 281.117 102.795 288.87C103.017 289.633 103.128 290.049 103.128 290.049C103.128 290.049 113.473 300.402 110.445 304.944C109.858 305.944 109.5 307.062 109.398 308.218C108.56 314.327 110.95 324.389 110.95 324.389C110.95 324.389 111.796 327.163 114.262 333.806C114.484 334.424 114.727 335.069 114.955 335.748C116.5 339.909 116.861 346.892 115.974 353.147C115.122 359.146 113.126 364.437 109.911 365.796C103.357 368.57 105.116 371.344 106.634 373.625C107.531 375.261 108.28 376.973 108.872 378.743C110.07 382.009 111.172 385.49 111.172 385.49C111.626 385.315 112.088 385.165 112.558 385.04C113.522 384.722 114.543 384.616 115.551 384.728C115.83 384.749 116.095 384.859 116.308 385.041C116.521 385.223 116.671 385.468 116.736 385.74C116.923 386.572 118.357 387.605 120.096 388.583C122.355 389.813 124.685 390.906 127.074 391.856Z" fill="#CED7E7"/>
<path opacity="0.1" d="M35.877 325.173C38.2743 325.048 64.0078 315.076 69.3083 318.481C74.6088 321.886 107.417 343.98 107.417 343.98C107.417 343.98 86.8589 317.094 68.948 310.783C51.0371 304.473 35.877 325.173 35.877 325.173Z" fill="black"/>
<path opacity="0.1" d="M72.8701 365.824C72.8701 365.824 98.6036 370.997 102.511 374.534L72.8701 365.824Z" fill="black"/>
<path opacity="0.1" d="M67.9156 404.339C67.5414 404.72 58.2153 425.67 58.9636 425.67C59.7119 425.67 67.6662 413.187 67.6662 413.187L67.9156 404.339Z" fill="black"/>
<path opacity="0.1" d="M85.4528 379.201C85.4528 379.201 77.8866 381.857 78.7665 382.106C79.6465 382.356 85.1964 380.338 85.4528 379.201Z" fill="black"/>
<path opacity="0.1" d="M77.8867 410.892C79.1478 413.541 83.1803 421.495 84.0672 420.233C84.9541 418.971 77.8867 410.892 77.8867 410.892Z" fill="black"/>
<path opacity="0.1" d="M172.339 200.925L171.258 202.464C171.258 202.464 162.674 196.41 159.147 193.38C155.62 190.349 147.292 204.232 140.73 208.019C134.169 211.805 123.076 212.818 123.076 212.818C123.076 212.818 114.498 204.232 114.761 201.722C115.024 199.212 110.729 198.442 110.472 196.674C110.216 194.905 108.705 189.857 106.689 187.333C105.622 186.001 105.47 181.834 105.567 178.207C106.26 178.068 106.689 177.992 106.689 177.992C107.766 176.033 109.127 174.245 110.729 172.687C113.001 170.669 116.528 158.297 116.528 158.297C118.544 151.481 122.577 153.499 122.577 153.499C122.577 163.852 133.178 167.638 138.471 171.931C143.765 176.223 152.093 187.333 158.655 189.607C164.039 191.445 170.337 198.553 172.339 200.925Z" fill="black"/>
<path d="M172.34 199.406L171.259 200.952C171.259 200.952 162.639 194.912 159.113 191.861C155.586 188.81 147.258 202.714 140.696 206.5C134.134 210.286 123.042 211.306 123.042 211.306C123.042 211.306 114.464 202.714 114.727 200.21C114.99 197.707 110.694 196.93 110.438 195.155C110.182 193.38 108.671 188.338 106.655 185.814C105.588 184.483 105.435 180.315 105.532 176.688L106.655 176.48C107.732 174.521 109.093 172.734 110.694 171.175C112.967 169.15 116.494 156.786 116.494 156.786C118.51 149.969 122.543 151.98 122.543 151.98C122.543 162.333 133.144 166.126 138.437 170.419C143.731 174.712 152.059 185.814 158.621 188.089C164.039 189.954 170.337 197.034 172.34 199.406Z" fill="#CED7E7"/>
<path opacity="0.1" d="M172.984 201.459C172.984 201.459 165.55 205.495 159.743 205.876C158.983 205.912 158.222 205.867 157.471 205.744C157.471 205.744 163.88 200.952 169.832 199.975L172.984 201.459Z" fill="black"/>
<path opacity="0.1" d="M188.123 222.034C188.123 222.034 178.749 218.379 175.651 223.878C175.755 221.354 175.797 219.26 175.797 219.26L186.017 217.235C186.017 217.235 187.001 219.059 188.151 221.514C188.123 221.839 188.123 222.034 188.123 222.034Z" fill="black"/>
<path d="M157.471 205.744C157.471 205.744 168.702 198.997 174.1 199.566C179.761 200.155 190.729 200.571 190.729 200.571C190.729 200.571 186.946 209.156 187.451 210.924C187.957 212.693 188.082 221.278 188.082 221.278C188.082 221.278 176.733 216.861 174.841 225.064C174.841 225.064 168.661 215.848 164.496 213.067C161.733 211.069 159.353 208.589 157.471 205.744Z" fill="#63667E"/>
<path opacity="0.1" d="M220.917 213.58C217.64 213.58 206.034 206.25 203.512 201.459C200.99 196.667 197.456 201.958 194.179 203.733C192.101 204.87 183.862 202.492 179.421 200.765C181.673 199.233 186.661 194.919 188.123 193.886C189.883 192.617 191.657 172.167 191.657 172.167C197.962 168.886 204.773 198.678 204.773 198.678C204.773 198.678 216.635 202.214 217.64 204.739C217.834 205.238 218.728 206.126 220.072 207.2C221.458 210.695 222.22 213.58 220.917 213.58Z" fill="black"/>
<path d="M220.917 212.062C217.64 212.062 206.034 204.739 203.512 199.947C200.99 195.155 197.456 200.446 194.179 202.214C192.1 203.352 185.497 201.153 181.056 199.441C183.308 197.915 186.661 193.421 188.123 192.381C189.883 191.119 191.657 170.669 191.657 170.669C197.962 167.389 204.773 197.18 204.773 197.18C204.773 197.18 216.635 200.717 217.64 203.241C217.834 203.74 218.727 204.628 220.072 205.703C221.457 209.177 222.22 212.062 220.917 212.062Z" fill="#CED7E7"/>
<path d="M265.739 433.256L375.428 341.719C376.523 340.794 377.917 340.3 379.35 340.332L420.271 341.407C420.271 341.407 423.105 343.487 418.948 348.036L315.474 433.021C314.355 433.935 312.968 434.457 311.524 434.505L266.778 435.989C266.457 435.999 266.14 435.908 265.873 435.73C265.605 435.551 265.4 435.294 265.286 434.993C265.171 434.692 265.153 434.364 265.235 434.052C265.316 433.741 265.492 433.463 265.739 433.256Z" fill="#6C63FF"/>
<path d="M318.8 421.994C318.8 421.994 342.76 456.335 369.38 424.394C396 392.453 388.302 375.671 380.23 374.783C372.158 373.896 326.74 408.867 318.8 421.994Z" fill="#FFA2A2"/>
<path opacity="0.1" d="M480.399 37.9119C480.399 37.9119 511.281 -22.0729 547.782 8.86262C547.782 8.86262 555.75 11.7682 555.147 20.2008C555.147 20.2008 552.077 18.5157 549.639 24.9579C548.743 27.2439 547.58 29.4156 546.174 31.428C544.306 34.1465 541.607 36.1855 538.483 37.2392C538.483 37.2392 522.104 49.5205 491.763 40.0478C491.763 40.0478 483.185 41.2821 481.799 40.2142L491.77 32.9189C491.77 32.9189 496.834 40.443 504.241 41.3029C504.241 41.3029 491.77 33.4668 493.197 31.7678C493.488 31.421 498.657 28.141 498.657 28.141C498.657 28.141 507.519 41.185 519.007 42.149C519.007 42.149 502.911 34.8052 500.604 26.8927L508.69 22.3783C508.69 22.3783 517.378 36.629 530.425 38.2239C530.425 38.2239 513.865 29.9648 510.526 21.5114L519.083 18.1689C519.083 18.1689 527.834 31.8995 538.691 33.1547C538.691 33.1547 520.524 21.6779 521.092 17.5309C521.092 17.5309 529.136 14.9374 531.603 15.2772C531.603 15.2772 538.109 24.9857 544.484 25.1591C544.484 25.1591 533.155 16.1995 533.903 14.8195C533.903 14.8195 545.28 14.23 551.225 16.9831C551.225 16.9831 542.772 12.2745 533.903 13.0373C533.903 13.0373 537.915 8.31478 543.146 7.27458C543.146 7.27458 536.876 4.6949 531.146 13.2107C531.146 13.2107 522.298 14.022 521.203 15.0067C521.203 15.0067 525.679 5.7975 531.187 1.87943C531.187 1.87943 522.977 3.32877 518.91 15.8111L510.235 18.9803C510.235 18.9803 515.507 6.49791 520.157 2.64224C520.157 2.64224 512.008 5.4161 508.114 19.9789L500.133 24.32C500.133 24.32 503.853 13.2245 508.101 7.80856C508.101 7.80856 501.096 12.011 497.888 25.6445L492.899 29.1604C492.899 29.1604 495.761 21.1023 496.793 18.8624C497.825 16.6225 497.306 16.1579 497.306 16.1579C493.838 20.2612 491.576 25.2474 490.772 30.5611C490.772 30.5611 480.975 38.4667 480.399 37.9119Z" fill="#6C63FF"/>
<path opacity="0.1" d="M608.117 69.9914C608.117 69.9914 622.072 42.8839 638.562 56.8641C638.562 56.8641 642.165 58.1748 641.888 61.9819C641.888 61.9819 640.502 61.226 639.401 64.1386C639.001 65.1702 638.48 66.1503 637.849 67.0581C637.005 68.2834 635.791 69.2049 634.384 69.6863C634.384 69.6863 626.977 75.234 613.265 70.9553C613.265 70.9553 609.392 71.5101 608.768 71.0316L613.272 67.7307C613.272 67.7307 615.559 71.1356 618.912 71.517C618.912 71.517 613.286 67.9804 613.924 67.2106C614.048 67.0581 616.383 65.574 616.383 65.574C616.383 65.574 620.388 71.4685 625.585 71.9054C625.585 71.9054 618.309 68.5837 617.27 64.9707L620.928 62.9389C620.928 62.9389 624.85 69.3812 630.747 70.1024C630.747 70.1024 623.263 66.3715 621.739 62.5505L625.605 61.0388C625.605 61.0388 629.555 67.2453 634.46 67.8139C634.46 67.8139 626.25 62.6268 626.513 60.7545C626.513 60.7545 630.144 59.5825 631.259 59.7351C631.259 59.7351 634.197 64.1247 637.079 64.194C637.079 64.194 631.959 60.1511 632.299 59.527C632.299 59.527 637.44 59.2635 640.114 60.5048C640.114 60.5048 636.297 58.3759 632.299 58.7226C633.401 57.4672 634.846 56.5611 636.456 56.1152C636.456 56.1152 633.622 54.9502 631.031 58.7989C631.031 58.7989 627.033 59.1664 626.541 59.6102C626.541 59.6102 628.564 55.4494 631.051 53.6811C631.051 53.6811 627.338 54.333 625.508 59.9778L621.628 61.4341C621.628 61.4341 624.005 55.7962 626.111 54.0486C626.111 54.0486 622.425 55.3038 620.665 61.8779L617.062 63.8334C617.062 63.8334 618.739 58.8128 620.658 56.3718C620.658 56.3718 617.492 58.2718 616.051 64.4298L613.792 66.0179C613.792 66.0179 615.088 62.3772 615.552 61.3647C616.016 60.3522 615.78 60.1442 615.78 60.1442C614.213 62.0048 613.192 64.2635 612.829 66.6697C612.829 66.6697 608.36 70.2411 608.117 69.9914Z" fill="#6C63FF"/>
<path opacity="0.1" d="M456.911 101.53C456.911 101.53 470.866 74.4227 487.398 88.4029C487.398 88.4029 490.994 89.7136 490.724 93.5276C490.724 93.5276 489.338 92.7648 488.236 95.6774C487.834 96.7079 487.314 97.6877 486.684 98.5969C485.832 99.8282 484.604 100.75 483.185 101.225C483.185 101.225 475.785 106.773 462.073 102.494C462.073 102.494 458.2 103.056 457.576 102.57L462.08 99.2695C462.08 99.2695 464.366 102.674 467.713 103.063C467.713 103.063 462.087 99.5192 462.724 98.7494C462.856 98.5969 465.191 97.1129 465.191 97.1129C465.191 97.1129 469.196 103.007 474.385 103.444C474.385 103.444 467.117 100.122 466.071 96.5095L469.729 94.4846C469.729 94.4846 473.658 100.92 479.554 101.641C479.554 101.641 472.071 97.9103 470.547 94.0893L474.413 92.5776C474.413 92.5776 478.37 98.7841 483.275 99.3527C483.275 99.3527 475.065 94.1656 475.321 92.2933C475.321 92.2933 478.958 91.1213 480.074 91.2739C480.074 91.2739 483.012 95.6635 485.894 95.7398C485.894 95.7398 480.774 91.69 481.113 91.0658C481.113 91.0658 486.248 90.8023 488.929 92.0436C488.929 92.0436 485.104 89.9147 481.106 90.2614C482.209 89.006 483.654 88.0999 485.264 87.654C485.264 87.654 482.437 86.489 479.845 90.3377C479.845 90.3377 475.847 90.7052 475.356 91.149C475.356 91.149 477.372 86.9883 479.866 85.2199C479.866 85.2199 476.152 85.8718 474.323 91.5166L470.394 92.9729C470.394 92.9729 472.778 87.335 474.877 85.5944C474.877 85.5944 471.198 86.8426 469.438 93.4167L465.828 95.3723C465.828 95.3723 467.512 90.3516 469.431 87.9106C469.431 87.9106 466.265 89.8107 464.817 95.9686L462.558 97.5567C462.558 97.5567 463.854 93.916 464.318 92.9035C464.782 91.8911 464.554 91.683 464.554 91.683C462.983 93.5417 461.961 95.8012 461.602 98.2085C461.602 98.2085 457.154 101.78 456.911 101.53Z" fill="#6C63FF"/>
</g>
<defs>
<clipPath id="clip0">
<rect width="743" height="541" fill="white"/>
</clipPath>
</defs>
</svg>
