<svg width="947" height="620" viewBox="0 0 947 620" fill="none" xmlns="http://www.w3.org/2000/svg">
<g clip-path="url(#clip0)">
<path d="M180.301 112.146V51.5385H158.782L152.178 17.1824H161.159V0H112.254V17.1824H121.236L114.632 51.5385H93.1123V113.583H93.6395V137.923H229.216V112.146H180.301Z" fill="url(#paint0_linear)"/>
<path d="M161.16 64.2122H114.795L124.879 11.7273H151.085L161.16 64.2122Z" fill="#2E157E"/>
<path d="M241.591 524.78H80.5557V598.844H241.591V524.78Z" fill="url(#paint1_linear)"/>
<path d="M233.751 524.78H88.5889V589.93H233.751V524.78Z" fill="#6C63FF"/>
<path d="M212.355 134.336H110.75V524.78H212.355V134.336Z" stroke="url(#paint2_linear)" stroke-width="5" stroke-miterlimit="10"/>
<path d="M207.534 134.336H115.802V524.78H207.534V134.336Z" stroke="#2E157E" stroke-width="5" stroke-miterlimit="10"/>
<path d="M207.534 264.636H115.802L207.036 198.582" stroke="#FED253" stroke-width="5" stroke-linejoin="round"/>
<path d="M115.802 330.233H207.534L116.31 264.636" stroke="#FED253" stroke-width="5" stroke-linejoin="round"/>
<path d="M207.534 395.839H115.802L207.036 329.786" stroke="#FED253" stroke-width="5" stroke-linejoin="round"/>
<path d="M115.801 461.437H207.533L115.293 395.839" stroke="#FED253" stroke-width="5" stroke-linejoin="round"/>
<path d="M116.31 134.336L207.534 199.03H115.802" stroke="#FED253" stroke-width="5" stroke-linecap="round" stroke-linejoin="round"/>
<path d="M116.31 524.324L207.036 460.99" stroke="#FED253" stroke-width="5" stroke-miterlimit="10"/>
<path d="M225.688 109.908H97.1572V134.335H225.688V109.908Z" fill="#2E157E"/>
<path d="M179.314 52.4504H96.6494V111.268H179.314V52.4504Z" fill="#2E157E"/>
<path d="M179.315 52.4504H151.086V75.974H179.315V52.4504Z" fill="#2E157E"/>
<path d="M95.1355 94.5244H2.39648V131.625H95.1355V94.5244Z" stroke="#2E157E" stroke-width="5" stroke-miterlimit="10"/>
<path d="M598.159 94.5244H226.188V131.625H598.159V94.5244Z" stroke="#2E157E" stroke-width="5" stroke-miterlimit="10"/>
<path d="M48.7705 94.5244V131.617L95.1352 94.5244" stroke="#FED253" stroke-width="5" stroke-linejoin="round"/>
<path d="M412.173 131.617V94.5244L375.375 131.617" stroke="#FED253" stroke-width="5" stroke-linejoin="round"/>
<path d="M375.375 94.9719V131.169L334.043 95.4279" stroke="#FED253" stroke-width="5" stroke-linejoin="round"/>
<path d="M333.543 132.529V94.5244L291.703 131.617" stroke="#FED253" stroke-width="5" stroke-linejoin="round"/>
<path d="M249.873 133.432V96.3314L291.704 131.169V95.884" stroke="#FED253" stroke-width="5" stroke-linejoin="round"/>
<path d="M461.059 94.9718V131.169L412.672 94.5244" stroke="#FED253" stroke-width="5" stroke-linejoin="round"/>
<path d="M509.954 132.529V95.428L461.059 131.617" stroke="#FED253" stroke-width="5" stroke-linejoin="round"/>
<path d="M558.839 95.884V131.169L510.452 95.428" stroke="#FED253" stroke-width="5" stroke-linejoin="round"/>
<path d="M532.508 147.99C547.069 147.99 558.868 141.675 558.868 133.879H506.148C506.148 141.675 517.948 147.99 532.508 147.99Z" fill="url(#paint3_linear)"/>
<path d="M533.132 144.747C545.938 144.747 556.319 139.885 556.319 133.888H509.944C509.944 139.885 520.325 144.747 533.132 144.747Z" fill="#2E157E"/>
<path d="M161.169 3.58789H114.795V19.8754H161.169V3.58789Z" fill="#2E157E"/>
<path d="M2.39648 94.5244L48.7708 131.617" stroke="#FED253" stroke-width="5" stroke-linejoin="round"/>
<path d="M117.815 11.7273L2.39648 98.0865" stroke="url(#paint4_linear)" stroke-width="3" stroke-linejoin="round"/>
<path d="M117.815 11.7273L2.39648 94.5244" stroke="#2E157E" stroke-width="3" stroke-linejoin="round"/>
<path d="M157.134 11.7273L354.709 98.0865" stroke="url(#paint5_linear)" stroke-width="3" stroke-linejoin="round"/>
<path d="M157.134 11.7273L354.709 94.5244" stroke="#2E157E" stroke-width="3" stroke-miterlimit="10"/>
<path d="M598.159 93.6211L558.84 131.617" stroke="#FED253" stroke-width="5" stroke-linejoin="round"/>
<path d="M154.613 11.28L598.16 98.0866" stroke="url(#paint6_linear)" stroke-width="3" stroke-linejoin="round"/>
<path d="M154.613 11.28L598.16 93.6211" stroke="#2E157E" stroke-width="3" stroke-linejoin="round"/>
<path d="M546.752 204.201C546.752 206.707 545.924 209.158 544.373 211.242C542.821 213.326 540.616 214.951 538.036 215.91C535.456 216.869 532.617 217.12 529.878 216.631C527.14 216.142 524.624 214.935 522.649 213.163C520.674 211.39 519.33 209.132 518.785 206.673C518.24 204.215 518.52 201.667 519.588 199.351C520.657 197.035 522.467 195.056 524.789 193.663C527.111 192.27 529.84 191.527 532.633 191.527V135.945" stroke="url(#paint7_linear)" stroke-width="3" stroke-linecap="round" stroke-linejoin="round"/>
<path d="M545.737 202.205C545.737 204.531 544.968 206.805 543.529 208.739C542.089 210.673 540.042 212.181 537.648 213.071C535.254 213.961 532.619 214.194 530.077 213.74C527.535 213.287 525.201 212.166 523.368 210.521C521.536 208.877 520.288 206.781 519.782 204.499C519.276 202.218 519.536 199.853 520.528 197.704C521.519 195.554 523.199 193.717 525.354 192.425C527.509 191.133 530.042 190.443 532.634 190.443V138.887" stroke="#2E157E" stroke-width="3" stroke-linecap="round" stroke-linejoin="round"/>
<path d="M233.751 524.78H88.5889V589.93H233.751V524.78Z" fill="#2E157E"/>
<path opacity="0.2" d="M846 292.797H377.465V603H846V292.797Z" fill="#FED253"/>
<path d="M340.637 253.278V270.211V588.838H810.831V270.211V253.278H340.637Z" fill="url(#paint8_linear)"/>
<path d="M805.847 274.16H347.28V582.875H805.847V274.16Z" fill="white"/>
<path d="M805.847 257.752H347.28V274.16H805.847V257.752Z" fill="#2E157E"/>
<path d="M360.575 269.678C363.021 269.678 365.003 267.898 365.003 265.703C365.003 263.507 363.021 261.728 360.575 261.728C358.129 261.728 356.146 263.507 356.146 265.703C356.146 267.898 358.129 269.678 360.575 269.678Z" fill="#FF5252"/>
<path d="M372.758 269.678C375.203 269.678 377.186 267.898 377.186 265.703C377.186 263.507 375.203 261.728 372.758 261.728C370.312 261.728 368.329 263.507 368.329 265.703C368.329 267.898 370.312 269.678 372.758 269.678Z" fill="#FFFF00"/>
<path d="M384.941 269.678C387.387 269.678 389.37 267.898 389.37 265.703C389.37 263.507 387.387 261.728 384.941 261.728C382.495 261.728 380.513 263.507 380.513 265.703C380.513 267.898 382.495 269.678 384.941 269.678Z" fill="#69F0AE"/>
<path d="M498.816 258.708L533.084 212.564L567.362 258.708" stroke="#FED253" stroke-width="3" stroke-linecap="round" stroke-linejoin="round"/>
<path d="M498.471 255.24C493.928 255.24 493.928 261.573 498.471 261.573C503.015 261.573 503.024 255.24 498.471 255.24Z" fill="#64FFDA"/>
<path d="M567.016 255.24C562.473 255.24 562.473 261.573 567.016 261.573C571.56 261.573 571.569 255.24 567.016 255.24Z" fill="#64FFDA"/>
</g>
<g clip-path="url(#clip1)">
<path d="M591.439 614.45C591.046 614.092 590.637 613.703 590.349 613.397C589.791 612.825 589.401 612.127 589.218 611.373H589.507L589.643 610.798C591.813 601.407 591.314 591.651 588.198 582.494C585.081 573.337 579.454 565.097 571.872 558.588C571.905 558.546 571.932 558.501 571.952 558.453C575.906 547.37 576.152 535.43 572.658 524.214C576.205 520.027 579.384 515.581 582.164 510.919C591.968 503.935 602.148 493.829 605.282 480.698C605.638 479.274 605.905 477.833 606.083 476.381C606.885 475.634 608.023 474.013 606.821 471.063C606.722 470.823 606.604 470.591 606.468 470.368C606.428 470.301 606.38 470.233 606.332 470.174C606.246 470.042 606.152 469.915 606.051 469.793L605.867 469.599C605.773 469.502 605.674 469.41 605.57 469.322L605.362 469.158L605.041 468.949L604.817 468.822L604.472 468.665L604.256 468.575L603.871 468.456L603.679 468.403C603.497 468.359 603.315 468.324 603.134 468.299C601.911 468.167 600.673 468.282 599.502 468.635C599.502 468.635 596.617 473.296 597.747 475.074C596.873 476.104 594.541 478.86 591.334 482.401C591.366 479.434 591.046 476.473 590.381 473.572C590.076 472.138 589.682 470.722 589.202 469.33C589.627 468.344 589.924 466.432 587.519 464.206C587.324 464.025 587.115 463.857 586.894 463.705L586.685 463.578C586.548 463.492 586.407 463.412 586.26 463.339L586.012 463.235C585.884 463.182 585.747 463.13 585.619 463.093L585.363 463.026L584.978 462.951H584.721H584.337H584.096L583.687 462.988H583.487C583.3 463.018 583.118 463.058 582.942 463.108C581.77 463.458 580.693 464.039 579.784 464.811C579.784 464.811 579.223 470.166 581.034 471.354C580.193 474.424 575.952 490.005 570.341 502.702C568.462 504.217 566.489 505.629 564.434 506.93V505.78C564.446 505.568 564.446 505.356 564.434 505.145C564.41 504.942 564.375 504.74 564.33 504.54L564.434 504.488L564.867 504.264L565.492 503.905L565.893 503.666C566.192 503.472 566.48 503.27 566.758 503.061L567.087 502.8C567.287 502.643 567.472 502.478 567.664 502.314L567.937 501.955C568.166 501.736 568.388 501.507 568.602 501.268L568.834 501.007C569.037 500.773 569.23 500.524 569.412 500.26L569.644 499.939C569.81 499.7 569.967 499.451 570.117 499.192L570.261 498.953C570.446 498.632 570.614 498.303 570.774 497.967L570.902 497.668C571.02 497.399 571.127 497.123 571.223 496.839C571.223 496.742 571.295 496.645 571.327 496.548C571.447 496.189 571.552 495.801 571.632 495.442C571.632 495.368 571.632 495.293 571.672 495.218C571.736 494.899 571.789 494.578 571.832 494.255C571.832 494.143 571.832 494.038 571.832 493.926C571.832 493.53 571.896 493.134 571.896 492.723C571.897 490.468 571.273 488.25 570.085 486.285L570.75 486.121L571.239 485.979C571.423 485.919 571.512 485.867 571.488 485.829C571.143 485.396 570.79 484.985 570.429 484.582L570.077 484.208C569.828 483.94 569.572 483.678 569.275 483.462L568.866 483.073C568.61 482.842 568.353 482.61 568.065 482.393L567.664 482.057C567.343 481.796 567.023 481.557 566.694 481.31L566.486 481.154C566.093 480.885 565.684 480.631 565.307 480.407L564.859 480.153C564.602 480.003 564.338 479.861 564.057 479.727L563.536 479.473L562.807 479.144L562.269 478.92C562.013 478.823 561.748 478.726 561.468 478.644L560.979 478.48C560.586 478.36 560.177 478.255 559.801 478.158L559.191 478.031L558.542 477.904L557.885 477.807L557.284 477.74L556.61 477.688H556.025H555.352C554.978 477.688 554.606 477.705 554.238 477.74C545.517 478.405 537.886 485.501 537.886 496.772V506.138H551.512V510.381C549.063 511.435 546.988 513.12 545.533 515.238C544.079 517.356 543.305 519.817 543.304 522.332V558.461L531.866 607.982H531.81V608.116L529.565 617.438L546.567 619.97C546.761 619.9 546.922 619.767 547.021 619.596C547.119 619.425 547.149 619.226 547.104 619.036C547.072 618.78 547.005 618.529 546.903 618.289C546.631 617.674 546.307 617.079 545.933 616.512C545.332 615.548 544.619 614.518 544.138 613.584C543.889 613.109 543.704 612.607 543.585 612.09C543.527 611.824 543.49 611.554 543.473 611.283L555.985 572.966H555.929L556.226 572.062C556.226 572.062 572.193 578.441 576.265 591.191C579.591 601.528 577.523 608.228 576.626 610.394H576.57V610.521C576.393 610.932 576.265 611.164 576.265 611.164H576.57V618.177H593.827C595.142 617.557 593.138 615.996 591.439 614.45Z" fill="url(#paint9_linear)"/>
<path d="M562.904 538.816C562.904 538.816 592.674 509.649 582.943 481.617L575.135 483.111C575.135 483.111 564.659 524.192 553.493 530.085C542.327 535.978 562.904 538.816 562.904 538.816Z" fill="#6C63FF"/>
<path opacity="0.05" d="M562.904 538.816C562.904 538.816 592.674 509.649 582.943 481.617L575.135 483.111C575.135 483.111 564.659 524.192 553.493 530.085C542.327 535.978 562.904 538.816 562.904 538.816Z" fill="black"/>
<path opacity="0.2" d="M581.756 482.267L583.055 482.02C592.754 510.052 563.015 539.22 563.015 539.22L562.102 539.078C565.532 535.567 590.806 508.409 581.756 482.267Z" fill="white"/>
<path d="M582.59 482.349C582.59 482.349 584.754 479.839 581.363 476.694C577.973 473.55 573.821 477.277 573.821 477.277C573.821 477.277 573.228 482.857 575.223 483.738C577.219 484.619 582.59 482.349 582.59 482.349Z" fill="#985454"/>
<path opacity="0.2" d="M581.716 482.535C581.716 482.535 583.881 480.026 580.49 476.881C580.035 476.424 579.47 476.075 578.841 475.861C578.213 475.646 577.539 475.574 576.875 475.649C577.653 475.41 578.489 475.384 579.283 475.573C580.077 475.762 580.796 476.159 581.356 476.717C584.746 479.861 582.582 482.371 582.582 482.371C580.984 483.037 579.312 483.538 577.596 483.865C579.007 483.529 580.385 483.084 581.716 482.535Z" fill="white"/>
<g opacity="0.2">
<path opacity="0.2" d="M271.54 449.268L271.613 449.043C271.613 449.043 270.722 448.923 271.54 449.268Z" fill="url(#paint10_linear)"/>
</g>
<g opacity="0.2">
<path opacity="0.2" d="M354.255 462.981C354.171 462.725 354.066 462.475 353.942 462.234C353.942 462.159 353.854 462.092 353.814 462.017C353.734 461.874 353.646 461.734 353.55 461.599C353.494 461.524 353.429 461.457 353.373 461.382C353.283 461.273 353.186 461.169 353.085 461.069L352.876 460.882C352.772 460.792 352.668 460.71 352.556 460.636L352.331 460.486L351.979 460.292L351.754 460.18L351.353 460.023L351.153 459.948C350.961 459.889 350.771 459.839 350.584 459.799C349.306 459.573 347.991 459.606 346.728 459.896C346.728 459.896 343.049 464.953 344.468 466.768L344.003 466.633C344.003 466.633 316.677 495.017 301.263 500.32C300.868 500.071 300.459 499.837 300.037 499.618V494.307C300.049 494.086 300.049 493.864 300.037 493.642C300.011 493.429 299.974 493.217 299.925 493.007L300.037 492.948L300.494 492.709L301.159 492.335L301.584 492.081C301.899 491.877 302.206 491.663 302.506 491.439L302.85 491.162C303.059 490.998 303.259 490.826 303.459 490.647L303.812 490.326C304.058 490.092 304.293 489.843 304.518 489.579L304.766 489.295C304.98 489.051 305.183 488.802 305.375 488.548L305.624 488.205C305.8 487.956 305.968 487.707 306.129 487.458L306.281 487.204C306.473 486.868 306.658 486.517 306.818 486.158L306.954 485.844C307.077 485.555 307.192 485.264 307.299 484.97C307.299 484.866 307.371 484.769 307.411 484.664C307.539 484.283 307.644 483.917 307.732 483.499C307.732 483.424 307.732 483.342 307.78 483.26C307.849 482.926 307.906 482.588 307.948 482.244C307.948 482.132 307.948 482.013 307.948 481.901C307.988 481.482 308.02 481.057 308.02 480.631C308.025 477.447 306.853 474.358 304.702 471.884C305.872 470.181 306.634 469.18 306.634 469.18C305.928 468.732 305.239 468.314 304.55 467.926L303.884 467.56C303.427 467.306 302.962 467.052 302.514 466.813L301.712 466.432C301.303 466.23 300.91 466.036 300.486 465.849L299.684 465.513C299.291 465.349 298.883 465.184 298.522 465.042L297.72 464.759C297.335 464.617 296.919 464.49 296.566 464.37L295.845 464.146C295.452 464.027 295.043 463.929 294.666 463.832L294.025 463.668C293.584 463.571 293.151 463.481 292.718 463.407L292.254 463.317C291.668 463.22 291.083 463.145 290.506 463.093C286.929 462.739 283.314 463.253 280.014 464.587C280.19 460.673 280.895 457.454 282.37 455.459L282.009 455.347L281.881 455.459C281.881 455.459 281.448 455.549 280.783 455.661C280.57 455.98 280.38 456.312 280.214 456.654C280.509 455.272 281.077 453.952 281.889 452.763L281.529 452.651C282.05 452.158 283.933 449.999 281.4 446.474C278.507 442.433 273.2 445.577 273.2 445.577C272.789 446.909 272.52 448.275 272.399 449.656C271.99 449.506 271.709 449.387 271.517 449.297C268.976 457.648 267.591 466.268 267.397 474.947C257.842 487.592 253.882 506.258 253.113 510.284L253.057 510.605C253.001 510.896 252.977 511.053 252.977 511.053L277.825 511.591C277.825 511.673 277.825 511.748 277.825 511.83V548.489L259.694 584.118C259.694 584.118 266.547 584.349 276.968 585.611L274.106 604.673L273.152 610.021H290.37C292.286 606.458 282.715 604.673 282.715 604.673H282.498L286.234 586.889C287.885 587.148 289.582 587.431 291.324 587.74C293.881 588.2 296.472 588.472 299.075 588.554C301.23 588.625 303.387 588.537 305.528 588.293C306.786 597.936 305.135 603.695 304.814 604.681H304.71L303.756 610.029H320.974C322.641 606.921 315.579 605.166 313.76 604.8L313.84 604.277C314.727 598.262 314.956 592.178 314.521 586.119C316.736 585.28 318.801 584.131 320.645 582.713L320.886 582.519L320.958 582.452L308.133 548.937C310.537 539.451 302.185 529.517 306.642 524.505C311.098 519.493 308.365 513.167 307.876 512.084C319.9 507.184 344.259 494.905 351.089 473.64C351.59 472.144 351.997 470.623 352.307 469.083C352.307 469.083 355.754 467.634 354.255 462.981Z" fill="url(#paint11_linear)"/>
</g>
<path d="M274.274 455.497C274.274 455.497 261.216 493.866 283.091 515.109L289.416 510.627C289.416 510.627 276.478 468.747 283.716 458.91C270.955 454.899 274.274 455.497 274.274 455.497Z" fill="#FF5252"/>
<path d="M283.299 458.88C283.299 458.88 285.952 456.819 283.299 453.106C280.646 449.394 275.78 452.285 275.78 452.285C275.78 452.285 274.009 457.64 275.78 458.88C277.552 460.12 283.299 458.88 283.299 458.88Z" fill="#F6B9AD"/>
<path d="M293.599 508.349H294.665C297.791 508.349 300.324 505.988 300.324 503.076V496.518C300.324 493.605 297.791 491.244 294.665 491.244H293.599C290.474 491.244 287.94 493.605 287.94 496.518V503.076C287.94 505.988 290.474 508.349 293.599 508.349Z" fill="#F6B9AD"/>
<path opacity="0.2" d="M288.55 513.07C288.55 513.07 275.773 471.705 282.73 461.532C283.348 461.427 283.74 461.345 283.74 461.345L283.853 461.24L284.181 461.345C276.967 471.182 289.88 513.062 289.88 513.062L283.556 517.544L283.003 516.991L288.55 513.07Z" fill="white"/>
<path d="M293.912 497.22C301.487 497.22 307.627 491.498 307.627 484.44C307.627 477.382 301.487 471.66 293.912 471.66C286.338 471.66 280.197 477.382 280.197 484.44C280.197 491.498 286.338 497.22 293.912 497.22Z" fill="#F6B9AD"/>
<path opacity="0.2" d="M298.778 502.576V497.011C298.776 496.604 298.728 496.198 298.634 495.801C301.307 494.517 303.453 492.449 304.742 489.917C306.03 487.384 306.39 484.527 305.765 481.786C305.14 479.044 303.565 476.57 301.283 474.745C299 472.919 296.138 471.843 293.135 471.683H293.936C297.003 471.693 299.977 472.661 302.384 474.432C304.79 476.203 306.491 478.674 307.214 481.451C307.936 484.228 307.639 487.15 306.37 489.751C305.101 492.353 302.933 494.483 300.213 495.801C300.307 496.198 300.355 496.604 300.357 497.011V502.576C300.364 503.396 300.181 504.208 299.822 504.957C299.463 505.706 298.935 506.374 298.274 506.917C297.614 507.459 296.836 507.863 295.994 508.101C295.151 508.339 294.264 508.406 293.391 508.297C294.88 508.111 296.245 507.429 297.236 506.377C298.226 505.325 298.774 503.975 298.778 502.576Z" fill="white"/>
<path d="M279.98 548.123C279.98 548.123 306.432 550.909 307.41 548.123C310.568 539.108 302.104 529.398 306.352 524.647C310.745 519.74 307.41 513.092 307.41 513.092C307.41 511.414 307.055 509.752 306.366 508.202C305.677 506.651 304.667 505.242 303.393 504.055C302.12 502.869 300.608 501.927 298.944 501.285C297.28 500.643 295.496 500.312 293.695 500.312C291.894 500.312 290.111 500.643 288.447 501.285C286.783 501.927 285.271 502.869 283.997 504.055C282.724 505.242 281.714 506.651 281.024 508.202C280.335 509.752 279.98 511.414 279.98 513.092V548.123Z" fill="#FF5252"/>
<path opacity="0.2" d="M306.384 524.647C310.777 519.74 307.442 513.092 307.442 513.092C307.442 511.414 307.088 509.752 306.398 508.202C305.709 506.651 304.699 505.242 303.425 504.055C302.152 502.869 300.64 501.927 298.976 501.285C297.312 500.643 295.528 500.312 293.727 500.312C293.431 500.312 293.142 500.312 292.846 500.357C296.32 500.564 299.579 501.996 301.961 504.361C304.343 506.726 305.67 509.848 305.671 513.092C305.671 513.092 309.005 519.74 304.613 524.647C300.356 529.405 308.821 539.115 305.671 548.123C305.366 548.982 302.641 549.311 299.018 549.356C303.491 549.4 307.082 549.117 307.426 548.123C310.633 539.108 302.136 529.398 306.384 524.647Z" fill="white"/>
<path d="M301.815 547.309C311.49 560.066 315.739 579.33 312.981 597.868L312.901 598.421H304.637C304.637 598.421 307.194 591.415 304.637 579.046C303.065 571.639 298.612 565.034 292.132 560.5L284.181 598.421H276.51L284.181 547.309H301.815Z" fill="#F6B9AD"/>
<path d="M348.307 473.796C348.307 473.796 351.513 472.549 350.119 468.276C348.724 464.004 343.185 465.438 343.185 465.438C343.185 465.438 339.81 470.077 341.109 471.742C342.407 473.408 348.307 473.796 348.307 473.796Z" fill="#F6B9AD"/>
<path d="M301.367 515.146C301.367 515.146 342.456 502.74 348.307 473.796L340.692 471.623C340.692 471.623 310.449 503.083 297.656 503.307C284.863 503.532 301.367 515.146 301.367 515.146Z" fill="#FF5252"/>
<path opacity="0.2" d="M346.88 473.826L348.146 474.192C342.327 503.143 301.23 515.55 301.23 515.55L300.501 515.019C305.334 513.436 341.453 500.828 346.88 473.826Z" fill="white"/>
<g opacity="0.2">
<path opacity="0.2" d="M290.378 560.492L282.418 598.414H284.181L291.909 561.598C291.419 561.205 290.908 560.836 290.378 560.492Z" fill="white"/>
<path opacity="0.2" d="M301.816 547.309H300.061C309.736 560.066 313.984 579.33 311.226 597.868L311.146 598.421H312.902L312.982 597.868C315.723 579.33 311.435 560.059 301.816 547.309Z" fill="white"/>
</g>
<path opacity="0.2" d="M347.433 473.572C347.433 473.572 350.639 472.325 349.245 468.053C349.08 467.448 348.763 466.889 348.322 466.42C347.88 465.951 347.326 465.587 346.704 465.356C347.51 465.492 348.257 465.84 348.858 466.359C349.458 466.878 349.887 467.546 350.094 468.284C351.465 472.557 348.283 473.804 348.283 473.804C346.537 473.679 344.812 473.376 343.137 472.9C344.546 473.235 345.983 473.46 347.433 473.572Z" fill="white"/>
<path d="M279.98 546.727L263.34 579.449C273.067 579.901 282.747 580.994 292.309 582.721C310.745 585.993 319.522 577.814 319.522 577.814L307.635 546.734L279.98 546.727Z" fill="#263238"/>
<path d="M284.405 598.264C284.405 598.264 293.222 599.9 291.427 603.172H275.628L276.51 598.264H284.405Z" fill="#FF5252"/>
<path d="M312.493 598.264C312.493 598.264 321.31 599.9 319.515 603.172H303.716L304.598 598.264H312.493Z" fill="#FF5252"/>
<path d="M306.353 473.931C306.353 473.931 285.279 501.739 294.938 513.159L257.192 512.338C257.192 512.338 267.725 449.394 306.353 473.931Z" fill="#FCCC63"/>
<path opacity="0.2" d="M306.353 473.931C300.91 470.473 296.028 468.755 291.652 468.351C295.335 469.431 298.816 471.038 301.968 473.117C301.968 473.117 280.903 500.925 290.554 512.383L257.328 511.636C257.24 512.099 257.2 512.383 257.2 512.383L294.946 513.204C285.279 501.739 306.353 473.931 306.353 473.931Z" fill="white"/>
<path opacity="0.2" d="M307.626 546.727H305.021L316.909 577.806C316.909 577.806 311.233 583.08 299.442 583.46C313.021 583.864 319.538 577.806 319.538 577.806L307.626 546.727Z" fill="white"/>
<path opacity="0.2" d="M284.406 598.264H282.65C282.65 598.264 291.468 599.9 289.672 603.172H291.396C293.183 599.9 284.406 598.264 284.406 598.264Z" fill="white"/>
<path opacity="0.2" d="M312.493 598.264H310.737C310.737 598.264 319.555 599.9 317.759 603.172H319.514C321.27 599.9 312.493 598.264 312.493 598.264Z" fill="white"/>
<g opacity="0.2">
<path opacity="0.2" d="M913.999 459.59L914.079 459.77C914.721 459.38 913.999 459.59 913.999 459.59Z" fill="url(#paint12_linear)"/>
</g>
<g opacity="0.2">
<path opacity="0.2" d="M797.108 597.222L811.031 593.487L808.073 585.659L808.033 585.547H807.985L792.467 543.592L788.459 512.184C788.409 511.785 788.336 511.389 788.242 510.996C800.915 490.77 788.242 462.618 787.112 460.168C786.968 460.258 786.743 460.377 786.423 460.542C786.172 459.417 785.802 458.318 785.316 457.263C785.316 457.263 780.627 455.156 778.671 458.756C776.964 461.886 778.728 463.492 779.217 463.85L778.936 463.977C779.727 464.882 780.33 465.915 780.715 467.025C780.541 466.764 780.348 466.515 780.138 466.278C779.577 466.278 779.209 466.211 779.209 466.211L779.096 466.129L778.816 466.256C780.587 468.145 781.573 471.693 782.022 476.033C781.422 475.418 780.765 474.853 780.058 474.345C776.991 472.197 773.178 471.185 769.357 471.506L768.66 471.581C768.264 471.631 767.874 471.698 767.49 471.783L767.201 471.843L766.712 471.962L766.151 472.126L765.75 472.253L765.061 472.507L764.804 472.612C764.524 472.731 764.243 472.858 764.003 472.993C763.102 473.532 762.143 473.98 761.141 474.33C761.005 474.367 760.861 474.39 760.724 474.419C759.568 474.625 758.371 474.445 757.342 473.912L756.997 473.717C756.864 473.636 756.736 473.549 756.612 473.456C756.541 473.754 756.541 474.062 756.612 474.36C756.767 475.068 757.217 475.691 757.863 476.093C758.042 476.208 758.236 476.303 758.44 476.376C758.744 476.485 759.069 476.533 759.394 476.518C759.504 476.514 759.614 476.501 759.722 476.481L759.642 476.526C759.45 476.638 759.257 476.742 759.057 476.832H759.017C758.801 476.929 758.584 477.019 758.368 477.101C757.258 477.497 756.063 477.645 754.881 477.534L754.496 477.489C754.304 477.489 754.111 477.437 753.927 477.392C754.001 477.508 754.081 477.62 754.167 477.728L754.256 477.825L754.44 478.035L754.544 478.139L754.745 478.326L754.857 478.423L755.097 478.602L755.193 478.669L755.546 478.886L755.666 478.946L755.923 479.073L756.091 479.14L756.316 479.23L756.5 479.289L756.724 479.357L756.909 479.409L757.165 479.461L757.478 479.513H757.71H757.935H758.56H758.793H758.985H759.209C759.653 479.429 760.081 479.28 760.476 479.073C760.227 479.215 759.971 479.342 759.674 479.469L759.29 479.648L758.889 479.827L758.496 479.992L758.087 480.148L757.694 480.29L757.27 480.432L756.877 480.552L756.428 480.679L756.051 480.776L755.562 480.888L755.209 480.963L754.648 481.06L754.352 481.104L753.502 481.209C754.002 481.285 754.479 481.455 754.905 481.709C755.177 481.849 755.468 481.955 755.771 482.023C755.904 482.031 756.038 482.031 756.171 482.023H756.668H756.997L757.422 481.971H757.742H758.127C758.933 481.957 759.734 482.103 760.476 482.397C760.868 482.569 761.227 482.799 761.542 483.076C761.446 483.271 761.35 483.472 761.261 483.674C761.173 483.876 761.117 484.025 761.053 484.197C760.925 484.55 760.812 484.909 760.716 485.272C760.381 486.588 760.297 487.948 760.468 489.291C760.468 489.537 760.54 489.784 760.588 490.038L760.628 490.239C760.671 490.434 760.719 490.625 760.772 490.814V490.964C760.842 491.198 760.917 491.429 760.997 491.659L761.053 491.793C761.122 491.982 761.197 492.169 761.277 492.353L761.35 492.518C761.555 492.962 761.791 493.393 762.055 493.81L762.135 493.937C762.258 494.126 762.386 494.31 762.52 494.489V494.542C762.675 494.746 762.835 494.945 763.001 495.139V495.184C763.156 495.363 763.316 495.538 763.482 495.707L763.538 495.767C763.901 496.136 764.289 496.483 764.7 496.805C765.767 497.631 766.976 498.285 768.275 498.739C768.265 498.919 768.265 499.098 768.275 499.277C768.265 499.461 768.265 499.646 768.275 499.83L768.82 504.117C768.574 504.277 768.334 504.443 768.099 504.618C756.596 501.197 736.164 470.207 736.164 470.207L735.771 470.252C737.214 468.967 735.018 464.336 735.018 464.336C734.011 463.914 732.916 463.705 731.812 463.723H731.595H731.499H731.331H731.227H731.066H730.954H730.802H730.689L730.529 463.768H730.425L730.257 463.835H730.168L729.92 463.955L729.688 464.089L729.607 464.142L729.447 464.254L729.359 464.321L729.223 464.44L729.134 464.523L729.006 464.65L728.918 464.739L728.79 464.889L728.71 464.986L728.581 465.173L728.517 465.262C728.453 465.359 728.397 465.456 728.333 465.561C726.377 469.146 728.99 470.737 728.99 470.737C729 472.033 729.091 473.327 729.263 474.614C732.124 498.568 761.959 514.081 763.482 514.858C763.057 516.419 759.626 530.23 767.49 546.117C767.512 546.155 767.539 546.19 767.57 546.222C761.697 552.607 757.713 560.31 756.014 568.569C754.314 576.829 754.957 585.358 757.879 593.315L758.055 593.801H758.312C758.302 593.914 758.286 594.026 758.263 594.137C758.22 594.338 758.158 594.535 758.079 594.727C757.943 595.059 757.766 595.375 757.55 595.668C757.318 595.989 757.037 596.318 756.748 596.654L756.444 597.005C755.21 598.394 753.967 599.746 755.065 600.12L755.867 600.03L770.199 598.716L769.397 592.621H769.662C769.662 592.621 769.534 592.441 769.325 592.098V591.986H769.277C768.251 590.186 765.718 584.554 767.474 575.255C769.638 563.774 782.816 556.701 782.816 556.701L783.168 557.448H783.12L798.23 589.566C798.23 589.693 798.23 589.827 798.23 589.969C798.22 590.29 798.18 590.61 798.11 590.925C798.058 591.178 797.988 591.428 797.901 591.672C797.396 593.039 796.426 594.66 796.066 595.877C796.014 596.041 795.973 596.209 795.945 596.378C795.905 596.568 795.905 596.763 795.945 596.953C795.976 597.073 796.042 597.182 796.135 597.269C796.228 597.356 796.346 597.417 796.474 597.446L796.667 597.394L797.084 597.282L797.108 597.222ZM780.884 502.885C780.59 502.77 780.293 502.668 779.994 502.579L779.489 498.568C779.449 498.261 779.379 497.959 779.281 497.664C780.163 497.141 780.971 496.516 781.685 495.804C781.445 498.373 781.156 500.779 780.884 502.885Z" fill="url(#paint13_linear)"/>
</g>
<path d="M729.303 474.509C729.303 474.509 726.41 472.754 728.574 468.78C730.738 464.807 735.94 467.137 735.94 467.137C735.94 467.137 738.345 472.268 736.742 473.688C735.139 475.107 729.303 474.509 729.303 474.509Z" fill="#CA7070"/>
<path d="M773.838 608.523L761.726 609.852C761.828 610.375 761.81 610.912 761.671 611.427C761.533 611.942 761.279 612.424 760.925 612.84C759.514 614.775 756.508 617.254 758.143 617.807L774.76 615.977L773.838 608.523Z" fill="#00695C"/>
<path opacity="0.2" d="M761.83 612.781C762.184 612.364 762.438 611.883 762.576 611.367C762.715 610.852 762.733 610.315 762.631 609.793L761.75 609.89C761.852 610.413 761.833 610.949 761.695 611.464C761.557 611.98 761.302 612.461 760.948 612.878C759.537 614.812 756.531 617.292 758.167 617.845L759.048 617.748C757.421 617.195 760.427 614.715 761.83 612.781Z" fill="white"/>
<path d="M816.667 601.442L805.533 604.43C806.005 605.651 805.991 606.99 805.493 608.202C804.563 610.734 802.166 614.125 803.89 614.596L819.985 610.316L816.667 601.442Z" fill="#00695C"/>
<path d="M793.421 462.379C793.421 462.379 811.216 499.053 792.154 522.544L785.309 518.757C785.309 518.757 792.884 475.749 784.451 466.779C796.643 461.446 793.421 462.379 793.421 462.379Z" fill="#00695C"/>
<path d="M784.892 466.726C784.892 466.726 781.999 464.971 784.163 460.997C786.327 457.024 791.529 459.354 791.529 459.354C791.529 459.354 793.934 464.485 792.331 465.905C790.728 467.324 784.892 466.726 784.892 466.726Z" fill="#CA7070"/>
<path opacity="0.2" d="M806.374 608.105C806.873 606.893 806.887 605.554 806.415 604.333L816.715 601.577L816.667 601.45L805.533 604.437C806.005 605.659 805.991 606.997 805.493 608.209C804.563 610.742 802.166 614.133 803.89 614.603L804.563 614.424C803.264 613.722 805.477 610.525 806.374 608.105Z" fill="white"/>
<path d="M778.74 499.97L777.682 500.086C774.578 500.428 772.359 503.05 772.726 505.942L773.552 512.455C773.918 515.347 776.732 517.415 779.836 517.073L780.895 516.956C783.998 516.614 786.217 513.993 785.85 511.1L785.024 504.588C784.658 501.696 781.844 499.628 778.74 499.97Z" fill="#CA7070"/>
<path opacity="0.2" d="M786.496 521.117C786.496 521.117 793.974 478.64 785.79 469.311C785.165 469.311 784.764 469.236 784.764 469.236L784.636 469.146L784.323 469.281C792.756 478.244 785.181 521.259 785.181 521.259L792.026 525.046C792.187 524.845 792.347 524.643 792.499 524.434L786.496 521.117Z" fill="white"/>
<path d="M779.181 505.94C786.703 505.112 792.081 498.758 791.192 491.748C790.303 484.739 783.484 479.728 775.962 480.557C768.44 481.385 763.062 487.739 763.951 494.748C764.84 501.758 771.659 506.768 779.181 505.94Z" fill="#CA7070"/>
<path opacity="0.2" d="M775.017 511.811L774.319 506.283C774.273 505.879 774.273 505.471 774.319 505.066C771.503 504.084 769.112 502.267 767.513 499.894C765.913 497.522 765.195 494.725 765.468 491.935C765.742 489.145 766.991 486.516 769.025 484.452C771.059 482.389 773.764 481.005 776.724 480.514L775.922 480.574C772.873 480.914 770.035 482.198 767.861 484.22C765.688 486.242 764.306 488.885 763.937 491.726C763.567 494.567 764.231 497.441 765.823 499.888C767.415 502.335 769.842 504.214 772.716 505.223C772.67 505.627 772.67 506.036 772.716 506.44L773.414 511.968C773.51 512.783 773.793 513.57 774.244 514.275C774.695 514.98 775.304 515.586 776.028 516.053C776.752 516.519 777.576 516.836 778.443 516.98C779.309 517.124 780.2 517.094 781.053 516.89C779.559 516.861 778.127 516.331 777.019 515.399C775.91 514.466 775.199 513.192 775.017 511.811Z" fill="white"/>
<path d="M799.416 554.991C799.416 554.991 773.501 560.645 772.163 557.978C762.889 539.305 767.754 523.187 767.754 523.187C767.543 521.519 767.686 519.829 768.176 518.213C768.666 516.597 769.493 515.087 770.61 513.769C771.726 512.451 773.111 511.351 774.684 510.532C776.257 509.713 777.988 509.19 779.778 508.995C781.567 508.798 783.381 508.932 785.115 509.388C786.849 509.845 788.47 510.615 789.884 511.656C791.299 512.696 792.479 513.986 793.358 515.452C794.237 516.918 794.798 518.531 795.007 520.199L799.416 554.991Z" fill="#00695C"/>
<path d="M799.417 554.991L817.692 604.445L805.829 605.752L788.756 569.444C788.756 569.444 774.159 577.279 771.762 589.992C769.366 602.704 774.167 609.233 774.167 609.233L761.486 610.667L761.286 610.129C758.041 601.316 757.339 591.863 759.251 582.718C761.163 573.573 765.621 565.056 772.179 558.023" fill="#263238"/>
<path opacity="0.2" d="M773.717 557.822C764.443 539.148 769.309 523.03 769.309 523.03C768.901 519.806 769.825 516.559 771.892 513.947C773.96 511.335 777.017 509.554 780.443 508.965C780.146 508.965 779.857 508.965 779.561 509.032C777.771 509.228 776.04 509.75 774.467 510.569C772.894 511.388 771.51 512.488 770.393 513.806C769.276 515.124 768.449 516.634 767.959 518.25C767.469 519.866 767.326 521.556 767.537 523.224C767.537 523.224 762.672 539.328 771.946 558.016C772.419 558.964 776.042 558.852 780.507 558.315C776.9 558.666 774.126 558.643 773.717 557.822Z" fill="white"/>
<path d="M767.529 523.015C767.529 523.015 729.479 503.961 729.311 474.509L737.214 473.635C737.214 473.635 760.932 509.622 773.477 511.983C786.022 514.343 767.529 523.015 767.529 523.015Z" fill="#00695C"/>
<g opacity="0.2">
<path opacity="0.2" d="M789.115 570.333L805.876 605.976L807.632 605.782L790.558 569.474C790.558 569.474 790.013 569.75 789.115 570.333Z" fill="white"/>
<path opacity="0.2" d="M773.966 558.001L772.211 558.195C765.652 565.228 761.194 573.745 759.282 582.89C757.37 592.035 758.072 601.488 761.317 610.301L761.518 610.839L763.273 610.644L763.073 610.107C759.827 601.294 759.125 591.841 761.037 582.696C762.949 573.55 767.408 565.034 773.966 558.001Z" fill="white"/>
</g>
<path opacity="0.2" d="M730.673 474.771L729.358 474.912C729.527 504.364 767.577 523.418 767.577 523.418L768.379 523.015C763.986 520.669 730.833 502.243 730.673 474.771Z" fill="white"/>
<path d="M765.983 488.798C767.073 490.292 767.586 492.047 768.219 493.728C769.574 497.186 771.963 500.525 775.586 501.989C777.589 502.735 779.752 503.036 781.902 502.87C785.164 502.706 788.603 501.727 790.631 499.337C791.876 497.727 792.607 495.821 792.739 493.84C793.063 490.901 792.591 487.933 791.368 485.207C790.144 482.482 788.207 480.085 785.734 478.237C780.716 474.651 773.429 473.934 767.883 476.743C766.887 477.344 765.825 477.844 764.716 478.237C763.86 478.463 762.957 478.494 762.085 478.326C761.213 478.158 760.397 477.797 759.707 477.273C759.619 477.715 759.645 478.17 759.782 478.602C759.92 479.033 760.164 479.427 760.496 479.754C760.829 480.08 761.239 480.328 761.693 480.479C762.148 480.629 762.635 480.677 763.113 480.619C762.162 481.182 761.101 481.565 759.991 481.744C758.881 481.924 757.744 481.897 756.645 481.665C757.388 482.763 758.547 483.561 759.893 483.9C761.238 484.239 762.671 484.094 763.907 483.495C761.56 484.795 758.936 485.601 756.22 485.855C756.789 485.803 758.015 486.647 758.729 486.759C759.607 486.793 760.487 486.756 761.358 486.647C762.264 486.59 763.171 486.759 763.984 487.137C764.797 487.515 765.487 488.089 765.983 488.798Z" fill="#263238"/>
<g opacity="0.2">
<path opacity="0.2" d="M763.104 480.619C762.153 481.183 761.09 481.564 759.978 481.74C761.403 481.653 762.781 481.235 763.986 480.522C763.561 480.571 763.129 480.537 762.719 480.423C762.308 480.308 761.927 480.116 761.601 479.858C761.274 479.6 761.008 479.281 760.82 478.922C760.631 478.564 760.525 478.172 760.507 477.773C760.224 477.63 759.956 477.463 759.706 477.273C759.619 477.714 759.645 478.169 759.781 478.599C759.918 479.03 760.162 479.424 760.493 479.75C760.825 480.076 761.234 480.325 761.687 480.476C762.141 480.627 762.627 480.676 763.104 480.619Z" fill="white"/>
<path opacity="0.2" d="M765.589 478.139C766.698 477.747 767.759 477.246 768.755 476.646C770.349 475.846 772.084 475.317 773.877 475.084C771.778 475.247 769.738 475.809 767.881 476.735C766.885 477.336 765.824 477.837 764.715 478.229C764.563 478.274 764.402 478.296 764.25 478.326C764.703 478.318 765.153 478.255 765.589 478.139Z" fill="white"/>
<path opacity="0.2" d="M759.602 486.677C758.888 486.565 757.662 485.721 757.093 485.773C759.809 485.518 762.433 484.713 764.78 483.413C764.246 483.69 763.662 483.873 763.056 483.95C760.928 484.994 758.604 485.646 756.211 485.87C756.78 485.818 758.006 486.662 758.72 486.774C759.334 486.842 759.957 486.819 760.563 486.707C760.243 486.734 759.92 486.724 759.602 486.677Z" fill="white"/>
<path opacity="0.2" d="M782.783 502.773C780.632 502.939 778.47 502.638 776.466 501.892C772.843 500.398 770.455 497.089 769.1 493.631C768.443 491.95 767.962 490.172 766.863 488.701C766.367 487.99 765.676 487.416 764.861 487.038C764.047 486.659 763.138 486.491 762.23 486.55C761.792 486.557 761.356 486.594 760.924 486.662C761.068 486.662 761.204 486.662 761.357 486.662C762.265 486.603 763.173 486.771 763.987 487.15C764.802 487.528 765.493 488.102 765.99 488.813C767.08 490.307 767.593 492.062 768.226 493.743C769.581 497.201 771.969 500.54 775.593 502.004C777.596 502.75 779.759 503.051 781.909 502.885C782.414 502.885 782.927 502.81 783.44 502.743L782.783 502.773Z" fill="white"/>
<path opacity="0.2" d="M762.495 483.98C761.564 484.02 760.636 483.843 759.796 483.465C758.957 483.087 758.231 482.519 757.686 481.814C757.33 481.786 756.977 481.736 756.628 481.665C757.239 482.56 758.127 483.26 759.175 483.674C760.223 484.087 761.381 484.194 762.495 483.98Z" fill="white"/>
</g>
<path opacity="0.2" d="M857.168 474.006C857.168 474.006 854.274 472.25 856.438 468.277C856.716 467.707 857.134 467.207 857.66 466.817C858.185 466.428 858.802 466.16 859.46 466.036C858.642 466.036 857.84 466.254 857.15 466.664C856.46 467.074 855.91 467.66 855.565 468.351C853.392 472.325 856.294 474.08 856.294 474.08C858.034 474.258 859.789 474.258 861.528 474.08C860.075 474.168 858.617 474.143 857.168 474.006Z" fill="white"/>
<path d="M576.346 608.303H588.538C588.493 608.839 588.574 609.377 588.773 609.881C588.972 610.385 589.285 610.843 589.692 611.224C591.335 612.994 594.63 615.123 593.083 615.855H576.346V608.303Z" fill="#6C63FF"/>
<path opacity="0.2" d="M588.778 611.224C588.372 610.843 588.058 610.385 587.859 609.881C587.66 609.377 587.58 608.839 587.624 608.303H588.506C588.462 608.839 588.542 609.377 588.741 609.881C588.94 610.385 589.254 610.843 589.66 611.224C591.303 612.994 594.598 615.123 593.051 615.855H592.169C593.74 615.123 590.446 612.994 588.778 611.224Z" fill="white"/>
<path d="M532.916 605.958L544.347 607.698C544.035 608.961 544.22 610.286 544.868 611.433C546.11 613.845 548.876 616.945 547.232 617.61L530.712 615.123L532.916 605.958Z" fill="#6C63FF"/>
<path opacity="0.2" d="M543.987 611.448C543.339 610.301 543.154 608.976 543.465 607.713L532.885 606.1V605.973L544.315 607.713C544.004 608.976 544.189 610.301 544.836 611.448C546.079 613.86 548.844 616.96 547.201 617.625L546.511 617.52C547.786 616.684 545.173 613.748 543.987 611.448Z" fill="white"/>
<path d="M557.822 518.164H558.888C562.013 518.164 564.547 515.803 564.547 512.891V506.332C564.547 503.42 562.013 501.059 558.888 501.059H557.822C554.696 501.059 552.163 503.42 552.163 506.332V512.891C552.163 515.803 554.696 518.164 557.822 518.164Z" fill="#985454"/>
<path d="M558.135 507.035C565.709 507.035 571.85 501.313 571.85 494.255C571.85 487.197 565.709 481.475 558.135 481.475C550.56 481.475 544.42 487.197 544.42 494.255C544.42 501.313 550.56 507.035 558.135 507.035Z" fill="#985454"/>
<path opacity="0.2" d="M563 512.412V506.848C562.998 506.441 562.949 506.035 562.855 505.638C565.529 504.354 567.675 502.286 568.963 499.754C570.252 497.221 570.611 494.364 569.986 491.623C569.361 488.881 567.786 486.407 565.504 484.582C563.222 482.756 560.359 481.68 557.356 481.52H558.158C561.233 481.521 564.218 482.484 566.635 484.256C569.051 486.028 570.758 488.506 571.482 491.29C572.206 494.075 571.905 497.006 570.627 499.612C569.349 502.218 567.168 504.348 564.434 505.66C564.528 506.058 564.577 506.463 564.579 506.87V512.412C564.585 513.233 564.403 514.045 564.044 514.794C563.684 515.543 563.157 516.211 562.496 516.754C561.836 517.296 561.058 517.7 560.216 517.938C559.373 518.176 558.486 518.243 557.613 518.134C559.101 517.948 560.467 517.266 561.457 516.214C562.447 515.162 562.995 513.812 563 512.412Z" fill="white"/>
<path d="M544.203 557.975C544.203 557.975 570.655 560.761 571.633 557.975C578.486 538.398 571.633 522.937 571.633 522.937C571.633 521.258 571.278 519.597 570.589 518.046C569.9 516.495 568.889 515.087 567.616 513.9C566.342 512.713 564.83 511.772 563.166 511.13C561.502 510.487 559.719 510.157 557.918 510.157C554.293 510.157 550.815 511.494 548.246 513.876C545.676 516.258 544.222 519.492 544.203 522.869V557.975Z" fill="#6C63FF"/>
<path d="M544.202 557.975L532.259 609.087H544.202L556.586 571.166C556.586 571.166 572.073 577.35 576.049 589.712C580.024 602.074 576.049 609.087 576.049 609.087H588.874L589.002 608.535C591.116 599.427 590.624 589.962 587.574 581.088C584.523 572.214 579.023 564.243 571.624 557.975" fill="#263238"/>
<path opacity="0.2" d="M570.077 557.975C576.931 538.398 570.077 522.937 570.077 522.937C570.076 519.691 568.75 516.568 566.369 514.2C563.987 511.832 560.727 510.397 557.252 510.187C557.549 510.187 557.837 510.187 558.134 510.187C561.753 510.187 565.226 511.52 567.795 513.896C570.364 516.271 571.821 519.497 571.849 522.87C571.849 522.87 578.702 538.324 571.849 557.908C571.496 558.901 567.881 559.185 563.384 559.14C567.031 559.125 569.772 558.804 570.077 557.975Z" fill="white"/>
<g opacity="0.2">
<path opacity="0.2" d="M556.354 572.032L544.194 609.259H542.423L554.807 571.338C554.807 571.338 555.4 571.569 556.354 572.032Z" fill="white"/>
<path opacity="0.2" d="M569.853 558.147H571.624C579.023 564.415 584.524 572.386 587.574 581.26C590.624 590.134 591.116 599.599 589.002 608.706L588.874 609.259H587.102L587.231 608.706C589.345 599.599 588.852 590.134 585.802 581.26C582.752 572.386 577.252 564.415 569.853 558.147Z" fill="white"/>
</g>
<path d="M561.356 522.69C561.356 522.69 601.387 507.565 604.962 478.3L597.202 476.642C597.202 476.642 569.46 510.045 556.715 511.12C543.97 512.196 561.356 522.69 561.356 522.69Z" fill="#6C63FF"/>
<path opacity="0.2" d="M603.568 478.427L604.858 478.704C601.283 507.968 561.253 523.094 561.253 523.094L560.451 522.608C565.18 520.718 600.233 505.69 603.568 478.427Z" fill="white"/>
<path d="M604.288 478.801C604.288 478.801 607.366 477.344 605.675 473.177C603.983 469.009 598.541 470.809 598.541 470.809C598.541 470.809 595.527 475.664 596.937 477.24C598.348 478.816 604.288 478.801 604.288 478.801Z" fill="#985454"/>
<path opacity="0.2" d="M603.423 478.637C603.423 478.637 606.501 477.18 604.809 473.012C604.596 472.421 604.236 471.886 603.758 471.45C603.28 471.014 602.698 470.689 602.06 470.502C602.875 470.585 603.647 470.882 604.286 471.36C604.925 471.838 605.404 472.476 605.667 473.199C607.366 477.367 604.28 478.823 604.28 478.823C602.53 478.816 600.785 478.631 599.078 478.271C600.513 478.505 601.966 478.627 603.423 478.637Z" fill="white"/>
<path d="M559.12 490.005L558.319 507.184H538.969V498.116C538.969 479.802 559.745 472.848 571.448 487.57C571.737 487.928 559.12 490.005 559.12 490.005Z" fill="#263238"/>
<path opacity="0.2" d="M554.823 479.667C559.753 480.048 564.811 482.543 568.811 487.577C569.099 487.936 556.523 490.035 556.523 490.035L555.641 507.214H558.318L559.2 490.035C559.2 490.035 571.776 487.943 571.488 487.577C566.727 481.639 560.538 479.227 554.823 479.667Z" fill="white"/>
<path d="M470.249 323.448H423.593V348.072C425.609 345.576 428.489 343.56 432.233 342.024C435.977 340.392 439.961 339.576 444.185 339.576C451.865 339.576 458.153 341.256 463.049 344.616C467.945 347.976 471.497 352.296 473.705 357.576C475.913 362.76 477.017 368.328 477.017 374.28C477.017 385.32 473.849 394.2 467.513 400.92C461.273 407.64 452.345 411 440.729 411C429.785 411 421.049 408.264 414.521 402.792C407.993 397.32 404.297 390.168 403.433 381.336H423.017C423.881 385.176 425.801 388.248 428.777 390.552C431.849 392.856 435.737 394.008 440.441 394.008C446.105 394.008 450.377 392.232 453.257 388.68C456.137 385.128 457.577 380.424 457.577 374.568C457.577 368.616 456.089 364.104 453.113 361.032C450.233 357.864 445.961 356.28 440.297 356.28C436.265 356.28 432.905 357.288 430.217 359.304C427.529 361.32 425.609 364.008 424.457 367.368H405.161V305.736H470.249V323.448ZM492.36 357.144C492.36 340.536 495.336 327.528 501.288 318.12C507.336 308.712 517.32 304.008 531.24 304.008C545.16 304.008 555.096 308.712 561.048 318.12C567.096 327.528 570.12 340.536 570.12 357.144C570.12 373.848 567.096 386.952 561.048 396.456C555.096 405.96 545.16 410.712 531.24 410.712C517.32 410.712 507.336 405.96 501.288 396.456C495.336 386.952 492.36 373.848 492.36 357.144ZM550.248 357.144C550.248 350.04 549.768 344.088 548.808 339.288C547.944 334.392 546.12 330.408 543.336 327.336C540.648 324.264 536.616 322.728 531.24 322.728C525.864 322.728 521.784 324.264 519 327.336C516.312 330.408 514.488 334.392 513.528 339.288C512.664 344.088 512.232 350.04 512.232 357.144C512.232 364.44 512.664 370.584 513.528 375.576C514.392 380.472 516.216 384.456 519 387.528C521.784 390.504 525.864 391.992 531.24 391.992C536.616 391.992 540.696 390.504 543.48 387.528C546.264 384.456 548.088 380.472 548.952 375.576C549.816 370.584 550.248 364.44 550.248 357.144ZM585.742 333.672C586.222 324.072 589.582 316.68 595.822 311.496C602.158 306.216 610.462 303.576 620.734 303.576C627.742 303.576 633.742 304.824 638.734 307.32C643.726 309.72 647.47 313.032 649.966 317.256C652.558 321.384 653.854 326.088 653.854 331.368C653.854 337.416 652.27 342.552 649.102 346.776C646.03 350.904 642.334 353.688 638.014 355.128V355.704C643.582 357.432 647.902 360.504 650.974 364.92C654.142 369.336 655.726 375 655.726 381.912C655.726 387.672 654.382 392.808 651.694 397.32C649.102 401.832 645.214 405.384 640.03 407.976C634.942 410.472 628.798 411.72 621.598 411.72C610.75 411.72 601.918 408.984 595.102 403.512C588.286 398.04 584.686 389.976 584.302 379.32H603.886C604.078 384.024 605.662 387.816 608.638 390.696C611.71 393.48 615.886 394.872 621.166 394.872C626.062 394.872 629.806 393.528 632.398 390.84C635.086 388.056 636.43 384.504 636.43 380.184C636.43 374.424 634.606 370.296 630.958 367.8C627.31 365.304 621.646 364.056 613.966 364.056H609.79V347.496H613.966C627.598 347.496 634.414 342.936 634.414 333.816C634.414 329.688 633.166 326.472 630.67 324.168C628.27 321.864 624.766 320.712 620.158 320.712C615.646 320.712 612.142 321.96 609.646 324.456C607.246 326.856 605.854 329.928 605.47 333.672H585.742Z" fill="#E0E0E0"/>
<path d="M459.167 323.834H412.511V348.458C414.527 345.962 417.407 343.946 421.151 342.41C424.895 340.778 428.879 339.962 433.103 339.962C440.783 339.962 447.071 341.642 451.967 345.002C456.863 348.362 460.415 352.682 462.623 357.962C464.831 363.146 465.935 368.714 465.935 374.666C465.935 385.706 462.767 394.586 456.431 401.306C450.191 408.026 441.263 411.386 429.647 411.386C418.703 411.386 409.967 408.65 403.439 403.178C396.911 397.706 393.215 390.554 392.351 381.722H411.935C412.799 385.562 414.719 388.634 417.695 390.938C420.767 393.242 424.655 394.394 429.359 394.394C435.023 394.394 439.295 392.618 442.175 389.066C445.055 385.514 446.495 380.81 446.495 374.954C446.495 369.002 445.007 364.49 442.031 361.418C439.151 358.25 434.879 356.666 429.215 356.666C425.183 356.666 421.823 357.674 419.135 359.69C416.447 361.706 414.527 364.394 413.375 367.754H394.079V306.122H459.167V323.834ZM481.278 357.53C481.278 340.922 484.254 327.914 490.206 318.506C496.254 309.098 506.238 304.394 520.158 304.394C534.078 304.394 544.014 309.098 549.966 318.506C556.014 327.914 559.038 340.922 559.038 357.53C559.038 374.234 556.014 387.338 549.966 396.842C544.014 406.346 534.078 411.098 520.158 411.098C506.238 411.098 496.254 406.346 490.206 396.842C484.254 387.338 481.278 374.234 481.278 357.53ZM539.166 357.53C539.166 350.426 538.686 344.474 537.726 339.674C536.862 334.778 535.038 330.794 532.254 327.722C529.566 324.65 525.534 323.114 520.158 323.114C514.782 323.114 510.702 324.65 507.918 327.722C505.23 330.794 503.406 334.778 502.446 339.674C501.582 344.474 501.15 350.426 501.15 357.53C501.15 364.826 501.582 370.97 502.446 375.962C503.31 380.858 505.134 384.842 507.918 387.914C510.702 390.89 514.782 392.378 520.158 392.378C525.534 392.378 529.614 390.89 532.398 387.914C535.182 384.842 537.006 380.858 537.87 375.962C538.734 370.97 539.166 364.826 539.166 357.53ZM574.66 334.058C575.14 324.458 578.5 317.066 584.74 311.882C591.076 306.602 599.38 303.962 609.652 303.962C616.66 303.962 622.66 305.21 627.652 307.706C632.644 310.106 636.388 313.418 638.884 317.642C641.476 321.77 642.772 326.474 642.772 331.754C642.772 337.802 641.188 342.938 638.02 347.162C634.948 351.29 631.252 354.074 626.932 355.514V356.09C632.5 357.818 636.82 360.89 639.892 365.306C643.06 369.722 644.644 375.386 644.644 382.298C644.644 388.058 643.3 393.194 640.612 397.706C638.02 402.218 634.132 405.77 628.948 408.362C623.86 410.858 617.716 412.106 610.516 412.106C599.668 412.106 590.836 409.37 584.02 403.898C577.204 398.426 573.604 390.362 573.22 379.706H592.804C592.996 384.41 594.58 388.202 597.556 391.082C600.628 393.866 604.804 395.258 610.084 395.258C614.98 395.258 618.724 393.914 621.316 391.226C624.004 388.442 625.348 384.89 625.348 380.57C625.348 374.81 623.524 370.682 619.876 368.186C616.228 365.69 610.564 364.442 602.884 364.442H598.708V347.882H602.884C616.516 347.882 623.332 343.322 623.332 334.202C623.332 330.074 622.084 326.858 619.588 324.554C617.188 322.25 613.684 321.098 609.076 321.098C604.564 321.098 601.06 322.346 598.564 324.842C596.164 327.242 594.772 330.314 594.388 334.058H574.66Z" fill="#2E157E"/>
<path d="M439.631 451.252C437.879 451.252 436.295 450.952 434.879 450.352C433.487 449.752 432.383 448.888 431.567 447.76C430.751 446.632 430.331 445.3 430.307 443.764H435.707C435.779 444.796 436.139 445.612 436.787 446.212C437.459 446.812 438.371 447.112 439.523 447.112C440.699 447.112 441.623 446.836 442.295 446.284C442.967 445.708 443.303 444.964 443.303 444.052C443.303 443.308 443.075 442.696 442.619 442.216C442.163 441.736 441.587 441.364 440.891 441.1C440.219 440.812 439.283 440.5 438.083 440.164C436.451 439.684 435.119 439.216 434.087 438.76C433.079 438.28 432.203 437.572 431.459 436.636C430.739 435.676 430.379 434.404 430.379 432.82C430.379 431.332 430.751 430.036 431.495 428.932C432.239 427.828 433.283 426.988 434.627 426.412C435.971 425.812 437.507 425.512 439.235 425.512C441.827 425.512 443.927 426.148 445.535 427.42C447.167 428.668 448.067 430.42 448.235 432.676H442.691C442.643 431.812 442.271 431.104 441.575 430.552C440.903 429.976 440.003 429.688 438.875 429.688C437.891 429.688 437.099 429.94 436.499 430.444C435.923 430.948 435.635 431.68 435.635 432.64C435.635 433.312 435.851 433.876 436.283 434.332C436.739 434.764 437.291 435.124 437.939 435.412C438.611 435.676 439.547 435.988 440.747 436.348C442.379 436.828 443.711 437.308 444.743 437.788C445.775 438.268 446.663 438.988 447.407 439.948C448.151 440.908 448.523 442.168 448.523 443.728C448.523 445.072 448.175 446.32 447.479 447.472C446.783 448.624 445.763 449.548 444.419 450.244C443.075 450.916 441.479 451.252 439.631 451.252ZM471.432 440.596C471.432 441.316 471.384 441.964 471.288 442.54H456.708C456.828 443.98 457.332 445.108 458.22 445.924C459.108 446.74 460.2 447.148 461.496 447.148C463.368 447.148 464.7 446.344 465.492 444.736H470.928C470.352 446.656 469.248 448.24 467.616 449.488C465.984 450.712 463.98 451.324 461.604 451.324C459.684 451.324 457.956 450.904 456.42 450.064C454.908 449.2 453.72 447.988 452.856 446.428C452.016 444.868 451.596 443.068 451.596 441.028C451.596 438.964 452.016 437.152 452.856 435.592C453.696 434.032 454.872 432.832 456.384 431.992C457.896 431.152 459.636 430.732 461.604 430.732C463.5 430.732 465.192 431.14 466.68 431.956C468.192 432.772 469.356 433.936 470.172 435.448C471.012 436.936 471.432 438.652 471.432 440.596ZM466.212 439.156C466.188 437.86 465.72 436.828 464.808 436.06C463.896 435.268 462.78 434.872 461.46 434.872C460.212 434.872 459.156 435.256 458.292 436.024C457.452 436.768 456.936 437.812 456.744 439.156H466.212ZM480.151 434.152C480.799 433.096 481.639 432.268 482.671 431.668C483.727 431.068 484.927 430.768 486.271 430.768V436.06H484.939C483.355 436.06 482.155 436.432 481.339 437.176C480.547 437.92 480.151 439.216 480.151 441.064V451H475.111V431.056H480.151V434.152ZM497.982 446.356L503.022 431.056H508.386L501.006 451H494.886L487.542 431.056H492.942L497.982 446.356ZM513.772 428.68C512.884 428.68 512.14 428.404 511.54 427.852C510.964 427.276 510.676 426.568 510.676 425.728C510.676 424.888 510.964 424.192 511.54 423.64C512.14 423.064 512.884 422.776 513.772 422.776C514.66 422.776 515.392 423.064 515.968 423.64C516.568 424.192 516.868 424.888 516.868 425.728C516.868 426.568 516.568 427.276 515.968 427.852C515.392 428.404 514.66 428.68 513.772 428.68ZM516.256 431.056V451H511.216V431.056H516.256ZM519.94 441.028C519.94 438.964 520.36 437.164 521.2 435.628C522.04 434.068 523.204 432.868 524.692 432.028C526.18 431.164 527.884 430.732 529.804 430.732C532.276 430.732 534.316 431.356 535.924 432.604C537.556 433.828 538.648 435.556 539.2 437.788H533.764C533.476 436.924 532.984 436.252 532.288 435.772C531.616 435.268 530.776 435.016 529.768 435.016C528.328 435.016 527.188 435.544 526.348 436.6C525.508 437.632 525.088 439.108 525.088 441.028C525.088 442.924 525.508 444.4 526.348 445.456C527.188 446.488 528.328 447.004 529.768 447.004C531.808 447.004 533.14 446.092 533.764 444.268H539.2C538.648 446.428 537.556 448.144 535.924 449.416C534.292 450.688 532.252 451.324 529.804 451.324C527.884 451.324 526.18 450.904 524.692 450.064C523.204 449.2 522.04 448 521.2 446.464C520.36 444.904 519.94 443.092 519.94 441.028ZM561.432 440.596C561.432 441.316 561.384 441.964 561.288 442.54H546.708C546.828 443.98 547.332 445.108 548.22 445.924C549.108 446.74 550.2 447.148 551.496 447.148C553.368 447.148 554.7 446.344 555.492 444.736H560.928C560.352 446.656 559.248 448.24 557.616 449.488C555.984 450.712 553.98 451.324 551.604 451.324C549.684 451.324 547.956 450.904 546.42 450.064C544.908 449.2 543.72 447.988 542.856 446.428C542.016 444.868 541.596 443.068 541.596 441.028C541.596 438.964 542.016 437.152 542.856 435.592C543.696 434.032 544.872 432.832 546.384 431.992C547.896 431.152 549.636 430.732 551.604 430.732C553.5 430.732 555.192 431.14 556.68 431.956C558.192 432.772 559.356 433.936 560.172 435.448C561.012 436.936 561.432 438.652 561.432 440.596ZM556.212 439.156C556.188 437.86 555.72 436.828 554.808 436.06C553.896 435.268 552.78 434.872 551.46 434.872C550.212 434.872 549.156 435.256 548.292 436.024C547.452 436.768 546.936 437.812 546.744 439.156H556.212ZM578.657 425.872V441.424C578.657 443.128 579.101 444.436 579.989 445.348C580.877 446.236 582.125 446.68 583.733 446.68C585.365 446.68 586.625 446.236 587.513 445.348C588.401 444.436 588.845 443.128 588.845 441.424V425.872H593.921V441.388C593.921 443.524 593.453 445.336 592.517 446.824C591.605 448.288 590.369 449.392 588.809 450.136C587.273 450.88 585.557 451.252 583.661 451.252C581.789 451.252 580.085 450.88 578.549 450.136C577.037 449.392 575.837 448.288 574.949 446.824C574.061 445.336 573.617 443.524 573.617 441.388V425.872H578.657ZM609.843 430.768C612.219 430.768 614.139 431.524 615.603 433.036C617.067 434.524 617.799 436.612 617.799 439.3V451H612.759V439.984C612.759 438.4 612.363 437.188 611.571 436.348C610.779 435.484 609.699 435.052 608.331 435.052C606.939 435.052 605.835 435.484 605.019 436.348C604.227 437.188 603.831 438.4 603.831 439.984V451H598.791V431.056H603.831V433.54C604.503 432.676 605.355 432.004 606.387 431.524C607.443 431.02 608.595 430.768 609.843 430.768ZM621.295 440.956C621.295 438.94 621.691 437.152 622.483 435.592C623.299 434.032 624.391 432.832 625.759 431.992C627.151 431.152 628.699 430.732 630.403 430.732C631.891 430.732 633.187 431.032 634.291 431.632C635.419 432.232 636.319 432.988 636.991 433.9V431.056H642.067V451H636.991V448.084C636.343 449.02 635.443 449.8 634.291 450.424C633.163 451.024 631.855 451.324 630.367 451.324C628.687 451.324 627.151 450.892 625.759 450.028C624.391 449.164 623.299 447.952 622.483 446.392C621.691 444.808 621.295 442.996 621.295 440.956ZM636.991 441.028C636.991 439.804 636.751 438.76 636.271 437.896C635.791 437.008 635.143 436.336 634.327 435.88C633.511 435.4 632.635 435.16 631.699 435.16C630.763 435.16 629.899 435.388 629.107 435.844C628.315 436.3 627.667 436.972 627.163 437.86C626.683 438.724 626.443 439.756 626.443 440.956C626.443 442.156 626.683 443.212 627.163 444.124C627.667 445.012 628.315 445.696 629.107 446.176C629.923 446.656 630.787 446.896 631.699 446.896C632.635 446.896 633.511 446.668 634.327 446.212C635.143 445.732 635.791 445.06 636.271 444.196C636.751 443.308 636.991 442.252 636.991 441.028ZM655.306 446.356L660.346 431.056H665.71L658.33 451H652.21L644.866 431.056H650.266L655.306 446.356ZM667.245 440.956C667.245 438.94 667.641 437.152 668.433 435.592C669.249 434.032 670.341 432.832 671.709 431.992C673.101 431.152 674.649 430.732 676.353 430.732C677.841 430.732 679.137 431.032 680.241 431.632C681.369 432.232 682.269 432.988 682.941 433.9V431.056H688.017V451H682.941V448.084C682.293 449.02 681.393 449.8 680.241 450.424C679.113 451.024 677.805 451.324 676.317 451.324C674.637 451.324 673.101 450.892 671.709 450.028C670.341 449.164 669.249 447.952 668.433 446.392C667.641 444.808 667.245 442.996 667.245 440.956ZM682.941 441.028C682.941 439.804 682.701 438.76 682.221 437.896C681.741 437.008 681.093 436.336 680.277 435.88C679.461 435.4 678.585 435.16 677.649 435.16C676.713 435.16 675.849 435.388 675.057 435.844C674.265 436.3 673.617 436.972 673.113 437.86C672.633 438.724 672.393 439.756 672.393 440.956C672.393 442.156 672.633 443.212 673.113 444.124C673.617 445.012 674.265 445.696 675.057 446.176C675.873 446.656 676.737 446.896 677.649 446.896C678.585 446.896 679.461 446.668 680.277 446.212C681.093 445.732 681.741 445.06 682.221 444.196C682.701 443.308 682.941 442.252 682.941 441.028ZM695.495 428.68C694.607 428.68 693.863 428.404 693.263 427.852C692.687 427.276 692.399 426.568 692.399 425.728C692.399 424.888 692.687 424.192 693.263 423.64C693.863 423.064 694.607 422.776 695.495 422.776C696.383 422.776 697.115 423.064 697.691 423.64C698.291 424.192 698.591 424.888 698.591 425.728C698.591 426.568 698.291 427.276 697.691 427.852C697.115 428.404 696.383 428.68 695.495 428.68ZM697.979 431.056V451H692.939V431.056H697.979ZM707.999 424.36V451H702.959V424.36H707.999ZM711.682 440.956C711.682 438.94 712.078 437.152 712.87 435.592C713.686 434.032 714.778 432.832 716.146 431.992C717.538 431.152 719.086 430.732 720.79 430.732C722.278 430.732 723.574 431.032 724.678 431.632C725.806 432.232 726.706 432.988 727.378 433.9V431.056H732.454V451H727.378V448.084C726.73 449.02 725.83 449.8 724.678 450.424C723.55 451.024 722.242 451.324 720.754 451.324C719.074 451.324 717.538 450.892 716.146 450.028C714.778 449.164 713.686 447.952 712.87 446.392C712.078 444.808 711.682 442.996 711.682 440.956ZM727.378 441.028C727.378 439.804 727.138 438.76 726.658 437.896C726.178 437.008 725.53 436.336 724.714 435.88C723.898 435.4 723.022 435.16 722.086 435.16C721.15 435.16 720.286 435.388 719.494 435.844C718.702 436.3 718.054 436.972 717.55 437.86C717.07 438.724 716.83 439.756 716.83 440.956C716.83 442.156 717.07 443.212 717.55 444.124C718.054 445.012 718.702 445.696 719.494 446.176C720.31 446.656 721.174 446.896 722.086 446.896C723.022 446.896 723.898 446.668 724.714 446.212C725.53 445.732 726.178 445.06 726.658 444.196C727.138 443.308 727.378 442.252 727.378 441.028ZM742.417 433.972C743.065 433.012 743.953 432.232 745.081 431.632C746.233 431.032 747.541 430.732 749.005 430.732C750.709 430.732 752.245 431.152 753.613 431.992C755.005 432.832 756.097 434.032 756.889 435.592C757.705 437.128 758.113 438.916 758.113 440.956C758.113 442.996 757.705 444.808 756.889 446.392C756.097 447.952 755.005 449.164 753.613 450.028C752.245 450.892 750.709 451.324 749.005 451.324C747.517 451.324 746.209 451.036 745.081 450.46C743.977 449.86 743.089 449.092 742.417 448.156V451H737.377V424.36H742.417V433.972ZM752.965 440.956C752.965 439.756 752.713 438.724 752.209 437.86C751.729 436.972 751.081 436.3 750.265 435.844C749.473 435.388 748.609 435.16 747.673 435.16C746.761 435.16 745.897 435.4 745.081 435.88C744.289 436.336 743.641 437.008 743.137 437.896C742.657 438.784 742.417 439.828 742.417 441.028C742.417 442.228 742.657 443.272 743.137 444.16C743.641 445.048 744.289 445.732 745.081 446.212C745.897 446.668 746.761 446.896 747.673 446.896C748.609 446.896 749.473 446.656 750.265 446.176C751.081 445.696 751.729 445.012 752.209 444.124C752.713 443.236 752.965 442.18 752.965 440.956ZM766.815 424.36V451H761.775V424.36H766.815ZM790.335 440.596C790.335 441.316 790.287 441.964 790.191 442.54H775.611C775.731 443.98 776.235 445.108 777.123 445.924C778.011 446.74 779.103 447.148 780.399 447.148C782.271 447.148 783.603 446.344 784.395 444.736H789.831C789.255 446.656 788.151 448.24 786.519 449.488C784.887 450.712 782.883 451.324 780.507 451.324C778.587 451.324 776.859 450.904 775.323 450.064C773.811 449.2 772.623 447.988 771.759 446.428C770.919 444.868 770.499 443.068 770.499 441.028C770.499 438.964 770.919 437.152 771.759 435.592C772.599 434.032 773.775 432.832 775.287 431.992C776.799 431.152 778.539 430.732 780.507 430.732C782.403 430.732 784.095 431.14 785.583 431.956C787.095 432.772 788.259 433.936 789.075 435.448C789.915 436.936 790.335 438.652 790.335 440.596ZM785.115 439.156C785.091 437.86 784.623 436.828 783.711 436.06C782.799 435.268 781.683 434.872 780.363 434.872C779.115 434.872 778.059 435.256 777.195 436.024C776.355 436.768 775.839 437.812 775.647 439.156H785.115Z" fill="#2E157E"/>
<path opacity="0.1" d="M685.488 177.912C685.488 177.912 716.37 117.927 752.871 148.863C752.871 148.863 760.839 151.768 760.236 160.201C760.236 160.201 757.166 158.516 754.727 164.958C753.832 167.244 752.669 169.416 751.263 171.428C749.395 174.146 746.696 176.185 743.572 177.239C743.572 177.239 727.193 189.52 696.851 180.048C696.851 180.048 688.274 181.282 686.888 180.214L696.858 172.919C696.858 172.919 701.923 180.443 709.33 181.303C709.33 181.303 696.858 173.467 698.286 171.768C698.577 171.421 703.746 168.141 703.746 168.141C703.746 168.141 712.607 181.185 724.095 182.149C724.095 182.149 708 174.805 705.693 166.893L713.778 162.378C713.778 162.378 722.467 176.629 735.514 178.224C735.514 178.224 718.954 169.965 715.615 161.511L724.172 158.169C724.172 158.169 732.923 171.9 743.78 173.155C743.78 173.155 725.613 161.678 726.181 157.531C726.181 157.531 734.225 154.937 736.692 155.277C736.692 155.277 743.198 164.986 749.572 165.159C749.572 165.159 738.244 156.199 738.992 154.819C738.992 154.819 750.369 154.23 756.314 156.983C756.314 156.983 747.861 152.274 738.992 153.037C738.992 153.037 743.004 148.315 748.235 147.275C748.235 147.275 741.965 144.695 736.235 153.211C736.235 153.211 727.387 154.022 726.292 155.007C726.292 155.007 730.768 145.798 736.276 141.879C736.276 141.879 728.066 143.329 723.998 155.811L715.324 158.98C715.324 158.98 720.596 146.498 725.246 142.642C725.246 142.642 717.097 145.416 713.203 159.979L705.221 164.32C705.221 164.32 708.942 153.225 713.19 147.809C713.19 147.809 706.184 152.011 702.976 165.644L697.988 169.16C697.988 169.16 700.849 161.102 701.882 158.862C702.914 156.622 702.394 156.158 702.394 156.158C698.927 160.261 696.665 165.247 695.861 170.561C695.861 170.561 686.063 178.467 685.488 177.912Z" fill="#6C63FF"/>
<path opacity="0.1" d="M813.206 209.991C813.206 209.991 827.161 182.884 843.651 196.864C843.651 196.864 847.254 198.175 846.977 201.982C846.977 201.982 845.591 201.226 844.49 204.139C844.09 205.17 843.569 206.15 842.937 207.058C842.094 208.283 840.88 209.205 839.473 209.686C839.473 209.686 832.066 215.234 818.354 210.955C818.354 210.955 814.481 211.51 813.857 211.032L818.361 207.731C818.361 207.731 820.648 211.136 824.001 211.517C824.001 211.517 818.375 207.98 819.012 207.211C819.137 207.058 821.472 205.574 821.472 205.574C821.472 205.574 825.477 211.468 830.674 211.905C830.674 211.905 823.398 208.584 822.359 204.971L826.017 202.939C826.017 202.939 829.939 209.381 835.835 210.102C835.835 210.102 828.352 206.372 826.828 202.551L830.694 201.039C830.694 201.039 834.644 207.245 839.549 207.814C839.549 207.814 831.339 202.627 831.602 200.754C831.602 200.754 835.233 199.583 836.348 199.735C836.348 199.735 839.286 204.125 842.168 204.194C842.168 204.194 837.048 200.151 837.388 199.527C837.388 199.527 842.529 199.264 845.203 200.505C845.203 200.505 841.385 198.376 837.388 198.723C838.49 197.467 839.935 196.561 841.545 196.115C841.545 196.115 838.711 194.95 836.12 198.799C836.12 198.799 832.122 199.166 831.63 199.61C831.63 199.61 833.653 195.449 836.14 193.681C836.14 193.681 832.426 194.333 830.597 199.978L826.717 201.434C826.717 201.434 829.094 195.796 831.2 194.049C831.2 194.049 827.514 195.304 825.754 201.878L822.151 203.833C822.151 203.833 823.828 198.813 825.747 196.372C825.747 196.372 822.581 198.272 821.14 204.43L818.881 206.018C818.881 206.018 820.176 202.377 820.641 201.365C821.105 200.352 820.869 200.144 820.869 200.144C819.302 202.005 818.281 204.263 817.918 206.67C817.918 206.67 813.449 210.241 813.206 209.991Z" fill="#6C63FF"/>
<path opacity="0.1" d="M662 241.53C662 241.53 675.955 214.423 692.487 228.403C692.487 228.403 696.083 229.714 695.812 233.528C695.812 233.528 694.427 232.765 693.325 235.677C692.923 236.708 692.402 237.688 691.773 238.597C690.921 239.828 689.693 240.75 688.274 241.225C688.274 241.225 680.874 246.773 667.162 242.494C667.162 242.494 663.289 243.056 662.665 242.57L667.169 239.27C667.169 239.27 669.455 242.674 672.802 243.063C672.802 243.063 667.176 239.519 667.813 238.749C667.945 238.597 670.28 237.113 670.28 237.113C670.28 237.113 674.285 243.007 679.474 243.444C679.474 243.444 672.206 240.122 671.16 236.51L674.818 234.485C674.818 234.485 678.747 240.92 684.643 241.641C684.643 241.641 677.16 237.91 675.636 234.089L679.502 232.578C679.502 232.578 683.458 238.784 688.364 239.353C688.364 239.353 680.153 234.166 680.41 232.293C680.41 232.293 684.047 231.121 685.163 231.274C685.163 231.274 688.101 235.664 690.983 235.74C690.983 235.74 685.863 231.69 686.202 231.066C686.202 231.066 691.336 230.802 694.018 232.044C694.018 232.044 690.193 229.915 686.195 230.261C687.298 229.006 688.743 228.1 690.353 227.654C690.353 227.654 687.526 226.489 684.934 230.338C684.934 230.338 680.936 230.705 680.444 231.149C680.444 231.149 682.461 226.988 684.955 225.22C684.955 225.22 681.241 225.872 679.412 231.517L675.483 232.973C675.483 232.973 677.867 227.335 679.966 225.594C679.966 225.594 676.287 226.843 674.527 233.417L670.917 235.372C670.917 235.372 672.601 230.352 674.52 227.911C674.52 227.911 671.354 229.811 669.906 235.969L667.647 237.557C667.647 237.557 668.943 233.916 669.407 232.904C669.871 231.891 669.642 231.683 669.642 231.683C668.072 233.542 667.05 235.801 666.691 238.209C666.691 238.209 662.243 241.78 662 241.53Z" fill="#6C63FF"/>
</g>
<defs>
<linearGradient id="paint0_linear" x1="161.169" y1="137.923" x2="161.169" y2="0" gradientUnits="userSpaceOnUse">
<stop stop-color="#808080" stop-opacity="0.25"/>
<stop offset="0.54" stop-color="#808080" stop-opacity="0.12"/>
<stop offset="1" stop-color="#808080" stop-opacity="0.1"/>
</linearGradient>
<linearGradient id="paint1_linear" x1="27140.9" y1="52073.3" x2="27140.9" y2="45697.9" gradientUnits="userSpaceOnUse">
<stop stop-color="#808080" stop-opacity="0.25"/>
<stop offset="0.54" stop-color="#808080" stop-opacity="0.12"/>
<stop offset="1" stop-color="#808080" stop-opacity="0.1"/>
</linearGradient>
<linearGradient id="paint2_linear" x1="17235.3" y1="239250" x2="17235.3" y2="60118.4" gradientUnits="userSpaceOnUse">
<stop stop-color="#808080" stop-opacity="0.25"/>
<stop offset="0.54" stop-color="#808080" stop-opacity="0.12"/>
<stop offset="1" stop-color="#808080" stop-opacity="0.1"/>
</linearGradient>
<linearGradient id="paint3_linear" x1="38095.4" y1="3966.07" x2="38095.4" y2="3734.8" gradientUnits="userSpaceOnUse">
<stop stop-color="#808080" stop-opacity="0.25"/>
<stop offset="0.54" stop-color="#808080" stop-opacity="0.12"/>
<stop offset="1" stop-color="#808080" stop-opacity="0.1"/>
</linearGradient>
<linearGradient id="paint4_linear" x1="7240.26" y1="9955.99" x2="7240.26" y2="1089.49" gradientUnits="userSpaceOnUse">
<stop stop-color="#808080" stop-opacity="0.25"/>
<stop offset="0.54" stop-color="#808080" stop-opacity="0.12"/>
<stop offset="1" stop-color="#808080" stop-opacity="0.1"/>
</linearGradient>
<linearGradient id="paint5_linear" x1="52907.6" y1="9973.26" x2="52907.6" y2="1072.22" gradientUnits="userSpaceOnUse">
<stop stop-color="#808080" stop-opacity="0.25"/>
<stop offset="0.54" stop-color="#808080" stop-opacity="0.12"/>
<stop offset="1" stop-color="#808080" stop-opacity="0.1"/>
</linearGradient>
<linearGradient id="paint6_linear" x1="174317" y1="10034.8" x2="174317" y2="1021.71" gradientUnits="userSpaceOnUse">
<stop stop-color="#808080" stop-opacity="0.25"/>
<stop offset="0.54" stop-color="#808080" stop-opacity="0.12"/>
<stop offset="1" stop-color="#808080" stop-opacity="0.1"/>
</linearGradient>
<linearGradient id="paint7_linear" x1="20197.7" y1="24788" x2="21114.6" y2="24788" gradientUnits="userSpaceOnUse">
<stop stop-color="#808080" stop-opacity="0.25"/>
<stop offset="0.54" stop-color="#808080" stop-opacity="0.12"/>
<stop offset="1" stop-color="#808080" stop-opacity="0.1"/>
</linearGradient>
<linearGradient id="paint8_linear" x1="282753" y1="229900" x2="282753" y2="99031.9" gradientUnits="userSpaceOnUse">
<stop stop-color="#808080" stop-opacity="0.25"/>
<stop offset="0.54" stop-color="#808080" stop-opacity="0.12"/>
<stop offset="1" stop-color="#808080" stop-opacity="0.1"/>
</linearGradient>
<linearGradient id="paint9_linear" x1="568.442" y1="619.992" x2="568.442" y2="462.906" gradientUnits="userSpaceOnUse">
<stop stop-color="#808080" stop-opacity="0.25"/>
<stop offset="0.54" stop-color="#808080" stop-opacity="0.12"/>
<stop offset="1" stop-color="#808080" stop-opacity="0.1"/>
</linearGradient>
<linearGradient id="paint10_linear" x1="350.701" y1="584.955" x2="350.701" y2="584.872" gradientUnits="userSpaceOnUse">
<stop stop-color="#808080" stop-opacity="0.25"/>
<stop offset="0.54" stop-color="#808080" stop-opacity="0.12"/>
<stop offset="1" stop-color="#808080" stop-opacity="0.1"/>
</linearGradient>
<linearGradient id="paint11_linear" x1="23683.7" y1="128077" x2="23683.7" y2="91356.4" gradientUnits="userSpaceOnUse">
<stop stop-color="#808080" stop-opacity="0.25"/>
<stop offset="0.54" stop-color="#808080" stop-opacity="0.12"/>
<stop offset="1" stop-color="#808080" stop-opacity="0.1"/>
</linearGradient>
<linearGradient id="paint12_linear" x1="1247.72" y1="748.668" x2="1247.71" y2="748.602" gradientUnits="userSpaceOnUse">
<stop stop-color="#808080" stop-opacity="0.25"/>
<stop offset="0.54" stop-color="#808080" stop-opacity="0.12"/>
<stop offset="1" stop-color="#808080" stop-opacity="0.1"/>
</linearGradient>
<linearGradient id="paint13_linear" x1="95838.8" y1="45741.2" x2="92863.9" y2="18726.8" gradientUnits="userSpaceOnUse">
<stop stop-color="#808080" stop-opacity="0.25"/>
<stop offset="0.54" stop-color="#808080" stop-opacity="0.12"/>
<stop offset="1" stop-color="#808080" stop-opacity="0.1"/>
</linearGradient>
<clipPath id="clip0">
<rect width="846" height="603" fill="white"/>
</clipPath>
<clipPath id="clip1">
<rect width="694" height="499" fill="white" transform="translate(253 121)"/>
</clipPath>
</defs>
</svg>
